<?xml version="1.0" standalone="no"?>
<!DOCTYPE svg PUBLIC "-//W3C//DTD SVG 1.1//EN" "http://www.w3.org/Graphics/SVG/1.1/DTD/svg11.dtd" >
<svg xmlns="http://www.w3.org/2000/svg" xmlns:xlink="http://www.w3.org/1999/xlink" version="1.1">
<metadata>
Created by FontForge 20161116 at Tue Sep  5 15:09:23 2006
 By Jimmy Wärting
Copyright (c) Gophmann A.L., 2006. All rights reserved.
</metadata>
<defs>
<font id="ArtNouveau-Cafe" horiz-adv-x="402" >
  <font-face 
    font-family="Art Nouveau-Cafe"
    font-weight="400"
    font-stretch="normal"
    units-per-em="1000"
    panose-1="2 0 4 0 0 0 0 0 0 0"
    ascent="800"
    descent="-200"
    x-height="325"
    cap-height="599.5"
    bbox="-45 -220 779 800"
    underline-thickness="20"
    underline-position="-143"
    unicode-range="U+0020-F002"
  />
<missing-glyph horiz-adv-x="500" 
d="M63 0v800h375v-800h-375zM125 63h250v675h-250v-675z" />
    <glyph glyph-name=".notdef" horiz-adv-x="500" 
d="M63 0v800h375v-800h-375zM125 63h250v675h-250v-675z" />
    <glyph glyph-name="NULL" horiz-adv-x="0" 
 />
    <glyph glyph-name="nonmarkingreturn" horiz-adv-x="160" 
 />
    <glyph glyph-name="space" unicode=" " horiz-adv-x="160" 
 />
    <glyph glyph-name="Eth" unicode="&#xd0;" horiz-adv-x="409" 
d="M30 328q-39 -2 -66 -2q-7 -1 -9 3q0 -1 0 34q0 6 9 6q23 0 66 -2q0 174 4.5 200t26.5 26q97 0 137 -13q60 -20 112 -88q84 -112 84 -267q0 -108 -46 -181q-31 -49 -109 -51q-125 -4 -188 5q-19 2 -19 36q0 5 -1 94q-1 98 -1 169v31zM144 352q-8 -21 -33.5 -21t-53.5 -1
q-3 -87 3 -142q11 -106 64 -112q37 -4 59 -4q83 0 125 64q37 55 37 144q0 113 -62 199q-58 82 -128 82q-14 0 -27 -4q-17 -6 -35 -38q-20 -36 -28 -88q-4 -29 -6 -65q35 -1 63 1q8 1 16.5 -3t5.5 -12z" />
    <glyph glyph-name="eth" unicode="&#xf0;" horiz-adv-x="286" 
d="M204 138q0 36 -17 69q-21 40 -53 40q-37 0 -63 -37t-26 -75q0 -35 19 -68q21 -39 54 -39q38 0 63 37q23 34 23 73zM290 416q-17 0 -48 1q-3 -149 -3 -206q0 -86 2 -115q2 -19 19.5 -60.5t17.5 -40.5q0 -9 -16 -9q-12 0 -26.5 25t-19.5 25q-13 -13 -27 -26
q-23 -18 -60 -18q-62 0 -93 57q-24 46 -24 114q0 61 28 106q34 54 91 54q6 0 17 -1.5t16 -1.5q29 0 29 34q0 26 -5 62q-27 -2 -63 -5q-7 -1 -9 3q0 -1 0 44q0 7 9 6q29 -3 55 -3q-13 73 -13 102q0 41 34 41q43 0 43 -32q0 -47 -1 -109q15 2 48 6q12 1 12 -24q0 -30 -13 -29z
" />
    <glyph glyph-name="Lslash" unicode="&#x141;" horiz-adv-x="488" 
d="M217 385q-36 -15 -80 -29q-10 -227 86 -281q53 -30 122 -30q94 0 122 67q4 11 9 11q8 0 7 -17q-1 -15 -14 -38q-51 -84 -177 -84q-59 0 -121 22q-40 14 -54 107q-16 111 -20 232q-36 -9 -74 -17q-8 -4 -11 0q-1 1 -11 35q-3 10 8 11q52 7 88 13l-1 14q0 67 11 172
q2 16 2 17q3 6 15 6q65 1 65 -14q0 -2 -2 -11q-11 -18 -28 -61q-13 -50 -19 -116q8 2 46 14q31 10 44 10q12 0 12 -9q0 -15 -25 -24z" />
    <glyph glyph-name="lslash" unicode="&#x142;" horiz-adv-x="211" 
d="M160 614q0 -4 -3 -12q-22 -49 -32 -213q29 6 52 15q10 4 17 4q12 0 12 -9q0 -15 -25 -24q-19 -8 -58 -23l-2 -48q-5 -96 -5 -156q0 -51 3 -91q3 -32 20.5 -54.5t17.5 -28.5q0 -7 -6 -7q-5 0 -17 7q-33 18 -40 43q0 1 -7 59q-2 14 -2 117l-1 148q-24 -6 -57 -13
q-8 -4 -11 0q-1 1 -11 35q-3 10 8 11q25 3 71 9v215q0 25 61 25q15 0 15 -9z" />
    <glyph glyph-name="Scaron" unicode="&#x160;" horiz-adv-x="409" 
d="M211 566q-49 0 -78 -35.5t-29 -85.5q0 -81 59 -81q36 0 80.5 22.5t62.5 22.5q48 0 72 -54q16 -39 16 -95q0 -65 -31.5 -133.5t-81.5 -109.5q-42 -34 -107 -34q-74 0 -118 55q-41 50 -41 126q0 27 30 27q13 0 13 -33q0 -57 21 -97q26 -50 78 -50q64 0 115 63q49 59 49 126
q0 42 -17 76q-20 44 -57 44q-12 0 -40 -7.5t-45 -7.5q-62 0 -96 37.5t-34 100.5q0 71 49.5 115t121.5 44q84 0 141 -71q7 -8 7 -20q0 -6 -7 -15.5t-13 -9.5q-9 0 -24 21q-19 27 -33 38q-26 21 -63 21zM253 707q-5 -14 -49 -61q-7 -7 -15 0q-44 47 -49 61q-1 4 6 10t10 4
q34 -29 41 -29t41 29q3 2 9.5 -4t5.5 -10z" />
    <glyph glyph-name="scaron" unicode="&#x161;" horiz-adv-x="250" 
d="M148 333q38 0 66 -9q16 -5 16 -26q0 -12 -10.5 -31t-21.5 -19q-10 0 -34 5t-37 4q-79 -5 -79 -40q-1 -13 29 -13q15 0 46 6t46 6q30 0 50.5 -21t20.5 -51q0 -73 -51.5 -118.5t-124.5 -45.5q-15 0 -32 4q-24 6 -24 16q0 8 9 8l15.5 -3.5t28.5 -3.5q42 0 74.5 28.5
t32.5 70.5q0 32 -38 57q-34 22 -70 25q-41 3 -41 47q0 47 42 77q38 27 87 27zM186 436q-5 -14 -49 -61q-7 -7 -15 0q-44 47 -49 61q-1 4 6 10t10 4q34 -29 41 -29t41 29q3 2 9.5 -4t5.5 -10z" />
    <glyph glyph-name="Yacute" unicode="&#xdd;" horiz-adv-x="403" 
d="M10 565q3 14 6 18t14 6q29 6 48 2q12 -2 14 -7q2 -4 -2 -17q-5 -19 -14 -55q-6 -19 -6 -36q0 -49 46 -56q7 -1 22 14.5t20 15.5q11 -1 20.5 -13.5t18.5 -24.5q16 -21 24 -14q20 11 72 46q26 20 26 73q0 26 -5 44q-4 13 -3 15q0 5 11 10q16 3 40 9q19 4 26 -14
q5 -13 5 -30q0 -48 -41 -95q-12 -14 -42 -33q-36 -22 -51 -34q-24 -21 -33 -41t-9 -61q0 -148 18 -277q3 -20 -16 -22q-35 -4 -47 1.5t-9 36.5q17 210 14 236q-1 28 -2 57q-8 44 -49 60q-55 22 -76 38q-28 23 -37 63q-11 44 -3 85zM245 697q-7 -15 -50 -48q-28 -4 -28 20
q0 7 5.5 11.5t58.5 32.5q6 3 11.5 -4t2.5 -12z" />
    <glyph glyph-name="yacute" unicode="&#xfd;" horiz-adv-x="300" 
d="M71 326q32 0 32 -20q0 -14 -9.5 -64.5t-9.5 -74.5q0 -39 32.5 -72t71.5 -33q24 0 36 44q10 32 10 63q0 55 -29 113q-3 7 -3 10q0 12 22 23.5t35 11.5q16 0 24 -52q5 -32 5 -63q0 -127 -62 -231q-66 -113 -179 -154q-4 -2 -8 -2q-7 0 -22.5 19t-15.5 27q0 3 7 5
q81 29 91 34q43 22 71 66q16 26 16 30q0 5 -25 21q-15 9 -31 19q-46 36 -75.5 92.5t-29.5 113.5q0 36 6 51q10 23 40 23zM207 422q-7 -15 -50 -48q-28 -4 -28 20q0 7 5.5 11.5t58.5 32.5q6 3 11.5 -4t2.5 -12z" />
    <glyph glyph-name="Thorn" unicode="&#xde;" horiz-adv-x="294" 
d="M282 277q0 -62 -31 -113q-36 -59 -94 -59q-23 0 -42.5 25t-19.5 50q0 6 5 13t11 7q7 0 21 -29t39 -30q37 -2 59 36q17 31 17 68q0 39 -20 69q-22 35 -59 35q-62 0 -84 -66q-12 -39 -12 -118q0 -87 -19 -179q-12 1 -29 5q-23 6 -20 13q13 33 28 115q19 96 19 161v12.5
v14.5q-1 67 -19 161q-16 81 -28 113q-3 7 19 13q16 5 28 6q22 -68 25 -201q7 23 36 38q22 11 39 11q62 0 99 -56q32 -50 32 -115z" />
    <glyph glyph-name="thorn" unicode="&#xfe;" horiz-adv-x="294" 
d="M282 152q0 -63 -31 -114q-36 -59 -94 -59q-23 0 -42.5 25.5t-19.5 49.5q0 6 5 13t11 7q7 0 21 -28.5t39 -30.5q37 -2 59 36q17 31 17 68q0 39 -21 71.5t-58 32.5q-62 0 -84 -66q-12 -39 -12 -118q0 -62 -24 -179q-11 1 -27 5q-20 7 -17 13q13 33 28 115q19 97 19 161
v12.5v15.5q-1 66 -19 161q-16 80 -28 113q-3 6 17 12q16 5 27 6q25 -78 28 -200q7 23 36 37q22 12 39 12q62 0 99 -57q32 -50 32 -114z" />
    <glyph glyph-name="Zcaron" unicode="&#x17d;" horiz-adv-x="446" 
d="M404 544q0 -39 -60 -113q-16 -20 -90 -100q-127 -139 -127 -226q0 -52 35 -68q25 -11 82 -8q50 3 67 7q30 8 63 33q9 14 33 43q5 5 16 5q19 0 15 -16q-24 -81 -93 -103q-33 -11 -133 -11q-80 0 -118 9q-84 19 -84 78q0 37 54 105q32 41 114 128q50 51 99 101
q73 82 73 111q0 31 -21 35.5t-44 4.5q-44 0 -94 -20l-86 -38q-11 -5 -19 -5q-17 0 -17 15q0 8 7 20q10 17 28 37q23 26 38 27q131 5 215 -3q10 -1 27 -14q20 -16 20 -34zM293 707q-5 -14 -49 -61q-7 -7 -15 0q-44 47 -49 61q-1 4 6 10t10 4q34 -29 41 -29t41 29q3 2 9.5 -4
t5.5 -10z" />
    <glyph glyph-name="zcaron" unicode="&#x17e;" horiz-adv-x="242" 
d="M142 325q41 0 68 -3q22 -2 22 -29q0 -46 -63.5 -116t-63.5 -100q0 -26 40 -26q29 0 51 13.5t21 13.5q17 0 17 -40q0 -25 -4 -40q-2 -7 -95 -7q-70 0 -68 -1q-49 5 -49 30q0 37 51 93q39 39 79 77q30 30 30 60q0 16 -11.5 29.5t-26.5 13.5q-21 0 -51 -19.5t-32 -19.5
q-11 0 -29 16t-18 26q0 18 22 22q39 7 110 7zM177 436q-5 -14 -49 -61q-7 -7 -15 0q-44 47 -49 61q-1 4 6 10t10 4q34 -29 41 -29t41 29q3 2 9.5 -4t5.5 -10z" />
    <glyph glyph-name="exclam" unicode="!" horiz-adv-x="151" 
d="M111 555q-10 -164 -31 -410q-2 -18 -12 -18q-14 0 -16 18q-1 10 -6 195.5t-5 211.5q0 17 17 23q25 8 43 1q12 -5 10 -21zM95 25q0 -35 -29 -35q-9 0 -20 12t-9 24q5 29 27 29q31 0 31 -30z" />
    <glyph glyph-name="quotedbl" unicode="&#x22;" horiz-adv-x="185" 
d="M78 606q2 -10 -6 -43t-17.5 -37.5t-10.5 -4.5q-4 0 -10 8q-19 63 -19 75t8 22.5t20 10.5q26 0 35 -31zM108 606q8 31 34 31q12 1 20 -9.5t8 -23.5q1 -36 -17 -74q-6 -8 -9 -9q-2 0 -12 3q-8 9 -17 41t-7 41z" />
    <glyph glyph-name="numbersign" unicode="#" horiz-adv-x="468" 
d="M184 235q56 -1 93 -1q3 58 4 98l-100 -4zM404 218q-11 -16 -33 -16q-18 0 -60 -1l2 -131q0 -22 -21 -22t-21 13q0 16 5 139l-91 -2l4 -124q1 -14 -18 -14q-31 0 -30 20q1 41 3 117l-86 -2q-17 -1 -17 16q0 27 17 27q16 0 87 -2q1 52 1 91q-66 -2 -75 -2q-17 0 -17 19
q0 10 5.5 19.5t12.5 9.5q17 0 74 -2q-1 90 -6 109q-3 10 -2 14q2 5 10 8q8 2 12 -1q16 -11 16.5 -33t2.5 -98q64 -2 102 -3q2 84 -3 102q-2 4 1 14q2 5 7 8q5 2 9 -1q12 -8 12.5 -31t1.5 -92q70 0 87 5q10 3 14 1q5 -1 8 -7t0 -10q-15 -21 -33 -21q-22 0 -76 -2l1 -99
q56 1 73 5q9 3 14 1q5 -1 7 -9q3 -8 0 -13z" />
    <glyph glyph-name="dollar" unicode="$" 
d="M206 284q-2 -170 0 -252q48 21 75 72q24 46 24 80q0 12 -4.5 38.5t-20.5 45.5q-18 23 -41 23q-2 0 -33 -7zM172 332l-2 175q-46 -18 -58 -80q-2 -10 -2 -23q0 -80 62 -72zM193 -72q-18 15 -18 43v17q-49 0 -79 22q-62 45 -66 137q-1 16 10 23q6 3 13 4q8 2 12.5 -2.5
t3.5 -17.5q-3 -33 8 -67q13 -39 36.5 -54.5t61.5 -9.5q-1 87 -2 256q-53 -3 -89 25.5t-39 87.5q-5 109 100 144q13 4 25 6l-1 64q-1 8 3 11q0 -1 31 -1q7 0 7 -10q0 -15 -1 -62q66 -4 117 -63q10 -16 5 -22q-1 -4 -9 -15q-3 -3 -7 -3q-9 0 -17 11q-24 33 -36 43
q-21 17 -53 17l-3 -174q19 5 33 13t25.5 14.5t27.5 6.5q70 0 79 -117q5 -73 -32 -145q-29 -58 -70 -92q-24 -19 -62 -26q2 -27 4 -36q3 -13 1 -19q-1 -6 -8 -10q-7 -3 -11 1z" />
    <glyph glyph-name="percent" unicode="%" horiz-adv-x="483" 
d="M49 -56q-7 22 7 46q142 248 321 562q3 8 8 8l27 -16q6 -3 0 -12q-87 -145 -175 -291q-147 -247 -158 -281q-1 -6 -8 -17q-4 -5 -12 -5q-8 1 -10 6zM131 307q-41 0 -68 39q-23 34 -23 76q0 48 23 89q28 49 74 49q45 0 72 -43q24 -37 24 -81q0 -47 -25 -85q-30 -44 -77 -44
zM199 413q0 28 -17 50t-46 22t-46 -22.5t-17 -51.5t14 -52q16 -28 45 -28q33 0 51 26q16 22 16 56zM341 -10q-41 0 -68 39q-23 34 -23 76q0 48 23 89q28 49 74 49q45 0 72 -43q24 -37 24 -81q0 -47 -25 -85q-30 -44 -77 -44zM409 96q0 28 -17 50t-46 22t-46 -22.5t-17 -51.5
t14 -52q16 -28 45 -28q33 0 51 26q16 22 16 56z" />
    <glyph glyph-name="ampersand" unicode="&#x26;" horiz-adv-x="593" 
d="M319 235q-54 0 -56 -54q-1 -14 -7 -14q-11 0 -11 16q1 39 25 62.5t67 23.5q49 0 86.5 -27.5t52.5 -27.5t36 15t38 15q33 0 33 -48q0 -19 -23 -30q-19 -9 -43 -9q-61 0 -89 22q-8 4 -14 4q-14 0 -24 -29q-16 -49 -21 -59q-17 -32 -46 -60q-47 -45 -101 -48q-71 -3 -131 67
q-57 66 -70 156q-6 44 -6 85q0 158 90 253q50 52 104 52q57 0 112 -58q15 -16 14 -42q0 -21 -19 -50q-8 -12 -17 -12q-7 0 -15 10q-33 41 -94 41q-24 0 -43 -9q-45 -22 -70 -86q-2 -4 -2 -9q0 -29 20 -41q14 -9 26 -13q25 -8 37 -8q24 0 61 20q6 4 11 4q12 0 12 -16
q0 -9 -6 -16q-31 -38 -75 -38q-29 0 -68 14q-5 2 -10 2q-26 0 -26 -32q0 -74 35 -134q33 -55 80 -74q35 -13 67 -13q72 0 109 64q24 41 24 82q0 49 -53 49z" />
    <glyph glyph-name="quotesingle" unicode="'" horiz-adv-x="99" 
d="M78 605q1 -5 1 -12q0 -42 -45 -72q-10 1 -10 8t5 8q1 6 1 12q0 11 -7.5 27t-7.5 26q0 12 8 23t20 11q26 0 35 -31z" />
    <glyph glyph-name="parenleft" unicode="(" horiz-adv-x="204" 
d="M114 -97q-84 129 -89 401q-2 105 17 203q25 131 78 183q9 9 18 9q17 0 41.5 -14.5t24.5 -31.5q0 -4 -24 -27q-60 -58 -93 -192q-27 -111 -25 -217q3 -168 68 -294q3 -6 3 -11q0 -14 -10 -14q-5 0 -9 5z" />
    <glyph glyph-name="parenright" unicode=")" horiz-adv-x="204" 
d="M90 -97q-4 -5 -9 -5q-10 0 -10 14q0 5 3 11q66 126 68 294q2 106 -25 217q-33 134 -93 192q-24 23 -24 27q0 17 26 32q23 14 40 14q9 0 18 -9q53 -52 78 -183q19 -98 17 -203q-5 -272 -89 -401z" />
    <glyph glyph-name="asterisk" unicode="*" horiz-adv-x="206" 
d="M36 561q13 7 27 1q14 -7 28 -12q0 20 -4 34q-2 8 -1 11q1 4 6 6t8 0q12 -9 12 -24t1 -29q4 2 34 26q2 2 5 3q6 -3 12 -10q-2 -15 -16 -23q-9 -5 -17 -11q19 -7 35 -15q4 -1 5 -4l-10 -20q-2 -4 -7 -2q-14 7 -40 21q2 -28 2 -48q1 -5 -2 -6h-22q-5 0 -5 6q0 15 2 42
q-19 -12 -35 -22q-4 -3 -6 -1q-5 8 -11 19q-2 4 3 7q13 7 40 21q-20 9 -35 11q-3 0 -10 4q-3 2 -2 8q0 5 3 7z" />
    <glyph glyph-name="plus" unicode="+" horiz-adv-x="322" 
d="M155 419q21 -15 21 -43q0 -31 2 -64q50 -1 80 7q13 4 20 2q6 -2 9 -11q4 -9 0 -14q-15 -22 -43 -22q-31 0 -64 -1q3 -58 3 -95q1 -8 -3 -11h-40q-8 0 -8 11q0 24 4 93q-53 -3 -90 -4q-8 -1 -11 4q0 -1 0 39q0 8 11 8q24 0 92 -4q1 47 -7 76q-4 13 -2 20q2 6 11 9
q9 4 15 0z" />
    <glyph glyph-name="comma" unicode="," horiz-adv-x="108" 
d="M87 24q2 -5 2 -12q0 -42 -45 -72q-10 2 -10 8q0 8 4 8q2 6 2 12q0 11 -7.5 27t-7.5 27q0 12 8 22.5t20 10.5q26 0 34 -31z" />
    <glyph glyph-name="hyphen" unicode="-" horiz-adv-x="322" 
d="M287 296q-15 -22 -43 -22q-60 -3 -198 -7q-8 -1 -11 4q0 -1 0 39q0 8 11 8q26 0 75.5 -3t70.5 -3q40 0 66 7q13 4 20 2q6 -2 9 -11q4 -9 0 -14z" />
    <glyph glyph-name="hyphen" unicode="&#x2010;" horiz-adv-x="322" 
d="M287 296q-15 -22 -43 -22q-60 -3 -198 -7q-8 -1 -11 4q0 -1 0 39q0 8 11 8q26 0 75.5 -3t70.5 -3q40 0 66 7q13 4 20 2q6 -2 9 -11q4 -9 0 -14z" />
    <glyph glyph-name="period" unicode="." horiz-adv-x="108" 
d="M83 25q0 -35 -29 -35q-8 0 -19.5 12t-9.5 24q5 29 28 29q30 0 30 -30z" />
    <glyph glyph-name="slash" unicode="/" horiz-adv-x="383" 
d="M10 -31q-7 21 7 46q136 251 311 569q3 7 8 7q-2 0 37 -22q5 -4 0 -13q-87 -145 -175 -290q-148 -248 -158 -282q-1 -5 -8 -17q-5 -4 -12 -4q-8 0 -10 6z" />
    <glyph glyph-name="zero" unicode="0" horiz-adv-x="377" 
d="M189 -10q-92 0 -136 98q-33 74 -33 178q0 95 40 182q50 109 133 109q85 0 130 -113q34 -85 34 -186q0 -93 -38 -171q-47 -97 -130 -97zM317 247q0 68 -30 129q-37 75 -98 75q-64 0 -104 -83q-33 -67 -33 -139q0 -66 29 -132q36 -81 92 -81q74 0 113 83q31 64 31 148z" />
    <glyph glyph-name="one" unicode="1" horiz-adv-x="177" 
d="M29 530v1q0 4 11 4h48h48t16 -39q0 -56 -34.5 -162t-34.5 -161q0 -53 43 -58h12q6 -1 6 -8q0 -14 -1.5 -41t-1.5 -40q0 -5 1 -15t1 -15q0 -9 -15 -9q-49 0 -76 40q-23 35 -23 85q0 57 37 165t37 166q0 36 -19 50q-9 6 -37 12q-20 4 -20 16q0 5 2 9z" />
    <glyph glyph-name="two" unicode="2" horiz-adv-x="345" 
d="M85 332q14 0 28.5 15.5t14.5 29.5q0 8 7 8q11 0 19.5 -9t8.5 -20q0 -30 -32.5 -53t-63.5 -23q-25 0 -41 20.5t-16 46.5q0 62 68.5 129.5t130.5 67.5q74 0 74 -93q0 -63 -71.5 -183.5t-71.5 -156.5q0 -34 30 -55q27 -18 63 -18q10 0 77 10q23 10 21 10q9 0 9 -16
q0 -44 -151 -44q-20 0 -61 -1t-61 -1q-33 0 -33 34q0 37 102 177.5t102 191.5q0 31 -16 52.5t-47 21.5q-44 0 -83 -24q-46 -29 -46 -74q0 -16 11.5 -29.5t27.5 -13.5z" />
    <glyph glyph-name="three" unicode="3" horiz-adv-x="313" 
d="M48 409q-13 0 -13 31q0 82 27 92q72 25 97 25q52 0 88 -27q40 -31 40 -80q0 -54 -60 -95q71 -92 71 -205q0 -170 -177 -170q-50 0 -93 21q-12 5 -14 8t-4 15q-5 27 -5 53q0 43 20 43q9 0 49 -24t72 -24q55 0 85 38q29 34 29 90q0 32 -21 78q-24 52 -49 52q-15 0 -58 -15
t-68 -15q-6 0 -6 13t12 19q10 2 26 5q139 28 139 125q0 25 -11 45q-13 24 -36 24q-37 0 -61 -25q-15 -14 -38 -56q-6 -15 -13 -30q-7 -11 -28 -11z" />
    <glyph glyph-name="four" unicode="4" horiz-adv-x="326" 
d="M15 196q0 113 69 221.5t172 149.5q12 5 18 5t9.5 -16.5t3.5 -25.5q0 -15 -2.5 -20t-14.5 -9q-94 -34 -134 -87q-87 -117 -87 -188q0 -32 30 -37q26 -4 88 -4q31 0 39 3q21 6 44 69q20 56 20 84q0 13 -5.5 38t-5.5 37q0 17 21 17q10 0 17 -41q5 -31 5 -51q0 -26 -9 -71
q-11 -51 -13 -70q24 0 23 0q3 -2 3 -26q0 -36 -8 -36q-21 0 -21 -3q0 -19 14.5 -55t14.5 -55q0 -33 -47 -33q-34 0 -43 12q-5 9 -5 48q0 13 2.5 39t2.5 39q0 2 -7 4q-21 6 -63 6q-15 0 -45 -3.5t-45 -3.5q-41 0 -41 63z" />
    <glyph glyph-name="five" unicode="5" horiz-adv-x="316" 
d="M106 392q26 45 73 45q52 0 87 -58q30 -51 30 -107q0 -96 -40 -182q-50 -108 -135 -108q-50 0 -79 40q-27 37 -27 88q0 68 37 126q42 65 106 65q62 0 62 -22q0 -19 -13 -19q-9 0 -25.5 6.5t-25.5 6.5q-36 0 -63 -41q-25 -36 -25 -74q0 -33 18 -59q20 -29 52 -29
q60 0 101 72q36 65 31 127q-3 40 -27 72q-27 37 -63 37t-65.5 -31t-31.5 -31q-10 0 -14 22q-13 95 -35 157q-6 17 -6 21q0 17 37 17q32 0 95 4t95 4q21 0 21 -24q0 -58 -26 -58q-7 0 -40.5 15t-59.5 15q-32 0 -45 -5q-21 -10 -21 -37q0 -24 22 -55z" />
    <glyph glyph-name="six" unicode="6" horiz-adv-x="317" 
d="M184 -17q-76 0 -124 95q-40 79 -40 164q0 68 21 134q23 76 65 118q70 69 151 69q28 0 28 -13q0 -11 -1.5 -32.5t-1.5 -32.5q0 -17 -19 -17q-6 0 -20 2t-20 2q-80 0 -131 -74q-45 -67 -45 -150q0 -62 29 -107q34 -52 94 -52q45 0 72 42q25 37 25 85q0 45 -20 83
q-25 47 -66 47q-25 0 -41 -20q-9 -12 -17 -37q-7 -21 -11 -21q-7 0 -14.5 7.5t-7.5 13.5q0 37 31 65t67 28q58 0 87 -77q22 -58 22 -126q0 -66 -24 -123q-32 -73 -89 -73z" />
    <glyph glyph-name="seven" unicode="7" horiz-adv-x="302" 
d="M143 419q9 0 25 -18q22 -25 23 -26q67 75 67 116q0 28 -31 28q-43 0 -94 -14q-60 -16 -81.5 -40t-28.5 -24q-18 0 -18 61q0 22 2 27q4 14 32 16q102 6 211 6q28 0 35 -3q12 -6 12 -30q0 -40 -30 -85q-27 -37 -55 -74q18 -12 37 -12q3 0 8.5 1.5t8.5 1.5q11 0 11 -16
q0 -34 -33 -34q-14 0 -27.5 11t-25.5 22q-54 -94 -54 -181q0 -59 26 -126q2 -5 2 -9q0 -14 -27 -23q-22 -7 -41 -7q-23 0 -23 58q0 94 19.5 159t72.5 142q-11 12 -24 13q3 0 -28 0t-31 13q0 9 25 28t35 19z" />
    <glyph glyph-name="eight" unicode="8" horiz-adv-x="353" 
d="M256 389q77 -69 77 -196q0 -205 -156 -205t-158 190q-1 54 14 109q16 62 45 96q-32 25 -32 67q0 47 38 78q35 30 82 30q46 0 84.5 -27t38.5 -71q0 -28 -5 -41q-6 -16 -28 -30zM176 509q-34 0 -62 -14q-35 -17 -35 -47q0 -44 81 -44q97 0 97 43q0 25 -29 45q-26 17 -52 17
zM59 209q-1 -57 33 -94.5t91 -37.5t87 51q26 43 24 103t-30 98q-33 45 -95 45q-59 0 -88 -62q-21 -44 -22 -103z" />
    <glyph glyph-name="nine" unicode="9" horiz-adv-x="303" 
d="M131 210q27 0 41 20q8 12 15 38q6 20 11 20q18 0 18 -18q0 -41 -19 -69q-22 -32 -62 -32q-60 0 -91 60q-24 47 -24 114q0 76 27 137q34 81 99 81q22 0 43 -13q94 -61 94 -253q0 -118 -49 -204q-59 -105 -169 -105q-37 0 -37 43q0 67 19 67q8 0 23.5 -2.5t22.5 -2.5
q82 0 125 56q38 51 38 135q0 55 -25 110q-32 71 -86 74q-45 3 -74 -54q-24 -47 -24 -98q0 -40 21 -70q24 -34 63 -34z" />
    <glyph glyph-name="colon" unicode=":" horiz-adv-x="108" 
d="M83 99q0 -35 -29 -35q-8 0 -19.5 11.5t-9.5 24.5q5 29 28 29q30 0 30 -30zM83 298q0 -35 -29 -35q-8 0 -19.5 11.5t-9.5 24.5q5 29 28 29q30 0 30 -30z" />
    <glyph glyph-name="semicolon" unicode=";" horiz-adv-x="108" 
d="M83 297q0 -35 -29 -35q-8 0 -19.5 12t-9.5 24q5 29 28 29q30 0 30 -30zM86 98q1 -5 1 -11q0 -41 -42 -69q-10 2 -10 8q0 7 4 7q2 6 2 12q0 10 -7 25t-7 26t7.5 21t18.5 10q24 0 33 -29z" />
    <glyph glyph-name="less" unicode="&#x3c;" horiz-adv-x="225" 
d="M180 443q5 2 12.5 -10t7.5 -21q0 -2 -1 -4q-24 -28 -48 -55q-35 -42 -35 -57q0 -14 83 -112q1 -2 1 -5q0 -8 -7.5 -20t-12.5 -10q-19 7 -155 135q-13 12 0 24q136 128 155 135z" />
    <glyph glyph-name="equal" unicode="=" horiz-adv-x="322" 
d="M287 353q-13 -19 -43 -22q-51 -4 -198 -7q-21 0 -21 25q0 28 21 26q52 -11 212 1q10 1 20 -2q6 -2 9 -9q4 -7 0 -12zM287 239q-15 -22 -43 -22q-60 -3 -198 -7q-19 -2 -19 21q0 31 19 30q21 0 72 -4q45 -3 69 -3q43 0 71 8q13 4 20 2q6 -2 9 -11q4 -9 0 -14z" />
    <glyph glyph-name="greater" unicode="&#x3e;" horiz-adv-x="225" 
d="M45 443q20 -7 155 -135q13 -12 0 -24q-45 -43 -78 -73q-64 -58 -77 -62q-5 -2 -12.5 10t-7.5 20q0 3 1 5q83 98 83 112q0 15 -35 57q-24 27 -48 55q-1 2 -1 4q0 9 7.5 21t12.5 10z" />
    <glyph glyph-name="question" unicode="?" horiz-adv-x="359" 
d="M98 193q2 -21 6 -43q3 -18 3 -22q0 -8 -11 -10q-13 -3 -20 22q0 2 -9 49q-15 82 -15 96q0 58 47 64q21 2 54.5 -6t54.5 -7q64 3 64 109q0 50 -30 87q-33 39 -82 39q-36 0 -63 -22q-13 -12 -33 -41q-15 -22 -24 -22q-6 0 -13 9.5t-7 15.5q0 12 7 20q57 71 141 71
q72 0 121.5 -44t49.5 -115q0 -64 -32 -101q-35 -39 -96 -39q-64 0 -82 -9q-32 -15 -32 -74q0 -12 1 -27zM145 25q0 -35 -29 -35q-9 0 -20 12t-9 24q5 29 27 29q31 0 31 -30z" />
    <glyph glyph-name="at" unicode="@" horiz-adv-x="482" 
d="M404 145q0 69 -46 121.5t-114 52.5q-75 0 -125 -63q-47 -59 -47 -136q0 -76 38 -137q44 -72 115 -72q66 0 140 60q8 7 19 7q12 0 12 -11q-26 -42 -69 -70q-46 -30 -91 -30q-86 0 -143 81q-50 73 -50 162q0 104 48 194q58 109 154 109q65 0 127 -65.5t62 -181.5
q0 -53 -16 -94q-16 -44 -73 -71q-49 -23 -102 -23q-52 0 -80 40q-25 35 -25 88q0 50 21 88q26 45 73 45q21 0 46 -14q2 8 2.5 9.5t9.5 1.5q21 0 21 -9q0 -10 -1.5 -31t-1.5 -32q0 -108 5 -125q3 -10 15 -10q39 0 60 41q16 32 16 75zM278 88q0 72 -47 72q-61 0 -61 -73
q0 -28 16 -49q17 -24 44 -24q48 0 48 74z" />
    <glyph glyph-name="A" unicode="A" 
d="M98 25q3 -7 3 -14q0 -17 -11 -17q-6 0 -13 10q-62 105 -62 227q0 52 12 122q15 80 57 152q37 61 72 85q31 21 58 21t53 -23q38 -34 57 -69q31 -59 54 -173q9 -43 9 -94q0 -79 -21 -162q-16 -66 -31 -90q-12 -19 -24 -19q-7 0 -7 8q0 11 12 32q34 58 34 160q0 61 -13 87
q-19 38 -61 67q-39 26 -69 28q-57 3 -89 -13q-37 -18 -57 -70q-18 -48 -18 -95q0 -54 25 -106zM105 419q-6 -16 -6 -25t9 -9q5 0 14 3q25 9 56 9q42 0 87 -16q37 -13 50 -24q5 -6 11 -6q11 0 11 15q0 9 -5 20q-43 93 -117 101q-76 9 -110 -68z" />
    <glyph glyph-name="B" unicode="B" horiz-adv-x="419" 
d="M399 117q-4 -75 -49 -103q-29 -19 -90 -22q-133 -6 -206 6q-14 2 -17 6q-6 7 -7 30q-17 407 8 526q5 21 24 21q8 0 46.5 4t66.5 4q62 0 112 -18q43 -15 70.5 -56t27.5 -90q0 -65 -51 -112q-6 -6 -5 -9q4 -4 8 -9q10 -12 20 -23q19 -25 30 -56q14 -44 12 -99zM294 348
q35 32 35 92q0 64 -45 90q-51 29 -108 29q-49 0 -75.5 -21.5t-26.5 -74.5q0 -46 33 -82q53 -56 117 -56q47 0 70 23zM338 230q-17 24 -33 31q-26 13 -84 16q-82 3 -129 68q-8 11 -13 -2q-12 -32 -12 -104q0 -123 46 -155q41 -28 92 -28q52 0 102.5 26t50.5 88q0 33 -20 60z
" />
    <glyph glyph-name="C" unicode="C" horiz-adv-x="401" 
d="M15 276q0 115 41 208q53 120 152 120q107 0 167 -90q5 -8 5 -19q0 -27 -25 -59t-31 -25q-5 7 -15 22q-27 37 -46 51q-26 18 -64 18q-50 0 -91 -53q-34 -45 -44 -99t-10 -100q0 -140 92 -207q42 -31 82 -31q39 0 76 28q24 17 51 51q23 28 26 28q10 0 10 -12q0 -10 -6 -23
q-20 -43 -69 -71.5t-99 -28.5q-43 0 -85 27q-117 77 -117 265z" />
    <glyph glyph-name="D" unicode="D" horiz-adv-x="409" 
d="M239 -7q-125 -4 -188 5q-19 2 -19 36q0 6 -1 94q-1 99 -1 169q-1 238 4 269q5 27 27 27q97 0 137 -13q60 -20 112 -88q84 -112 84 -267q0 -108 -46 -181q-31 -49 -109 -51zM283 479q-58 82 -128 82q-14 0 -27 -4q-17 -6 -35 -38q-20 -36 -28 -88q-17 -122 -5 -243
q11 -106 64 -112q37 -4 59 -4q83 0 125 64q37 55 37 144q0 113 -62 199z" />
    <glyph glyph-name="E" unicode="E" horiz-adv-x="382" 
d="M147 480q-45 -22 -70 -86q-2 -4 -2 -9q0 -29 20 -41q29 -18 57 -18q39 0 87 27q6 4 11 4q12 0 12 -16q0 -9 -6 -16q-38 -46 -100 -46q-29 0 -63 12q-5 2 -10 2q-26 0 -26 -32q0 -76 35 -143t80 -85q27 -10 52 -10q80 0 131 102q3 8 8 8q9 0 9 -22q0 -8 -3 -16
q-10 -27 -45 -60q-47 -45 -102 -48q-71 -3 -131 67q-57 66 -70 156q-6 44 -6 85q0 158 90 253q50 52 104 52q57 0 112 -58q9 -10 12 -14q6 -11 6 -28q1 -29 -23 -50q-14 -12 -18 -12q-6 0 -14 10q-33 41 -94 41q-24 0 -43 -9z" />
    <glyph glyph-name="F" unicode="F" horiz-adv-x="394" 
d="M57 597q17 3 97 2q79 -1 122 -4q33 -2 43 -5q24 -7 46 -28q19 -19 19 -57q0 -16 -3 -24t-16 -11q-13 -4 -24 6q-3 3 0 19q11 55 -97 55q-19 0 -30 -1q-61 -10 -98 -42q-43 -37 -43 -95q0 -73 65 -71q41 1 65 9q31 10 72 42q4 3 7 3q8 0 8 -10q0 -6 -5 -11
q-10 -12 -21 -24q-19 -17 -63 -33q-22 -8 -58.5 -12.5t-51.5 -10.5q-22 -9 -28 -26q-3 -10 -6 -49q-1 -18 -1 -38q0 -104 35 -165q6 -12 -4 -20q-20 -13 -39 -15q-9 -1 -11 3q0 1 -2 16q-5 69 -5 312q0 231 4 264q2 18 23 21z" />
    <glyph glyph-name="G" unicode="G" horiz-adv-x="412" 
d="M385 520q7 -8 4 -18q-3 -15 -32 -55q-8 -12 -23 2q-35 36 -39 39q-34 25 -76 28q-50 3 -82.5 -19t-62 -77t-29.5 -141q0 -156 89 -212q48 -30 96 -30q57 0 80 47q20 41 20 120q0 44 -6 67.5t-36 38.5q-47 22 -89 22q-83 0 -83 -75q0 -19 6 -41q2 -8 -3.5 -17.5
t-11.5 -9.5t-9 10q-11 33 -11 68q0 67 27 103q11 16 64 24q16 2 44 2q94 0 131 -26q22 -14 29 -50q10 -52 10 -103q0 -78 -25 -147q-18 -52 -66 -73q-23 -10 -55 -10q-78 0 -131 46q-100 88 -100 245q0 77 22 149q51 165 181 176q52 4 94 -15q29 -14 52 -40q10 -14 21 -28z
" />
    <glyph glyph-name="H" unicode="H" horiz-adv-x="432" 
d="M20 273q0 86 13 178q21 149 67 149q15 0 15 -12q0 -6 -12 -39t-12 -55q0 -52 37 -102q41 -53 92 -53q49 0 88 43q36 42 36 91q0 27 -12.5 67.5t-12.5 47.5q0 11 22 11q16 0 24 -19q47 -111 47 -311q0 -64 -10 -140q-13 -91 -33 -137q-8 -17 -15 -17q-6 0 -6 14q0 28 9 98
t9 107q0 145 -25 145l-42.5 -17t-78.5 -17q-33 0 -73 14t-50 14q-40 0 -40 -135q0 -59 9 -132l6 -30q4 -20 4 -31q0 -18 -10 -18q-4 0 -7 9q-39 114 -39 277z" />
    <glyph glyph-name="I" unicode="I" horiz-adv-x="144" 
d="M35 577q-1 18 7.5 22.5t27.5 3.5q18 0 28.5 -5.5t10.5 -23.5q0 -25 -6.5 -292.5t-7.5 -278.5q-2 -19 -16 -19q-9 0 -10 19q-17 278 -34 574z" />
    <glyph glyph-name="J" unicode="J" horiz-adv-x="358" 
d="M262 595q33 7 60 0q6 -1 6 -29q-3 -65 -7 -255q-1 -126 -31 -198q-22 -54 -70 -95q-35 -29 -81 -29q-82 0 -113 73q-16 38 -16 79q0 64 34 120q3 7 7 6l10 -6q36 -20 44 -50q4 -13 -4 -22q-35 -41 -35 -86q0 -34 20.5 -57t54.5 -23q27 0 58 16q51 27 73 130q16 73 13 135
q-3 50 -16 137q-12 83 -20 110q-3 12 -3 21q0 20 16 23z" />
    <glyph glyph-name="K" unicode="K" horiz-adv-x="432" 
d="M42 587q24 4 44 -3q3 -1 1 -17q-9 -58 -5 -86q5 -35 32 -66q31 -34 69 -35q71 -2 112 82q22 47 22 107q0 15 6 19q2 1 14 3q13 2 42 -2q15 -2 17 -20q3 -36 3 -34q0 -104 -109 -174q-15 -10 -6 -18q36 -28 68 -82q60 -98 60 -225q0 -19 -2 -38q-38 -24 -53 -24
q-26 0 -46 14q-13 9 -2 33q18 44 18 102q0 43 -13 84q-30 96 -104 117q-101 30 -134 95q-4 8 -7 8q-4 0 -5 -10q-12 -86 -12 -206q0 -65 3 -142q1 -19 3 -27q3 -12 15 -25q8 -9 8 -17q0 -17 -17 -12q-30 9 -34 46q-4 34 -3 209q0 202 8 324q0 14 1 16.5t6 3.5z" />
    <glyph glyph-name="L" unicode="L" horiz-adv-x="411" 
d="M112 582q0 -2 -2 -11q-10 -18 -28 -61q-22 -84 -22 -190q0 -196 87 -245q53 -30 121 -30q95 0 123 67q4 11 8 11q8 0 8 -17q-1 -15 -15 -38q-50 -84 -176 -84q-60 0 -121 22q-40 14 -54 107q-21 139 -21 288q0 67 11 172q2 16 2 17q3 6 15 6q64 1 64 -14z" />
    <glyph glyph-name="M" unicode="M" horiz-adv-x="497" 
d="M480 307q2 -17 2 -35q0 -92 -29 -182q-20 -49 -39 -98q-9 -23 -19 -23q-7 0 -7 13q0 8 3 18q18 60 18 126q0 88 -31 177q-26 73 -55 109q-21 27 -64 55q-26 17 -52 17q-56 0 -104 -78q-35 -58 -50 -125q-7 -31 -7 -75q0 -123 49 -198q3 -5 3 -8q0 -11 -12 -11q-6 0 -8 4
q-12 19 -23 38q-17 32 -27 74q-13 57 -13 136q0 25 1 52q6 125 54 211q30 55 68 84q15 11 37 2q34 -18 35 -18q11 -8 38 -37q3 -4 9 -2q2 2 5 4q35 31 81 51q18 8 29 -2q37 -35 56 -68q45 -80 52 -211zM440 165q8 56 8 105q0 140 -63 200q-14 13 -22 13q-7 0 -14 -6.5
t-7 -13.5q0 -3 13 -29q62 -122 76 -271q1 -6 4 -6q4 0 5 8z" />
    <glyph glyph-name="N" unicode="N" horiz-adv-x="406" 
d="M70 4q1 -15 -4 -15q-2 0 -12 9q-39 147 -39 287q0 149 44 272q10 28 25 28q24 0 72 -23q63 -30 113 -105q36 -54 64 -126q11 -35 22 -69q2 -6 5 -6q2 0 4 6q1 25 1 49q0 104 -20 185l-22 70q-8 27 3 27h1q4 -1 11 -13q48 -79 53 -289q2 -102 -15 -200
q-11 -62 -19.5 -83.5t-18.5 -21.5q-7 0 -5 23q13 119 13 122q0 53 -16 107q-23 75 -64.5 140.5t-78.5 83.5q-19 9 -36 9q-61 0 -89 -95q-19 -68 -19 -151q0 -66 13 -143z" />
    <glyph glyph-name="O" unicode="O" horiz-adv-x="399" 
d="M376 217q-22 -139 -96 -202q-33 -29 -79 -29q-68 0 -110 46q-71 78 -71 246q0 79 20 141q25 77 83 134q35 35 81 35q49 0 93 -46q82 -83 82 -271q0 -33 -3 -54zM290 98q39 61 39 169q0 105 -44 161t-92 56q-52 0 -95 -57q-53 -69 -53 -183q0 -82 39 -151q36 -65 90 -65
q35 0 72 26q30 21 44 44z" />
    <glyph glyph-name="P" unicode="P" horiz-adv-x="430" 
d="M413 457q5 -18 5 -38q0 -78 -50 -135q-44 -51 -108 -51q-23 0 -47 7q-42 11 -110 65q-5 4 -9 4q-13 0 -22 -33q-12 -47 -12 -111q0 -77 19 -165q1 -7 1 -12q0 -13 -8 -13q-27 0 -39 143q-8 88 -8 171q0 159 33 252q6 18 10 22q8 7 33 12q74 13 118 13q37 0 73 -6
q59 -10 86 -41q21 -25 35 -84zM309 509q-39 32 -91 32q-22 0 -49 -5q-75 -13 -84 -60q-5 -28 -5 -43q0 -55 34.5 -95t89.5 -40q66 0 105 46q32 36 32 85q0 54 -32 80z" />
    <glyph glyph-name="Q" unicode="Q" horiz-adv-x="410" 
d="M400 8q0 -10 -15 -20q-22 -14 -44 -14q-32 0 -75 27q-1 0 -6.5 -4.5t-23.5 -9.5q-24 -8 -49 -8q-119 0 -157 164q-15 63 -15 126q0 146 68 246q14 22 43 42q41 28 83 28q63 0 118 -66q63 -75 63 -228q0 -41 -6 -80q-10 -75 -53 -143q-3 -6 -1 -6q1 -1 12 0.5t27 13.5
t20 12q11 0 11 -80zM348 216q-5 -26 -27 -49q-24 -26 -56 -36q-10 -3 -10 -17q1 -12 5 -19q5 -10 18 -24q8 -5 18 6q29 27 52 139zM338 260q2 14 2 29q0 44 -14 90q-14 43 -31 63q-44 51 -89 51q-47 0 -92 -57q-22 -27 -39 -78q-21 -64 -21 -134q0 -41 7 -81
q26 -131 127 -131q31 0 44 10q5 4 0 12q-21 29 -21 75q0 18 3 34q5 20 12.5 22t16.5 3q86 20 95 92z" />
    <glyph glyph-name="R" unicode="R" horiz-adv-x="428" 
d="M408 430q1 -46 -20 -87q-30 -59 -98 -78q-3 0 -5.5 -1t-1.5 -2l7 -5q22 -17 36 -33q34 -36 59.5 -86.5t17.5 -123.5q-3 -24 -26 -27q-6 -1 -21 0q-18 2 -24 2q-18 0 -13 38q8 68 -16 122q-28 64 -104 116q-19 13 -89 49q-13 7 -21 7q-15 0 -21 -27q-11 -46 -11 -122
q0 -81 15 -163q5 -27 -11 -27q-17 0 -18 16q-13 186 -13 266q0 166 25 275q13 54 127 54q46 0 106 -10q116 -21 120 -153zM300 358q29 26 29 79t-33 79q-50 39 -116 39q-27 0 -44 -7q-25 -11 -40 -40.5t-15 -63.5q0 -41 21 -67q41 -51 103 -51q58 0 95 32z" />
    <glyph glyph-name="S" unicode="S" horiz-adv-x="409" 
d="M211 566q-49 0 -78 -35.5t-29 -85.5q0 -81 59 -81q36 0 80.5 22.5t62.5 22.5q48 0 72 -54q16 -39 16 -95q0 -65 -31.5 -133.5t-81.5 -109.5q-42 -34 -107 -34q-74 0 -118 55q-41 50 -41 126q0 27 30 27q13 0 13 -33q0 -57 21 -97q26 -50 78 -50q64 0 115 63q49 59 49 126
q0 42 -17 76q-20 44 -57 44q-12 0 -40 -7.5t-45 -7.5q-62 0 -96 37.5t-34 100.5q0 71 49.5 115t121.5 44q84 0 141 -71q7 -8 7 -20q0 -6 -7 -15.5t-13 -9.5q-9 0 -24 21q-19 27 -33 38q-26 21 -63 21z" />
    <glyph glyph-name="T" unicode="T" horiz-adv-x="488" 
d="M23 526q28 27 73 48q67 31 144 31q79 0 149 -31q49 -22 76 -48q17 -17 9 -29q-4 -10 -22 -28q-5 -4 -9 -4t-27 23q-28 27 -67 55q-46 32 -64 32q-11 0 -13 -17q-1 -13 -1 -25q-6 -89 0 -268l9 -262q1 -15 -6 -17.5t-14 -3.5q-20 -7 -59 4q-11 3 -9 30q8 157 14 240
q5 123 11 257q5 61 -11 61q-18 0 -68 -40q-44 -35 -59 -54q-18 -24 -26 -24q-4 0 -10 2q-9 3 -17 17q-6 11 -13 22q-7 12 10 29z" />
    <glyph glyph-name="U" unicode="U" horiz-adv-x="412" 
d="M62 557q4 12 15 12q9 0 9 -10q0 -5 -2 -11q-37 -87 -37 -171q0 -18 2 -37q12 -157 78 -214q40 -35 80 -35q31 0 62 21q37 24 62 74q32 62 35 147q4 130 -43 229q-3 5 -2 15q1 11 6 11q6 0 17 -22q38 -79 50 -215q3 -27 3 -54q0 -180 -88 -269q-42 -42 -105 -42
q-52 0 -79 26q-48 46 -67 86q-26 55 -39 164q-4 30 -4 62q0 122 47 233z" />
    <glyph glyph-name="V" unicode="V" horiz-adv-x="403" 
d="M323 589q24 -25 36 -52q28 -60 29 -162q2 -132 -44 -236q-42 -95 -115 -151q-11 -8 -19 -8t-24 8q-55 30 -100 104q-67 108 -71 264q-5 202 44 241q18 14 19 1q1 -12 -6 -20q-31 -39 -31 -168q0 -25 1 -53q5 -78 52 -152t98 -92q11 -4 17 -4q9 0 34 22q125 113 121 259
q-3 123 -51 180q-13 15 -13 23q0 5 5 5q9 0 18 -9z" />
    <glyph glyph-name="W" unicode="W" horiz-adv-x="482" 
d="M320 566q-13 37 -10 40q4 3 22 0q49 -9 91 -89q47 -90 44 -201q-7 -234 -139 -323q-10 -7 -13 -7q3 0 -11.5 8t-54.5 46q-7 6 -16 -3q-21 -20 -60 -40q-16 -8 -17 -8q-6 0 -16 10q-62 58 -91 130q-24 61 -32 155q-2 24 -2 46q0 125 57 207q39 56 76 67q21 6 29 -3
q7 -8 -4 -21q-1 -1 -35 -24q-29 -20 -43 -43q-47 -83 -47 -176q0 -43 8 -90q17 -94 65 -129q14 -10 33 -10q14 0 29 6q56 24 71.5 41t30.5 32q28 34 45 75q24 58 24 126q0 82 -34 178zM429 258q6 36 6 70q0 93 -43 154q-6 9 -13.5 19.5t-7.5 2.5q0 -3 1 -8q10 -50 10 -100
q0 -84 -27 -160q-22 -63 -53 -98q-13 -14 -13 -13q0 -12 30 -12q18 0 38 15q59 44 72 130z" />
    <glyph glyph-name="X" unicode="X" horiz-adv-x="412" 
d="M63 546q-1 27 1 32q4 10 24 13q16 3 20 -19q2 -49 5 -98q14 -87 74 -112q2 -4 12 1q72 34 97 84q12 23 12 50q0 33 -16 60q-9 17 2 27q6 6 22 4q17 -1 27 -12q20 -20 20 -64q0 -17 -3 -30q-26 -106 -122 -146q-2 -1 9 -5q28 -12 64 -45q58 -51 73 -110q13 -51 13 -87
q0 -38 -17 -87q-8 -24 -12 -27t-19 -2q-22 1 -58 38q-12 12 -12 21q0 6 10 29q19 44 19 97q0 45 -19.5 76.5t-48.5 57.5q-17 13 -34 27q-6 5 -19 -2q-65 -33 -97 -120q-6 -17 -6 -40q0 -36 13 -71q6 -17 5 -21q-3 -8 -7 -15q-7 -14 -23 -33q-19 -23 -31 -23q-5 0 -12 13
q-19 37 -19 83q0 43 18 88q39 101 118 157q10 7 10 10q0 4 -8 9q-18 10 -43 51q-37 62 -42 141z" />
    <glyph glyph-name="Y" unicode="Y" horiz-adv-x="403" 
d="M10 565q3 14 6 18t14 6q29 6 48 2q12 -2 14 -7q2 -4 -2 -17q-5 -19 -14 -55q-6 -19 -6 -36q0 -49 46 -56q7 -1 22 14.5t20 15.5q11 -1 20.5 -13.5t18.5 -24.5q16 -21 24 -14q20 11 72 46q26 20 26 73q0 26 -5 44q-4 13 -3 15q0 5 11 10q16 3 40 9q19 4 26 -14
q5 -13 5 -30q0 -48 -41 -95q-12 -14 -42 -33q-36 -22 -51 -34q-24 -21 -33 -41t-9 -61q0 -148 18 -277q3 -20 -16 -22q-35 -4 -47 1.5t-9 36.5q17 210 14 236q-1 28 -2 57q-8 44 -49 60q-55 22 -76 38q-28 23 -37 63q-11 44 -3 85z" />
    <glyph glyph-name="Z" unicode="Z" horiz-adv-x="446" 
d="M404 544q0 -39 -60 -113q-16 -20 -90 -100q-127 -139 -127 -226q0 -52 35 -68q25 -11 82 -8q50 3 67 7q30 8 63 33q9 14 33 43q5 5 16 5q19 0 15 -16q-24 -81 -93 -103q-33 -11 -133 -11q-80 0 -118 9q-84 19 -84 78q0 37 54 105q32 41 114 128q50 51 99 101
q73 82 73 111q0 31 -21 35.5t-44 4.5q-44 0 -94 -20l-86 -38q-11 -5 -19 -5q-17 0 -17 15q0 8 7 20q10 17 28 37q23 26 38 27q131 5 215 -3q10 -1 27 -14q20 -16 20 -34z" />
    <glyph glyph-name="bracketleft" unicode="[" horiz-adv-x="165" 
d="M97 -133q-5 0 -17 7q-33 18 -40 43q-1 1 -7 59q-1 8 -2 217l-1 495q0 28 61 28q-1 0 19 2q19 1 30 0q15 0 16 -4q4 -18 4 -16q0 -4 -18 -14q-41 -26 -53 -104q-30 -201 -30 -443q0 -102 6 -180q3 -32 20.5 -54.5t17.5 -28.5q0 -7 -6 -7z" />
    <glyph glyph-name="backslash" unicode="\" horiz-adv-x="383" 
d="M373 -31q-2 -6 -10 -6q-7 0 -11.5 4.5t-8.5 16.5q-10 34 -158 282q-88 145 -175 290q-5 9 0 13q39 22 37 22q5 0 8 -7q137 -251 311 -569q14 -25 7 -46z" />
    <glyph glyph-name="bracketright" unicode="]" horiz-adv-x="165" 
d="M68 -133q-7 0 -7 7q0 6 18 28.5t21 54.5q6 78 6 180q0 242 -30 443q-12 78 -54 104q-17 10 -17 14q0 -2 4 16q1 4 16 4q11 1 30 0q20 -2 19 -2q61 0 61 -28v-180q0 -230 -1 -315q1 -90 -2 -217q-7 -58 -7 -59q-7 -25 -41 -43q-11 -7 -16 -7z" />
    <glyph glyph-name="asciicircum" unicode="^" horiz-adv-x="223" 
d="M198 513q1 -4 -8 -10t-12 -3q-17 14 -33 28q-25 20 -33 20q-9 0 -66 -48q-4 -3 -13 3t-8 10q4 11 79 91q8 7 15 0q75 -80 79 -91z" />
    <glyph glyph-name="underscore" unicode="_" horiz-adv-x="286" 
d="M291 2q-5 -9 -11 -9q-9 0 -19 1h-256q-6 -1 -8 2t-2 18q0 7 9 7q100 -4 281 -1q5 0 7 -6q2 -7 -1 -12z" />
    <glyph glyph-name="grave" unicode="`" horiz-adv-x="127" 
d="M25 697q-2 5 3.5 12t11.5 4q19 -8 60 -34q3 -3 3 -10q0 -24 -27 -20q-43 33 -51 48z" />
    <glyph glyph-name="a" unicode="a" horiz-adv-x="277" 
d="M267 -14q0 -5 -7.5 -12t-12.5 -7l-2.5 1.5t-20.5 25.5q-13 19 -21 19q-53 -22 -80 -22q-57 0 -87 53q-24 43 -24 104q0 67 27 113q33 57 95 57q27 0 65 -21l2 12q1 3 11 3q30 0 30 -14q0 -9 -3 -36.5t-3 -41.5q0 -72 8 -156q1 -13 12 -43t11 -35zM193 117q0 37 -15 67
q-19 37 -53 37q-35 0 -55 -32q-16 -26 -16 -63q0 -40 19 -72q22 -37 60 -37q60 0 60 100z" />
    <glyph glyph-name="b" unicode="b" horiz-adv-x="272" 
d="M20 436q0 123 4.5 143t52.5 20q54 0 58 -10q-1 -3 -6 -10q-66 -86 -66 -269q0 -2 4 -10q32 27 68 27q63 0 97 -56q28 -46 28 -114q0 -63 -29 -110q-35 -56 -94 -56q-23 0 -47 12.5t-25 12.5q-3 0 -5 -1q-2 -10 -4.5 -18t-19.5 -8q-15 0 -15 11t1 35t1 36q0 60 -1.5 182
t-1.5 183zM141 242q-36 0 -57.5 -31t-21.5 -68q0 -41 17 -74q21 -41 58 -41q42 0 65 31q21 28 21 70q0 38 -22 73q-25 40 -60 40z" />
    <glyph glyph-name="c" unicode="c" horiz-adv-x="269" 
d="M170 324q19 0 62 -14q20 -7 20 -29t-17 -46.5t-31 -24.5q-4 0 -21.5 10t-32.5 10q-36 0 -61 -39q-23 -35 -23 -75q1 -38 17 -65q19 -32 56 -32q39 0 63 21q12 10 27 37q10 20 20 20q12 0 12 -14q0 -3 -1 -6q-30 -86 -128 -86q-60 0 -93 51q-27 43 -27 107q0 69 45 122
t113 53z" />
    <glyph glyph-name="d" unicode="d" horiz-adv-x="286" 
d="M278 -5q0 -9 -16 -9q-12 0 -26.5 25t-19.5 25q-3 -2 -7 -7q-30 -37 -80 -37q-62 0 -93 57q-24 46 -24 114q0 61 28 106q34 54 91 54q6 0 17 -1.5t16 -1.5q29 0 29 34q0 35 -13 107.5t-13 101.5q0 41 34 41q43 0 43 -32q0 -60 -2.5 -180.5t-2.5 -180.5q0 -86 2 -115
q2 -19 19.5 -60.5t17.5 -40.5zM204 138q0 36 -17 69q-21 40 -53 40q-37 0 -63 -37t-26 -75q0 -35 19 -68q21 -39 54 -39q38 0 63 37q23 34 23 73z" />
    <glyph glyph-name="e" unicode="e" horiz-adv-x="259" 
d="M249 189q0 -60 -71 -60q-13 0 -38.5 4.5t-38.5 4.5q-37 0 -37 -52q0 -66 60 -66q34 0 54 17q12 10 25 33q9 17 16 17q13 0 13 -12q0 -40 -40 -68q-36 -25 -77 -25q-103 0 -103 189q0 161 123 161q51 0 84 -47q30 -42 30 -96zM137 255q-22 0 -44 -19.5t-22 -39.5
q0 -22 39 -33q28 -9 57 -9q15 0 28.5 13.5t13.5 28.5q0 23 -25 42q-22 16 -47 17z" />
    <glyph glyph-name="f" unicode="f" horiz-adv-x="278" 
d="M259 503q0 -12 -8 -38q-10 -30 -18 -30l-6 3q-62 39 -109 39q-8 0 -15 -2q-2 -181 -6 -412q-1 -42 -10 -123q-5 -19 -12 -19l-6 3q-7 10 -7 25q0 21 2.5 62.5t2.5 62.5q0 230 -7 254l-29 37q-26 32 -26 65q0 44 42 70q5 4 11 7q2 2 3 13q11 212 115 212q27 0 63.5 -20
t36.5 -44q0 -16 -16 -34t-32 -18q-2 0 -12.5 15.5t-31.5 15.5q-41 0 -63 -49q-18 -40 -15 -77q24 7 54 7q26 0 56 -5q43 -7 43 -20zM61 469q-30 0 -30 -47t31 -59q1 40 1 104q0 2 -2 2z" />
    <glyph glyph-name="g" unicode="g" horiz-adv-x="270" 
d="M250 -73q0 -32 -42 -38q-9 -2 -67 -2q-111 0 -111 29q0 8 6 22t11 14q2 0 24.5 -18.5t49.5 -18.5q54 0 76 29q19 26 19 82q0 20 -2 38q-2 0 -13 -16l-13 -20q-36 -42 -86 -42q-49 0 -73 66q-17 47 -17 109q0 60 28 111q33 61 89 61q32 0 77 -39q1 0 3 -1q1 0 13.5 18.5
t25.5 18.5q7 0 7 -10q0 -4 -3 -15q-4 -17 -4 -135q0 -40 1 -121.5t1 -121.5zM52 106q0 -32 17 -60.5t41 -28.5q16 0 33 14q36 30 49 64q12 30 12 81q0 22 -18 42t-40 20q-50 0 -74 -44q-20 -35 -20 -88z" />
    <glyph glyph-name="h" unicode="h" horiz-adv-x="264" 
d="M64 303q33 40 69 40q27 0 52 -25q40 -38 54 -89q10 -38 10 -105q0 -86 -8 -158q-4 -34 -19 -34q-14 0 -12 30q6 81 6 125q0 53 -17 99q-24 62 -69 63q-21 0 -45 -18t-30 -107q-1 -24 -1 -120q0 -20 -14 -20q-20 0 -20 32v306q0 95 1 176q0 31 4 90q3 18 5 20.5t17 2.5
q52 0 52 -18q0 -5 -5 -12q-15 -24 -24 -121q-7 -77 -6 -127v-30z" />
    <glyph glyph-name="i" unicode="i" horiz-adv-x="110" 
d="M22 385q0 32 33 32q12 0 21 -11.5t9 -23.5q0 -11 -10.5 -23t-21.5 -12q-31 0 -31 38zM65 -13q-3 0 -8 3q-24 16 -24 58t-3.5 126.5t-3.5 126.5q0 11 14 11q42 0 42 -13q0 -36 -9 -108.5t-9 -108.5q0 -21 11.5 -44.5t11.5 -26.5q0 -8 -7 -16t-15 -8z" />
    <glyph glyph-name="j" unicode="j" horiz-adv-x="124" 
d="M22 -133q-17 0 -17 12q0 4 21 22t24 37q5 38 -3 243q-2 55 -6 85q-2 17 -13.5 25t-11.5 12q0 8 25 8q68 0 68 -11q0 -4 -5 -15q-8 -17 -11 -117v-123q-2 -73 -11 -122q-4 -23 -20.5 -39.5t-39.5 -16.5zM95 391q0 -41 -34 -41q-11 0 -22 13.5t-11 24.5q0 13 9 25t22 12
q36 0 36 -34z" />
    <glyph glyph-name="k" unicode="k" horiz-adv-x="268" 
d="M39 617q65 0 65 -17q0 -3 -2 -8q-45 -103 -45 -279q0 -11 4 -11q3 1 9 5q40 34 87 34q46 0 75 -37q26 -35 26 -82q0 -38 -19.5 -66.5t-55.5 -36.5q-18 -4 -18 -10q1 -35 25 -64q16 -20 44 -37q24 -14 24 -15q0 -6 -14 -6q-87 0 -134 111q-7 16 -7 52q0 41 14 42
q11 -6 22 -12.5t24 -6.5q24 0 43.5 23t19.5 49q0 21 -17.5 36t-38.5 15q-58 0 -95 -81q-26 -56 -26 -218q0 -15 -9 -15q-16 0 -19 14v64l1 343q0 33 -2 100t-2 101q0 13 21 13z" />
    <glyph glyph-name="l" unicode="l" horiz-adv-x="106" 
d="M87 -33q-5 0 -17 7q-33 18 -40 43q0 1 -7 59q-2 14 -2 117l-1 405q0 25 61 25q15 0 15 -9q0 -4 -3 -12q-24 -54 -36 -298q-5 -96 -5 -156q0 -51 3 -91q3 -32 20.5 -54.5t17.5 -28.5q0 -7 -6 -7z" />
    <glyph glyph-name="m" unicode="m" horiz-adv-x="432" 
d="M324 -39q-15 0 -29 10.5t-14 25.5q0 31 7 31q5 0 17 -11t24 -11q32 0 47 45q11 32 11 72q0 35 -19 66q-22 37 -54 37q-38 0 -65 -40q-25 -36 -26.5 -76l-4.5 -120q0 -11 -10 -11q-19 0 -19 13q0 3 1.5 8.5t1.5 8.5q0 247 -61 247q-37 0 -51 -43q-8 -21 -10 -72
q-2 -19 -2 -144q0 -19 -9 -19q-37 0 -39 39q-5 109 -5 273q0 16 1 20q3 8 16 8q34 0 34 -9q1 -16 -1 -56q41 62 112 62q33 0 56 -60q0 -2 2 -2q-1 0 37.5 34.5t77.5 34.5q70 0 70 -127q0 -75 -18 -140q-26 -94 -78 -94z" />
    <glyph glyph-name="n" unicode="n" horiz-adv-x="299" 
d="M202 -32q-38 0 -60 25q-19 20 -17 37q3 48 32 48q6 0 8 -15q7 -52 49 -52t42 101q0 47 -24 90q-29 51 -72 51q-34 0 -61 -26.5t-32 -60.5q-3 -30 -1 -80q2 -77 2 -81q0 -21 -14 -21q-5 0 -13.5 1t-12.5 1q-13 0 -13 17q0 228 -2 307q0 9 6 9q38 0 41 -4t3 -39
q0 -22 2 -45q45 53 54 61q34 30 74 30q51 0 76 -58q18 -44 18 -102q0 -66 -15 -118q-22 -76 -70 -76z" />
    <glyph glyph-name="o" unicode="o" horiz-adv-x="295" 
d="M140 -16q-55 0 -89 54q-31 47 -31 105q0 66 30 123q37 68 98 68q59 0 95 -59q32 -52 32 -113q0 -65 -34 -118q-39 -60 -101 -60zM234 130q0 41 -22 72q-25 34 -65 34q-41 0 -65 -35q-22 -31 -22 -73q0 -43 19 -76q22 -40 61 -40q47 0 72 37q22 32 22 81z" />
    <glyph glyph-name="p" unicode="p" horiz-adv-x="294" 
d="M51 154q0 104 -22 157q-2 3 6 6q21 6 48 6q9 0 11 -7v-16q0 -7 1 -8q-3 0 15.5 15.5t40.5 15.5q62 0 99 -57q32 -50 32 -114q0 -63 -31 -114q-36 -59 -94 -59q-23 0 -42.5 25.5t-19.5 49.5q0 6 5 13t11 7q7 0 21 -28.5t39 -30.5q37 -2 59 36q17 31 17 68q0 39 -21 71.5
t-58 32.5q-62 0 -84 -66q-12 -39 -12 -118q0 -62 -24 -179q-11 1 -27 5q-20 7 -17 13q13 33 28 115q19 97 19 161z" />
    <glyph glyph-name="q" unicode="q" horiz-adv-x="281" 
d="M138 325q18 0 42 -11t33 -26q21 28 47 38q3 0 3 -8q0 -5 -2 -16q-6 -46 -6 -148q0 -245 11 -281q2 -7 2 -8q0 -5 -8 -5q-3 0 -10 1h-10q-7 0 -18.5 -3.5t-17.5 -3.5q-7 0 -7 5q0 4 5 11q18 27 18 112q0 8 -3 25.5t-3 26.5q-5 -21 -29 -37.5t-47 -16.5q-62 0 -97 62
q-29 51 -29 119q0 57 34 107q38 57 92 57zM152 246q-43 0 -70 -45q-24 -39 -24 -87q0 -36 16 -64q19 -33 52 -33q45 0 67 43q18 33 18 82q0 37 -12 65q-16 39 -47 39z" />
    <glyph glyph-name="r" unicode="r" horiz-adv-x="224" 
d="M17 317q0 10 11 10q6 0 34 -2h9q1 -1 1 -8v-22h1q-4 0 19.5 18.5t48.5 18.5q75 0 75 -51t-25 -53q-19 -2 -20 -1q-15 5 -16.5 6t-1.5 15t-12 27t-27 13q-33 0 -50 -55q-12 -38 -12 -80q0 -40 15 -111q9 -41 9 -44q0 -9 -7 -9t-18.5 -1t-17.5 -1q-12 0 -14 4q1 -2 1 16
q0 52 -1.5 155t-1.5 155z" />
    <glyph glyph-name="s" unicode="s" horiz-adv-x="250" 
d="M148 333q38 0 66 -9q16 -5 16 -26q0 -12 -10.5 -31t-21.5 -19q-10 0 -34 5t-37 4q-79 -5 -79 -40q-1 -13 29 -13q15 0 46 6t46 6q30 0 50.5 -21t20.5 -51q0 -73 -51.5 -118.5t-124.5 -45.5q-15 0 -32 4q-24 6 -24 16q0 8 9 8l15.5 -3.5t28.5 -3.5q42 0 74.5 28.5
t32.5 70.5q0 32 -38 57q-34 22 -70 25q-41 3 -41 47q0 47 42 77q38 27 87 27z" />
    <glyph glyph-name="t" unicode="t" horiz-adv-x="219" 
d="M97 587q59 0 59 -13q0 -10 -5.5 -29t-5.5 -29q72 -25 72 -52q0 -11 -13 -11q-3 0 -26.5 5.5t-31.5 5.5q-5 0 -6 -2q-5 -6 -19 -183q-12 -169 -12 -206q0 -55 26 -55q5 0 11 4l6 4q2 0 2 -4q0 -13 -12.5 -28.5t-25.5 -15.5q-35 0 -38 85.5t-3 269.5q0 19 1 56.5t1 56.5
q0 2 -6 2q-9 0 -24.5 -8.5t-23.5 -8.5t-14 17q-4 13 -4 23q0 16 28 29q22 8 43 16q4 0 7 4l2 38q3 29 12 29z" />
    <glyph glyph-name="u" unicode="u" horiz-adv-x="285" 
d="M12 173q0 29 9 75q10 54 23 72q5 7 17 7q15 0 15 -9l-16.5 -42.5t-16.5 -72.5q0 -78 58 -117q21 -14 43 -14q47 0 73 40q22 34 22 83q0 61 -38 124l-2 3q0 16 18 16q24 0 42 -76q14 -59 14 -93q0 -67 -28 -120q-34 -64 -95 -64q-70 0 -107 62q-31 51 -31 126z" />
    <glyph glyph-name="v" unicode="v" horiz-adv-x="319" 
d="M157 17q102 56 102 142q0 37 -17 73q-21 43 -55 43q-2 0 -7 -2t-7 -2q-8 0 -8 15q0 17 15 34.5t32 17.5q41 0 70 -51q25 -44 25 -89q0 -63 -34.5 -118t-90.5 -86q-22 -12 -27 -12q-6 0 -16 7q-57 48 -91 117.5t-34 142.5q0 17 4 42q6 33 15 33q3 0 29.5 -34t26.5 -40
t-6.5 -24.5t-6.5 -28.5q0 -63 17 -100t64 -80z" />
    <glyph glyph-name="w" unicode="w" horiz-adv-x="409" 
d="M271 -7q-12 -9 -21 2q-23 29 -45 73q-26 50 -28 80q0 3 -2 7q-13 -4 -27 -46q-12 -38 -12 -55q0 -12 6 -31.5l6 -19.5q0 -20 -24 -20q-1 0 -9 5q-41 27 -72 90.5t-31 116.5q0 86 72 145q2 2 6 2q9 0 24 -18t15 -27q0 -15 -11 -23q-60 -44 -60 -126q0 -26 11 -59
q13 -37 32 -49q-1 -2 -1 30q0 55 22 116q28 76 71 76q14 0 16 -11q5 -18 5 -59q1 -44 4 -61q10 -66 47 -115q75 67 75 146q0 35 -17.5 74.5l-17.5 39.5q0 14 19.5 25.5t34.5 11.5t29 -38q11 -32 11 -54q0 -58 -39 -124.5t-89 -103.5z" />
    <glyph glyph-name="x" unicode="x" horiz-adv-x="321" 
d="M309 -6q0 -17 -20 -17q-2 1 -6 2q-17 17 -54 49q-17 9 -49 30q-24 -22 -73 -44q-52 -24 -82 -24q-10 0 -17 19q-6 15 -6 27q0 9 16 10q67 3 122 42q-99 89 -99 165q0 15 5 33q7 23 18 23q10 0 10 -15q0 -6 -4 -17.5t-4 -17.5q0 -41 35 -81.5t75 -40.5q29 0 46 28
q14 23 14 54q0 18 -12 50.5t-12 46.5q0 10 16 18.5t27 8.5q26 0 39 -34q10 -25 10 -55q0 -44 -31.5 -99.5t-31.5 -57.5q0 -15 34 -56t34 -47z" />
    <glyph glyph-name="y" unicode="y" horiz-adv-x="300" 
d="M71 326q32 0 32 -20q0 -14 -9.5 -64.5t-9.5 -74.5q0 -39 32.5 -72t71.5 -33q24 0 36 44q10 32 10 63q0 55 -29 113q-3 7 -3 10q0 12 22 23.5t35 11.5q16 0 24 -52q5 -32 5 -63q0 -127 -62 -231q-66 -113 -179 -154q-4 -2 -8 -2q-7 0 -22.5 19t-15.5 27q0 3 7 5
q81 29 91 34q43 22 71 66q16 26 16 30q0 5 -25 21q-15 9 -31 19q-46 36 -75.5 92.5t-29.5 113.5q0 36 6 51q10 23 40 23z" />
    <glyph glyph-name="z" unicode="z" horiz-adv-x="242" 
d="M142 325q41 0 68 -3q22 -2 22 -29q0 -46 -63.5 -116t-63.5 -100q0 -26 40 -26q29 0 51 13.5t21 13.5q17 0 17 -40q0 -25 -4 -40q-2 -7 -95 -7q-70 0 -68 -1q-49 5 -49 30q0 37 51 93q39 39 79 77q30 30 30 60q0 16 -11.5 29.5t-26.5 13.5q-21 0 -51 -19.5t-32 -19.5
q-11 0 -29 16t-18 26q0 18 21 22q40 7 111 7z" />
    <glyph glyph-name="braceleft" unicode="{" horiz-adv-x="204" 
d="M43 288q-2 37 -43 79q-7 7 0 14q46 40 54 89q27 164 84 220q9 9 18 9q18 0 42 -14.5t24 -31.5q0 -4 -24 -27q-60 -58 -93 -192q-27 -111 -25 -217q3 -168 68 -294q3 -6 3 -11q0 -14 -10 -14q-5 0 -9 5q-71 109 -89 385z" />
    <glyph glyph-name="bar" unicode="|" horiz-adv-x="156" 
d="M57 317q-6 347 -6 361q1 14 28 14q28 0 29 -16q1 -33 -4 -308q-6 -302 -6 -391q0 -47 1 -63q2 -31 -18 -31q-16 0 -16.5 34.5t-7.5 399.5z" />
    <glyph glyph-name="braceright" unicode="}" horiz-adv-x="204" 
d="M161 288q-18 -276 -89 -385q-4 -5 -9 -5q-10 0 -10 14q0 5 3 11q66 126 68 294q2 106 -25 217q-33 134 -93 192q-24 23 -24 27q0 17 26 32q23 14 40 14q9 0 18 -9q57 -56 84 -220q8 -49 54 -89q7 -7 0 -14q-41 -42 -43 -79z" />
    <glyph glyph-name="asciitilde" unicode="~" horiz-adv-x="388" 
d="M99 288q-54 0 -56 -57q-1 -14 -7 -14q-11 0 -11 16q1 39 25 62.5t67 23.5q49 0 86.5 -27.5t52.5 -27.5t36 15t38 15q33 0 33 -48q0 -19 -23 -30q-19 -9 -43 -9q-53 0 -102 40.5t-96 40.5z" />
    <glyph glyph-name="Adieresis" unicode="&#xc4;" 
d="M98 25q3 -7 3 -14q0 -17 -11 -17q-6 0 -13 10q-62 105 -62 227q0 52 12 122q15 80 57 152q37 61 72 85q31 21 58 21t53 -23q38 -34 57 -69q31 -59 54 -173q9 -43 9 -94q0 -79 -21 -162q-16 -66 -31 -90q-12 -19 -24 -19q-7 0 -7 8q0 11 12 32q34 58 34 160q0 61 -13 87
q-19 38 -61 67q-39 26 -69 28q-57 3 -89 -13q-37 -18 -57 -70q-18 -48 -18 -95q0 -54 25 -106zM105 419q-6 -16 -6 -25t9 -9q5 0 14 3q25 9 56 9q42 0 87 -16q37 -13 50 -24q5 -6 11 -6q11 0 11 15q0 9 -5 20q-43 93 -117 101q-76 9 -110 -68zM180 675q0 -27 -23 -27
q-6 0 -14.5 9t-7.5 18q4 22 21 22q24 0 24 -22zM286 675q0 -27 -23 -27q-6 0 -14.5 9t-7.5 18q4 22 21 22q24 0 24 -22z" />
    <glyph glyph-name="Aring" unicode="&#xc5;" 
d="M98 25q3 -7 3 -14q0 -17 -11 -17q-6 0 -13 10q-62 105 -62 227q0 52 12 122q15 80 57 152q37 61 72 85q31 21 58 21t53 -23q38 -34 57 -69q31 -59 54 -173q9 -43 9 -94q0 -79 -21 -162q-16 -66 -31 -90q-12 -19 -24 -19q-7 0 -7 8q0 11 12 32q34 58 34 160q0 61 -13 87
q-19 38 -61 67q-39 26 -69 28q-57 3 -89 -13q-37 -18 -57 -70q-18 -48 -18 -95q0 -54 25 -106zM105 419q-6 -16 -6 -25t9 -9q5 0 14 3q25 9 56 9q42 0 87 -16q37 -13 50 -24q5 -6 11 -6q11 0 11 15q0 9 -5 20q-43 93 -117 101q-76 9 -110 -68zM212 645q-13 0 -21 12.5
t-8 26.5q0 38 31 38t31 -34q0 -16 -8 -28q-10 -15 -25 -15zM229 678q0 18 -15 18t-15 -19q0 -18 14 -18q16 0 16 19z" />
    <glyph glyph-name="Ccedilla" unicode="&#xc7;" horiz-adv-x="401" 
d="M137 -103q2 7 2 14q0 14 -12.5 34t-12.5 36q0 19 9 33q-53 39 -82 119q-26 70 -26 143q0 115 41 208q53 120 152 120q107 0 167 -90q5 -8 5 -19q0 -27 -25 -59t-31 -25q-5 7 -15 22q-27 37 -46 51q-26 18 -64 18q-50 0 -91 -53q-34 -45 -44 -99t-10 -100q0 -140 92 -207
q42 -31 82 -31q39 0 76 28q24 17 51 51q23 28 26 28q10 0 10 -12q0 -10 -6 -23q-20 -43 -69 -71.5t-99 -28.5q-36 0 -67 14q-7 -6 -17 -24q-2 -8 18.5 -27t20.5 -37q0 -23 -20.5 -35.5t-44.5 -12.5q-7 0 -13 1q-9 2 -9 8q0 3 6 2q12 -3 27.5 4t18.5 20z" />
    <glyph glyph-name="Eacute" unicode="&#xc9;" horiz-adv-x="382" 
d="M147 480q-45 -22 -70 -86q-2 -4 -2 -9q0 -29 20 -41q29 -18 57 -18q39 0 87 27q6 4 11 4q12 0 12 -16q0 -9 -6 -16q-38 -46 -100 -46q-29 0 -63 12q-5 2 -10 2q-26 0 -26 -32q0 -76 35 -143t80 -85q27 -10 52 -10q80 0 131 102q3 8 8 8q9 0 9 -22q0 -8 -3 -16
q-10 -27 -45 -60q-47 -45 -102 -48q-71 -3 -131 67q-57 66 -70 156q-6 44 -6 85q0 158 90 253q50 52 104 52q57 0 112 -58q19 -20 18 -42t-23 -50q-10 -12 -17 -12t-15 10q-33 41 -94 41q-24 0 -43 -9zM264 697q-7 -15 -50 -48q-28 -4 -28 20q0 7 5.5 11.5t58.5 32.5
q6 3 11.5 -4t2.5 -12z" />
    <glyph glyph-name="Ntilde" unicode="&#xd1;" horiz-adv-x="406" 
d="M70 4q1 -15 -4 -15q-2 0 -12 9q-39 147 -39 287q0 149 44 272q10 28 25 28q24 0 72 -23q63 -30 113 -105q36 -54 64 -126q11 -35 22 -69q2 -6 5 -6q2 0 4 6q1 25 1 49q0 104 -20 185l-22 70q-8 27 3 27h1q4 -1 11 -13q48 -79 53 -289q2 -102 -15 -200
q-11 -62 -19.5 -83.5t-18.5 -21.5q-7 0 -5 23q13 119 13 122q0 53 -16 107q-23 75 -64.5 140.5t-78.5 83.5q-19 9 -36 9q-61 0 -89 -95q-19 -68 -19 -151q0 -66 13 -143zM153 687q-27 0 -28 -29q0 -5 -3 -6q-6 0 -6 12q1 43 46 43q25 0 39.5 -13.5t21.5 -13.5q8 0 18.5 7.5
t18.5 7.5q17 0 17 -24q0 -10 -11 -17.5t-22 -7.5q-27 0 -47.5 20.5t-43.5 20.5z" />
    <glyph glyph-name="Odieresis" unicode="&#xd6;" horiz-adv-x="399" 
d="M376 217q-22 -139 -96 -202q-33 -29 -79 -29q-68 0 -110 46q-71 78 -71 246q0 79 20 141q25 77 83 134q35 35 81 35q49 0 93 -46q82 -83 82 -271q0 -33 -3 -54zM290 98q39 61 39 169q0 105 -44 161t-92 56q-52 0 -95 -57q-53 -69 -53 -183q0 -82 39 -151q36 -65 90 -65
q35 0 72 26q30 21 44 44zM177 675q0 -27 -23 -27q-6 0 -14.5 9t-7.5 18q4 22 21 22q24 0 24 -22zM283 675q0 -27 -23 -27q-6 0 -14.5 9t-7.5 18q4 22 21 22q24 0 24 -22z" />
    <glyph glyph-name="Udieresis" unicode="&#xdc;" horiz-adv-x="412" 
d="M62 557q4 12 15 12q9 0 9 -10q0 -5 -2 -11q-37 -87 -37 -171q0 -18 2 -37q12 -157 78 -214q40 -35 80 -35q31 0 62 21q37 24 62 74q32 62 35 147q4 130 -43 229q-3 5 -2 15q1 11 6 11q6 0 17 -22q38 -79 50 -215q3 -27 3 -54q0 -180 -88 -269q-42 -42 -105 -42
q-52 0 -79 26q-48 46 -67 86q-26 55 -39 164q-4 30 -4 62q0 122 47 233zM169 675q0 -27 -23 -27q-6 0 -14.5 9t-7.5 18q4 22 21 22q24 0 24 -22zM275 675q0 -27 -23 -27q-6 0 -14.5 9t-7.5 18q4 22 21 22q24 0 24 -22z" />
    <glyph glyph-name="aacute" unicode="&#xe1;" horiz-adv-x="277" 
d="M267 -14q0 -5 -7.5 -12t-12.5 -7l-2.5 1.5t-20.5 25.5q-13 19 -21 19q-53 -22 -80 -22q-57 0 -87 53q-24 43 -24 104q0 67 27 113q33 57 95 57q27 0 65 -21l2 12q1 3 11 3q30 0 30 -14q0 -9 -3 -36.5t-3 -41.5q0 -72 8 -156q1 -13 12 -43t11 -35zM193 117q0 37 -15 67
q-19 37 -53 37q-35 0 -55 -32q-16 -26 -16 -63q0 -40 19 -72q22 -37 60 -37q60 0 60 100zM180 423q-7 -15 -50 -48q-28 -4 -28 20q0 7 5.5 11.5t58.5 32.5q6 3 11.5 -4t2.5 -12z" />
    <glyph glyph-name="agrave" unicode="&#xe0;" horiz-adv-x="277" 
d="M267 -14q0 -5 -7.5 -12t-12.5 -7l-2.5 1.5t-20.5 25.5q-13 19 -21 19q-53 -22 -80 -22q-57 0 -87 53q-24 43 -24 104q0 67 27 113q33 57 95 57q27 0 65 -21l2 12q1 3 11 3q30 0 30 -14q0 -9 -3 -36.5t-3 -41.5q0 -72 8 -156q1 -13 12 -43t11 -35zM193 117q0 37 -15 67
q-19 37 -53 37q-35 0 -55 -32q-16 -26 -16 -63q0 -40 19 -72q22 -37 60 -37q60 0 60 100zM80 422q-2 5 3.5 12t11.5 4q19 -8 60 -34q3 -3 3 -10q0 -24 -27 -20q-43 33 -51 48z" />
    <glyph glyph-name="acircumflex" unicode="&#xe2;" horiz-adv-x="277" 
d="M267 -14q0 -5 -7.5 -12t-12.5 -7l-2.5 1.5t-20.5 25.5q-13 19 -21 19q-53 -22 -80 -22q-57 0 -87 53q-24 43 -24 104q0 67 27 113q33 57 95 57q27 0 65 -21l2 12q1 3 11 3q30 0 30 -14q0 -9 -3 -36.5t-3 -41.5q0 -72 8 -156q1 -13 12 -43t11 -35zM193 117q0 37 -15 67
q-19 37 -53 37q-35 0 -55 -32q-16 -26 -16 -63q0 -40 19 -72q22 -37 60 -37q60 0 60 100zM189 386q1 -4 -5.5 -10t-9.5 -3q-11 9 -22 19t-19 10q-7 0 -41 -29q-3 -3 -10 3t-6 10q5 14 49 61q8 8 15 0q44 -47 49 -61z" />
    <glyph glyph-name="adieresis" unicode="&#xe4;" horiz-adv-x="277" 
d="M267 -14q0 -5 -7.5 -12t-12.5 -7l-2.5 1.5t-20.5 25.5q-13 19 -21 19q-53 -22 -80 -22q-57 0 -87 53q-24 43 -24 104q0 67 27 113q33 57 95 57q27 0 65 -21l2 12q1 3 11 3q30 0 30 -14q0 -9 -3 -36.5t-3 -41.5q0 -72 8 -156q1 -13 12 -43t11 -35zM193 117q0 37 -15 67
q-19 37 -53 37q-35 0 -55 -32q-16 -26 -16 -63q0 -40 19 -72q22 -37 60 -37q60 0 60 100zM107 400q0 -27 -23 -27q-6 0 -14.5 9t-7.5 18q4 22 21 22q24 0 24 -22zM213 400q0 -27 -23 -27q-6 0 -14.5 9t-7.5 18q4 22 21 22q24 0 24 -22z" />
    <glyph glyph-name="atilde" unicode="&#xe3;" horiz-adv-x="277" 
d="M267 -14q0 -5 -7.5 -12t-12.5 -7l-2.5 1.5t-20.5 25.5q-13 19 -21 19q-53 -22 -80 -22q-57 0 -87 53q-24 43 -24 104q0 67 27 113q33 57 95 57q27 0 65 -21l2 12q1 3 11 3q30 0 30 -14q0 -9 -3 -36.5t-3 -41.5q0 -72 8 -156q1 -13 12 -43t11 -35zM193 117q0 37 -15 67
q-19 37 -53 37q-35 0 -55 -32q-16 -26 -16 -63q0 -40 19 -72q22 -37 60 -37q60 0 60 100zM96 413q-27 0 -28 -29q0 -5 -3 -6q-6 0 -6 12q1 43 46 43q25 0 39.5 -13.5t21.5 -13.5q8 0 18.5 7.5t18.5 7.5q17 0 17 -24q0 -10 -11 -17.5t-22 -7.5q-27 0 -47.5 20.5t-43.5 20.5z
" />
    <glyph glyph-name="aring" unicode="&#xe5;" horiz-adv-x="277" 
d="M267 -14q0 -5 -7.5 -12t-12.5 -7l-2.5 1.5t-20.5 25.5q-13 19 -21 19q-53 -22 -80 -22q-57 0 -87 53q-24 43 -24 104q0 67 27 113q33 57 95 57q27 0 65 -21l2 12q1 3 11 3q30 0 30 -14q0 -9 -3 -36.5t-3 -41.5q0 -72 8 -156q1 -13 12 -43t11 -35zM193 117q0 37 -15 67
q-19 37 -53 37q-35 0 -55 -32q-16 -26 -16 -63q0 -40 19 -72q22 -37 60 -37q60 0 60 100zM130 371q-13 0 -21 12.5t-8 26.5q0 38 31 38t31 -34q0 -16 -8 -28q-10 -15 -25 -15zM147 404q0 18 -15 18t-15 -19q0 -18 14 -18q16 0 16 19z" />
    <glyph glyph-name="ccedilla" unicode="&#xe7;" horiz-adv-x="269" 
d="M82 -97q2 7 2 14q0 14 -12.5 34t-12.5 36q0 14 6 28q-53 43 -53 134q0 69 45 122t113 53q19 0 62 -14q20 -7 20 -29t-17 -46.5t-31 -24.5q-4 0 -21.5 10t-32.5 10q-36 0 -61 -39q-23 -35 -23 -75q1 -38 17 -65q19 -32 56 -32q39 0 63 21q12 10 27 37q10 20 20 20
q12 0 12 -14q0 -3 -1 -6q-30 -86 -128 -86q-22 0 -41 8q-5 -5 -13 -19q-2 -8 18.5 -27t20.5 -37q0 -23 -20.5 -35.5t-44.5 -12.5q-7 0 -13 1q-9 2 -9 8q0 3 6 2q12 -3 27.5 4t18.5 20z" />
    <glyph glyph-name="eacute" unicode="&#xe9;" horiz-adv-x="259" 
d="M249 189q0 -60 -71 -60q-13 0 -38.5 4.5t-38.5 4.5q-37 0 -37 -52q0 -66 60 -66q34 0 54 17q12 10 25 33q9 17 16 17q13 0 13 -12q0 -40 -40 -68q-36 -25 -77 -25q-103 0 -103 189q0 161 123 161q51 0 84 -47q30 -42 30 -96zM137 255q-22 0 -44 -19.5t-22 -39.5
q0 -22 39 -33q28 -9 57 -9q15 0 28.5 13.5t13.5 28.5q0 23 -25 42q-22 16 -47 17zM174 424q-7 -15 -50 -48q-28 -4 -28 20q0 7 5.5 11.5t58.5 32.5q6 3 11.5 -4t2.5 -12z" />
    <glyph glyph-name="egrave" unicode="&#xe8;" horiz-adv-x="259" 
d="M249 189q0 -60 -71 -60q-13 0 -38.5 4.5t-38.5 4.5q-37 0 -37 -52q0 -66 60 -66q34 0 54 17q12 10 25 33q9 17 16 17q13 0 13 -12q0 -40 -40 -68q-36 -25 -77 -25q-103 0 -103 189q0 161 123 161q51 0 84 -47q30 -42 30 -96zM137 255q-22 0 -44 -19.5t-22 -39.5
q0 -22 39 -33q28 -9 57 -9q15 0 28.5 13.5t13.5 28.5q0 23 -25 42q-22 16 -47 17zM75 422q-2 5 3.5 12t11.5 4q19 -8 60 -34q3 -3 3 -10q0 -24 -27 -20q-43 33 -51 48z" />
    <glyph glyph-name="ecircumflex" unicode="&#xea;" horiz-adv-x="259" 
d="M249 189q0 -60 -71 -60q-13 0 -38.5 4.5t-38.5 4.5q-37 0 -37 -52q0 -66 60 -66q34 0 54 17q12 10 25 33q9 17 16 17q13 0 13 -12q0 -40 -40 -68q-36 -25 -77 -25q-103 0 -103 189q0 161 123 161q51 0 84 -47q30 -42 30 -96zM137 255q-22 0 -44 -19.5t-22 -39.5
q0 -22 39 -33q28 -9 57 -9q15 0 28.5 13.5t13.5 28.5q0 23 -25 42q-22 16 -47 17zM188 386q1 -4 -5.5 -10t-9.5 -3q-11 9 -22 19t-19 10q-7 0 -41 -29q-3 -3 -10 3t-6 10q5 14 49 61q8 8 15 0q44 -47 49 -61z" />
    <glyph glyph-name="edieresis" unicode="&#xeb;" horiz-adv-x="259" 
d="M249 189q0 -60 -71 -60q-13 0 -38.5 4.5t-38.5 4.5q-37 0 -37 -52q0 -66 60 -66q34 0 54 17q12 10 25 33q9 17 16 17q13 0 13 -12q0 -40 -40 -68q-36 -25 -77 -25q-103 0 -103 189q0 161 123 161q51 0 84 -47q30 -42 30 -96zM137 255q-22 0 -44 -19.5t-22 -39.5
q0 -22 39 -33q28 -9 57 -9q15 0 28.5 13.5t13.5 28.5q0 23 -25 42q-22 16 -47 17zM103 403q0 -27 -23 -27q-6 0 -14.5 9t-7.5 18q4 22 21 22q24 0 24 -22zM209 403q0 -27 -23 -27q-6 0 -14.5 9t-7.5 18q4 22 21 22q24 0 24 -22z" />
    <glyph glyph-name="iacute" unicode="&#xed;" horiz-adv-x="110" 
d="M72 -10q-9 -6 -20.5 4t-15.5 21q-1 4 -3 37q-6 107 -7 247q-2 9 4 12q-1 0 43 0q9 0 9 -12q0 -8 -8.5 -105t-9.5 -112q0 -23 19 -59q6 -10 2 -22q-1 -3 -13 -11zM103 423q-7 -15 -50 -48q-28 -4 -28 20q0 7 5.5 11.5t58.5 32.5q6 3 11.5 -4t2.5 -12z" />
    <glyph glyph-name="igrave" unicode="&#xec;" horiz-adv-x="110" 
d="M72 -10q-9 -6 -20.5 4t-15.5 21q-1 4 -3 37q-6 107 -7 247q-2 9 4 12q-1 0 43 0q9 0 9 -12q0 -8 -8.5 -105t-9.5 -112q0 -23 19 -59q6 -10 2 -22q-1 -3 -13 -11zM-5 423q-2 5 3.5 12t11.5 4q19 -8 60 -34q3 -3 3 -10q0 -24 -27 -20q-43 33 -51 48z" />
    <glyph glyph-name="icircumflex" unicode="&#xee;" horiz-adv-x="110" 
d="M72 -10q-9 -6 -20.5 4t-15.5 21q-1 4 -3 37q-6 107 -7 247q-2 9 4 12q-1 0 43 0q9 0 9 -12q0 -8 -8.5 -105t-9.5 -112q0 -23 19 -59q6 -10 2 -22q-1 -3 -13 -11zM111 384q1 -4 -5.5 -10t-9.5 -3q-11 9 -22 19t-19 10q-7 0 -41 -29q-3 -3 -10 3t-6 10q5 14 49 61q8 8 15 0
q44 -47 49 -61z" />
    <glyph glyph-name="idieresis" unicode="&#xef;" horiz-adv-x="110" 
d="M72 -10q-9 -6 -20.5 4t-15.5 21q-1 4 -3 37q-6 107 -7 247q-2 9 4 12q-1 0 43 0q9 0 9 -12q0 -8 -8.5 -105t-9.5 -112q0 -23 19 -59q6 -10 2 -22q-1 -3 -13 -11z" />
    <glyph glyph-name="ntilde" unicode="&#xf1;" horiz-adv-x="299" 
d="M103 414q-27 0 -28 -29q0 -5 -3 -6q-6 0 -6 12q1 43 46 43q25 0 39.5 -13.5t21.5 -13.5q8 0 18.5 7.5t18.5 7.5q17 0 17 -24q0 -10 -11 -17.5t-22 -7.5q-27 0 -47.5 20.5t-43.5 20.5zM202 -32q-38 0 -60 25q-19 20 -17 37q3 48 32 48q6 0 8 -15q7 -52 49 -52t42 101
q0 47 -24 90q-29 51 -72 51q-34 0 -61 -26.5t-32 -60.5q-3 -30 -1 -80q2 -77 2 -81q0 -21 -14 -21q-5 0 -13.5 1t-12.5 1q-13 0 -13 17q0 228 -2 307q0 9 6 9q38 0 41 -4t3 -39q0 -22 2 -45q45 53 54 61q34 30 74 30q51 0 76 -58q18 -44 18 -102q0 -66 -15 -118
q-22 -76 -70 -76z" />
    <glyph glyph-name="oacute" unicode="&#xf3;" horiz-adv-x="295" 
d="M140 -16q-54 0 -89 54q-31 47 -31 105q0 66 30 123q37 68 98 68q59 0 95 -59q32 -52 32 -113q0 -65 -34 -118q-39 -60 -101 -60zM234 130q0 41 -22 72q-25 34 -65 34q-41 0 -65 -35q-22 -31 -22 -73q0 -43 19 -76q22 -40 61 -40q47 0 72 37q22 32 22 81zM195 422
q-7 -15 -50 -48q-28 -4 -28 20q0 7 5.5 11.5t58.5 32.5q6 3 11.5 -4t2.5 -12z" />
    <glyph glyph-name="ograve" unicode="&#xf2;" horiz-adv-x="295" 
d="M140 -16q-54 0 -89 54q-31 47 -31 105q0 66 30 123q37 68 98 68q59 0 95 -59q32 -52 32 -113q0 -65 -34 -118q-39 -60 -101 -60zM234 130q0 41 -22 72q-25 34 -65 34q-41 0 -65 -35q-22 -31 -22 -73q0 -43 19 -76q22 -40 61 -40q47 0 72 37q22 32 22 81zM88 423
q-2 5 3.5 12t11.5 4q19 -8 60 -34q3 -3 3 -10q0 -24 -27 -20q-43 33 -51 48z" />
    <glyph glyph-name="ocircumflex" unicode="&#xf4;" horiz-adv-x="295" 
d="M140 -16q-54 0 -89 54q-31 47 -31 105q0 66 30 123q37 68 98 68q59 0 95 -59q32 -52 32 -113q0 -65 -34 -118q-39 -60 -101 -60zM234 130q0 41 -22 72q-25 34 -65 34q-41 0 -65 -35q-22 -31 -22 -73q0 -43 19 -76q22 -40 61 -40q47 0 72 37q22 32 22 81zM204 386
q1 -4 -5.5 -10t-9.5 -3q-11 9 -22 19t-19 10q-7 0 -41 -29q-3 -3 -10 3t-6 10q5 14 49 61q8 8 15 0q44 -47 49 -61z" />
    <glyph glyph-name="odieresis" unicode="&#xf6;" horiz-adv-x="295" 
d="M140 -16q-54 0 -89 54q-31 47 -31 105q0 66 30 123q37 68 98 68q59 0 95 -59q32 -52 32 -113q0 -65 -34 -118q-39 -60 -101 -60zM234 130q0 41 -22 72q-25 34 -65 34q-41 0 -65 -35q-22 -31 -22 -73q0 -43 19 -76q22 -40 61 -40q47 0 72 37q22 32 22 81zM118 401
q0 -27 -23 -27q-6 0 -14.5 9t-7.5 18q4 22 21 22q24 0 24 -22zM224 401q0 -27 -23 -27q-6 0 -14.5 9t-7.5 18q4 22 21 22q24 0 24 -22z" />
    <glyph glyph-name="otilde" unicode="&#xf5;" horiz-adv-x="295" 
d="M140 -16q-54 0 -89 54q-31 47 -31 105q0 66 30 123q37 68 98 68q59 0 95 -59q32 -52 32 -113q0 -65 -34 -118q-39 -60 -101 -60zM234 130q0 41 -22 72q-25 34 -65 34q-41 0 -65 -35q-22 -31 -22 -73q0 -43 19 -76q22 -40 61 -40q47 0 72 37q22 32 22 81zM102 412
q-27 0 -28 -29q0 -5 -3 -6q-6 0 -6 12q1 43 46 43q25 0 39.5 -13.5t21.5 -13.5q8 0 18.5 7.5t18.5 7.5q17 0 17 -24q0 -10 -11 -17.5t-22 -7.5q-27 0 -47.5 20.5t-43.5 20.5z" />
    <glyph glyph-name="uacute" unicode="&#xfa;" horiz-adv-x="285" 
d="M12 173q0 29 9 75q10 54 23 72q5 7 17 7q15 0 15 -9l-16.5 -42.5t-16.5 -72.5q0 -78 58 -117q21 -14 43 -14q47 0 73 40q22 34 22 83q0 61 -38 124l-2 3q0 16 18 16q24 0 42 -76q14 -59 14 -93q0 -67 -28 -120q-34 -64 -95 -64q-70 0 -107 62q-31 51 -31 126zM189 423
q-7 -15 -50 -48q-28 -4 -28 20q0 7 5.5 11.5t58.5 32.5q6 3 11.5 -4t2.5 -12z" />
    <glyph glyph-name="ugrave" unicode="&#xf9;" horiz-adv-x="285" 
d="M12 173q0 29 9 75q10 54 23 72q5 7 17 7q15 0 15 -9l-16.5 -42.5t-16.5 -72.5q0 -78 58 -117q21 -14 43 -14q47 0 73 40q22 34 22 83q0 61 -38 124l-2 3q0 16 18 16q24 0 42 -76q14 -59 14 -93q0 -67 -28 -120q-34 -64 -95 -64q-70 0 -107 62q-31 51 -31 126zM81 422
q-2 5 3.5 12t11.5 4q19 -8 60 -34q3 -3 3 -10q0 -24 -27 -20q-43 33 -51 48z" />
    <glyph glyph-name="ucircumflex" unicode="&#xfb;" horiz-adv-x="285" 
d="M12 173q0 29 9 75q10 54 23 72q5 7 17 7q15 0 15 -9l-16.5 -42.5t-16.5 -72.5q0 -78 58 -117q21 -14 43 -14q47 0 73 40q22 34 22 83q0 61 -38 124l-2 3q0 16 18 16q24 0 42 -76q14 -59 14 -93q0 -67 -28 -120q-34 -64 -95 -64q-70 0 -107 62q-31 51 -31 126zM193 386
q1 -4 -5.5 -10t-9.5 -3q-11 9 -22 19t-19 10q-7 0 -41 -29q-3 -3 -10 3t-6 10q5 14 49 61q8 8 15 0q44 -47 49 -61z" />
    <glyph glyph-name="udieresis" unicode="&#xfc;" horiz-adv-x="285" 
d="M12 173q0 29 9 75q10 54 23 72q5 7 17 7q15 0 15 -9l-16.5 -42.5t-16.5 -72.5q0 -78 58 -117q21 -14 43 -14q47 0 73 40q22 34 22 83q0 61 -38 124l-2 3q0 16 18 16q24 0 42 -76q14 -59 14 -93q0 -67 -28 -120q-34 -64 -95 -64q-70 0 -107 62q-31 51 -31 126zM107 401
q0 -27 -23 -27q-6 0 -14.5 9t-7.5 18q4 22 21 22q24 0 24 -22zM213 401q0 -27 -23 -27q-6 0 -14.5 9t-7.5 18q4 22 21 22q24 0 24 -22z" />
    <glyph glyph-name="dagger" unicode="&#x2020;" horiz-adv-x="229" 
d="M108 601q38 0 38 -9q0 -6 -3.5 -17t-3.5 -17q20 -3 39 -12q25 -11 26 -24q0 -6 -8 -6q-2 0 -30 7t-30 4q-3 -4 -9 -86q-6 -78 -6 -101q0 -15 -10 -15q-15 0 -14 10q-2 65 -1 190q-1 1 -4 2q-16 -1 -33.5 -8.5t-20.5 -7.5q-6 0 -13 43q-1 5 32 7q33 3 38 -2q3 1 5 3
q3 39 8 39z" />
    <glyph glyph-name="degree" unicode="&#xb0;" horiz-adv-x="193" 
d="M93 370q-31 0 -51 31q-17 26 -17 58q0 38 17 70q21 38 55 38q33 0 54 -33q17 -29 17 -64q0 -36 -19 -66q-21 -34 -56 -34zM145 452q0 24 -13 42t-35 18q-23 0 -36.5 -18.5t-13.5 -42.5t11 -43q13 -22 35 -22q52 0 52 66z" />
    <glyph glyph-name="cent" unicode="&#xa2;" horiz-adv-x="299" 
d="M139 151q-1 51 -4 202q-25 -13 -40.5 -44.5t-15.5 -62.5q1 -84 60 -95zM183 454q19 0 62 -14q20 -7 20 -29t-17 -46.5t-31 -24.5q-5 0 -18.5 8t-23.5 10q-4 -142 -2 -207q29 5 48 25q8 8 22 34q10 17 19 17q12 0 12 -14q0 -3 -1 -6q-24 -70 -99 -83q2 -29 5 -43.5
t1 -20.5q-1 -7 -9 -11t-12 0q-19 17 -20 48v24q-57 3 -88 53q-26 43 -26 105q0 55 30 102t79 65l-1 57q-1 8 3 11h34q8 0 8 -12q0 -16 -1 -48h6z" />
    <glyph glyph-name="sterling" unicode="&#xa3;" horiz-adv-x="491" 
d="M257 346q-15 -22 -43 -22q-35 0 -74 -2q0 -198 87 -247q53 -30 121 -30q95 0 123 67q4 11 8 11q8 0 8 -17q-1 -15 -15 -38q-50 -84 -176 -84q-60 0 -121 22q-40 14 -54 107q-15 99 -19 207q-50 -2 -86 -3q-8 -1 -11 4q0 -1 0 39q0 8 11 8q26 0 84 -4v37q0 67 11 172
q2 16 2 17q3 6 15 6q64 1 64 -14q0 -2 -2 -11q-10 -18 -28 -61q-17 -64 -21 -148q55 -2 87 7q13 4 20 2q6 -2 9 -11q4 -9 0 -14z" />
    <glyph glyph-name="section" unicode="&#xa7;" horiz-adv-x="395" 
d="M365 262q0 -66 -28 -135.5t-73 -110.5q-36 -34 -94 -34q-65 0 -104 55q-36 52 -36 128q0 27 27 27q11 0 11 -33q0 -58 19 -98q23 -51 68 -51q50 0 93 47.5t48 106.5q3 33 -11.5 58t-37.5 25q-10 0 -28.5 -6t-32.5 -6q-53 0 -76 23q-13 13 -13 25q0 18 24 18q19 0 27 -16
q10 -22 35 -22q32 0 59 24.5t42 25.5q-15 35 -43 35q-11 0 -38 -7.5t-43 -7.5q-115 0 -115 115q0 72 45 118q42 43 106 43q74 0 124 -71q7 -9 7 -20q0 -7 -6.5 -16.5t-11.5 -9.5q-8 0 -21 21q-17 29 -30 41q-23 21 -55 21q-44 0 -73 -37t-29 -88q0 -33 13 -59q16 -31 43 -31
q32 0 73 27t57 27q43 0 63 -55q15 -40 15 -97z" />
    <glyph glyph-name="bullet" unicode="&#x2022;" horiz-adv-x="167" 
d="M127 296q0 -53 -43 -53q-13 0 -30 18t-14 36q8 44 41 44q46 0 46 -45z" />
    <glyph glyph-name="paragraph" unicode="&#xb6;" horiz-adv-x="579" 
d="M432 326q0 -251 -25 -301q-7 -15 -17 -15q-8 0 -8 13q0 9 4 32q5 28 6 35q5 49 5 112q0 40 -6 83q-10 61 -28 61q-4 0 -30 -20q-31 -24 -57 -36q-40 -20 -79 -20q-71 0 -116 61q-41 55 -41 128q0 17 3 35q16 78 66 107q41 23 129 24q38 0 118 -15q84 -17 120 -33
q22 -11 31 -36q32 -95 32 -246q0 -58 -8 -156q-9 -122 -23 -149q-7 -15 -17 -15q-8 0 -8 13q0 5 1 12q22 108 22 183q0 322 -95 350q21 -74 21 -207zM377 470q0 116 -128 116q-55 0 -93 -32q-40 -35 -40 -89q0 -56 40 -93t96 -37t91 41q34 38 34 94z" />
    <glyph glyph-name="germandbls" unicode="&#xdf;" horiz-adv-x="462" 
d="M241 333q-1 -9 -1 -19q0 -65 51 -57q28 5 46 13l26 14q9 5 21 5q56 0 62 -93q5 -58 -25 -115q-23 -46 -54 -71t-77 -25q-38 0 -61 17q-49 36 -53 109q0 17 18 21q7 2 10.5 -1.5t2.5 -13.5q-3 -41 13 -70q19 -35 57 -35q64 0 98 65q19 36 19 63q0 9 -3.5 30t-15.5 37
q-15 18 -33 18q-10 0 -30 -5t-30 -5q-40 0 -64 21q-27 24 -29 69q-3 52 27 84q21 23 51 29q35 8 60 31.5t27 52.5q4 50 -91 50q-27 0 -49 -3q-120 -19 -137 -117q-18 -103 -20 -216q-3 -137 34 -200q6 -12 -4 -20q-20 -13 -39 -15q-9 -1 -11 3q0 1 -2 16q-5 69 -5 312
q0 231 4 264q2 18 23 21q17 3 97 2q79 -1 122 -4q33 -2 43 -5q24 -7 45 -27t21 -60q0 -42 -27 -68q-19 -20 -65 -38q-42 -17 -52 -64z" />
    <glyph glyph-name="registered" unicode="&#xae;" horiz-adv-x="152" 
d="M127 503q-6 -35 -27 -51q-10 -7 -23 -7q-19 0 -32 12q-20 19 -20 61q0 20 6 35q7 20 24 34q10 9 23 9q14 0 27 -12t19.5 -36.5t2.5 -44.5zM115 516q0 26 -12.5 40t-26.5 14q-16 0 -30 -16t-14 -44q0 -21 10.5 -37.5t27.5 -16.5q22 0 33.5 16.5t11.5 43.5zM97 530
q0 -16 -14 -20q-1 0 0 -1q7 -5 10.5 -12.5t2.5 -16.5q0 -2 -3 -3q2 0 -5 0q-2 0 -2.5 9t-1.5 10q-4 11 -20 19q-4 2 -5 -2q-3 -14 1 -34q-2 -1 -3 -3q-3 1 -3 3q-4 44 1 64q2 9 28 5q13 -2 14 -18zM83 522q11 9 0 18q-8 6 -18 3q-3 -1 -5 -5q-4 -8 1 -14q10 -13 22 -2z" />
    <glyph glyph-name="copyright" unicode="&#xa9;" horiz-adv-x="483" 
d="M444 195q-24 -140 -110 -203q-40 -29 -93 -29q-75 0 -124 47q-39 37 -61 106q-21 65 -21 140q0 79 23 140q21 56 42 84q14 18 54.5 51.5t92.5 33.5q56 0 107 -45q94 -84 94 -272q0 -32 -4 -53zM352 76q44 62 44 169q0 105 -50 161t-108 56q-64 0 -114 -57
q-23 -27 -40 -72q-20 -55 -20 -111q0 -82 44 -151q41 -64 106 -64q42 0 85 24q36 21 53 45zM250 352q61 0 61 -42q0 -8 -14.5 -27t-21.5 -19q-3 0 -16.5 7t-24.5 7q-26 0 -44 -29q-16 -25 -16 -53q0 -72 52 -72q30 0 47 15q9 8 20 28q8 15 15 15q10 0 10 -10q0 -29 -35 -51
q-31 -19 -62 -19q-45 0 -70 39q-20 32 -20 79q0 53 33.5 92.5t85.5 39.5z" />
    <glyph glyph-name="trademark" unicode="&#x2122;" horiz-adv-x="234" 
d="M121 584q-1 0 -2 -1q-5 -3 -11 1q-11 7 -18 10q-5 1 -9 -3l1 -2v-1q-2 -18 0 -54l1 -55q1 -4 -5 -6q-4 -1 -13 1q-3 1 -3 6v2q1 21 3 50q1 25 2 53q1 12 -8 9q-12 -4 -17 -12l-2 -2q-2 -4 -8 -1q-3 1 -7 8q-7 8 18 14q18 5 31 5q55 0 51 -15q11 15 19 11l5 -2
q4 -2 12 -10q-2 3 12 10q2 1 5 2q5 2 8 -1l2 -1q19 -17 21 -58q2 -25 -14 -66q-2 -6 -5 -6q-5 0 -2 9q8 30 -3 62q-8 23 -25 33q-5 4 -10 4q-21 0 -30 -41q-8 -32 8 -56q3 -4 -1 -6q-3 -2 -6 3.5t-10 24.5q-3 15 -2 37q1 26 12 44zM198 517q1 9 1 18q0 28 -12 40q-4 3 -6 1
q-2 -1 0 -4q14 -23 17 -55z" />
    <glyph glyph-name="acute" unicode="&#xb4;" horiz-adv-x="127" 
d="M101 697q-7 -15 -50 -48q-28 -4 -28 20q0 7 5.5 11.5t58.5 32.5q6 3 11.5 -4t2.5 -12z" />
    <glyph glyph-name="dieresis" unicode="&#xa8;" horiz-adv-x="217" 
d="M78 675q0 -27 -23 -27q-6 0 -14.5 9t-7.5 18q4 22 21 22q24 0 24 -22zM184 675q0 -27 -23 -27q-6 0 -14.5 9t-7.5 18q4 22 21 22q24 0 24 -22z" />
    <glyph glyph-name="AE" unicode="&#xc6;" horiz-adv-x="738" 
d="M383 183q-15 -129 -48 -183q-12 -19 -24 -19q-7 0 -7 8q0 11 12 32q34 58 34 160q0 61 -13 87q-19 38 -61 67q-39 26 -69 28q-57 3 -89 -13q-37 -18 -57 -70q-18 -48 -18 -95q0 -54 25 -106l30 -54q3 -7 3 -14q0 -17 -11 -17q-6 0 -13 10q-62 105 -62 227q0 52 12 122
q15 80 57 152q37 61 72 85q31 21 58 21t53 -23q37 -33 55 -67q31 -55 53 -162q16 115 86 189q50 52 104 52q57 0 112 -58q13 -14 14 -42t-19 -50q-11 -12 -17 -12q-7 0 -15 10q-33 41 -94 41q-24 0 -43 -9q-45 -22 -70 -86q-2 -4 -2 -9q0 -29 20 -41q29 -18 57 -18
q39 0 87 27q6 4 11 4q12 0 12 -16q0 -9 -6 -16q-38 -46 -100 -46q-29 0 -63 12q-5 2 -10 2q-26 0 -26 -32q0 -76 35 -143t80 -85q27 -10 52 -10q80 0 131 102q3 8 8 8q9 0 9 -22q0 -8 -3 -16q-10 -27 -45 -60q-47 -45 -102 -48q-65 -3 -122 57q-54 56 -73 139zM332 386
q-43 93 -117 101q-76 9 -110 -68q-6 -16 -6 -25t9 -9q5 0 14 3q25 9 56 9q42 0 87 -16q37 -13 50 -24q5 -6 11 -6q11 0 11 15q0 9 -5 20z" />
    <glyph glyph-name="Oslash" unicode="&#xd8;" horiz-adv-x="413" 
d="M304 414q-130 -209 -202 -337q33 -46 80 -46q35 0 73 24q30 21 44 43q39 61 39 169q0 92 -34 147zM84 109l192 340q-36 35 -74 35q-52 0 -95 -57q-53 -69 -53 -182q0 -73 30 -136zM28 -23q-9 17 4 39l36 65q-39 82 -39 198q0 78 20 140q18 56 37 83q12 18 47 52t80 34
q59 0 107 -61l29 52q4 9 15 10q10 0 20 -9t10 -21q0 -2 -6 -10q-11 -17 -42 -66q42 -86 42 -212q0 -33 -3 -54q-22 -139 -96 -202q-35 -29 -81 -29q-77 0 -121 63q-28 -49 -32 -63t-18 -14q-6 0 -9 5z" />
    <glyph glyph-name="plusminus" unicode="&#xb1;" horiz-adv-x="414" 
d="M123 637q66 -1 66 -13q0 -20 -10 -108q38 1 75 -3q0 74 14 74q66 -1 66 -13q0 -16 -9 -73q44 -12 74 -31q12 -8 13 -16q0 -5 -13 -5q-6 0 -29 8q-28 10 -51 14l-1 -9q-4 -24 -15 -193q-11 -165 -11 -197q0 -56 21 -54q5 0 11 4l6 4q2 0 2 -4q0 -13 -12.5 -28.5
t-25.5 -15.5q-35 0 -38 86q-5 161 -1 382v29q-44 -1 -81 -9l-1 -4q-4 -24 -15 -218q-11 -189 -11 -222q0 -56 21 -54q5 0 11 4l6 4q2 0 2 -4q0 -14 -12.5 -30t-25.5 -14q-26 5 -34 38l-4 48q-8 93 -2 432q-33 -15 -60 -39q-23 -20 -26 -20q-8 0 -14 34q-4 26 -4 40
q0 6 15 17q30 21 90 31q1 11 6 67q5 61 7 61z" />
    <glyph glyph-name="yen" unicode="&#xa5;" horiz-adv-x="463" 
d="M40 565q3 14 6 18t14 6q29 6 48 2q12 -2 14 -7q2 -4 -2 -17q-5 -19 -14 -55q-6 -19 -6 -36q0 -49 46 -56q7 -1 22 14.5t20 15.5q11 -1 20.5 -13.5t18.5 -24.5q16 -21 24 -14q20 11 72 46q26 20 26 73q0 26 -5 44q-4 13 -3 15q0 5 11 10q16 3 40 9q19 4 26 -14
q5 -13 5 -30q0 -48 -41 -95q-12 -14 -42 -33q-36 -22 -51 -34q-39 -34 -42 -87q53 -1 83 7q13 4 20 2q6 -2 9 -11q4 -9 0 -14q-15 -22 -43 -22q-33 0 -68 -2v-7l2 -39q50 -1 80 7q13 4 20 2q6 -2 9 -11q4 -9 0 -14q-15 -22 -43 -22q-31 0 -63 -1q8 -138 12 -167
q3 -20 -16 -22q-35 -4 -47 1.5t-9 36.5q6 70 10 148q-49 -2 -85 -3q-8 -1 -11 4q0 -1 0 39q0 8 11 8q25 0 88 -4q1 34 1 42q-52 -2 -89 -3q-8 -1 -11 4q0 -1 0 39q0 8 11 8q25 0 89 -4q-4 56 -51 75q-55 22 -76 38q-28 23 -37 63q-11 44 -3 85z" />
    <glyph glyph-name="mu" unicode="&#xb5;" horiz-adv-x="320" 
d="M105 322q10 0 10 -17q0 -26 -22 -26q-25 0 -38 -32q-9 -23 -9 -53q0 -47 24 -90q28 -51 71 -51q33 0 59 26.5t33 60.5q14 72 -1 161q-3 21 15 21q4 0 12 -1t12 -1q14 0 13 -17q-3 -71 -3 -118q0 -169 34 -242q1 -4 -5 -9q-11 -11 -23 -11q-17 0 -25 20q-23 66 -26 132
q-58 -91 -129 -91q-51 0 -75 58q-19 44 -19 103t18 109q25 68 74 68z" />
    <glyph glyph-name="mu" unicode="&#x3bc;" horiz-adv-x="320" 
d="M105 322q10 0 10 -17q0 -26 -22 -26q-25 0 -38 -32q-9 -23 -9 -53q0 -47 24 -90q28 -51 71 -51q33 0 59 26.5t33 60.5q14 72 -1 161q-3 21 15 21q4 0 12 -1t12 -1q14 0 13 -17q-3 -71 -3 -118q0 -169 34 -242q1 -4 -5 -9q-11 -11 -23 -11q-17 0 -25 20q-23 66 -26 132
q-58 -91 -129 -91q-51 0 -75 58q-19 44 -19 103t18 109q25 68 74 68z" />
    <glyph glyph-name="pi" unicode="&#x3c0;" horiz-adv-x="410" 
d="M364 380q-27 3 -46 4q2 -6 2 -17q4 -153 10 -372q1 -7 -3 -9q-10 -6 -21 -6q3 0 -25 6q-9 2 -9 9q0 18 5 133t5 171q0 63 -6 81q0 2 -2 7q-70 3 -138 -3q1 -6 2 -16q3 -151 14 -372q1 -7 -3 -9q-9 -5 -26 -3q-26 3 -23 3q-7 0 -7 9q3 16 5 175q2 162 -1 208
q-22 -2 -60 -7q-6 0 -12 9v46q0 10 9 11q63 2 167 -2q121 -5 175 -17q9 -3 9 -13t-6.5 -18.5t-14.5 -7.5z" />
    <glyph glyph-name="integral" unicode="&#x222b;" horiz-adv-x="364" 
d="M183 347q0 -93 -3 -281q-3 -76 -13 -110q-23 -71 -85 -72q-29 0 -75 32q-2 4 -2 10q0 3 4 3q-2 0 21 -10t40 -10q80 0 80 166q0 59 -3.5 179.5t-3.5 183.5q0 43 1 82q6 212 115 212q27 0 61 -18q39 -22 39 -46q0 -16 -16 -34t-32 -18q-2 0 -12.5 15.5t-31.5 15.5
q-70 0 -78 -126q-4 -67 -6 -174z" />
    <glyph glyph-name="ordfeminine" unicode="&#xaa;" horiz-adv-x="376" 
d="M15 269q-6 5 -6 17q0 16 10.5 31t25.5 15q6 0 12 -3q50 -19 72 -99q13 -48 13 -95q-1 -4 -1 -8q1 -3 2 -5q2 1 7 13q11 25 16 69q2 26 5 52q1 10 14 10q27 0 42 -23q41 -62 41 -139q0 -17 -2 -35q-1 -9 -2 -17q0 -14 -2 -14q3 1 9 8q20 23 25 34q12 26 13 76
q1 74 -46 116q-10 9 -10 22q0 26 28 40q16 7 21 2q62 -57 62 -135q0 -55 -36.5 -123t-81.5 -91q-10 -5 -13 -3q-3 1 -11 5q-10 9 -3 24q12 22 12 50q0 51 -28 89q-3 4 -4 5.5t-2 0.5q-1 -2 -1 -7q-3 -33 -43 -94q-36 -56 -52 -64t-9 15q18 57 18 105q0 54 -23 93
q-17 28 -44 47z" />
    <glyph glyph-name="ordmasculine" unicode="&#xba;" horiz-adv-x="537" 
d="M520 -124q1 -39 -50 -62q-18 -9 -71 -21q-58 -13 -179 -13q-220 0 -220 45q0 8 6 23.5t11 12.5q86 -53 199 -53q76 0 168 21q102 24 102 119q0 79 -2 110v6q-2 0 -13 -16l-13 -20q-36 -42 -86 -42q-49 0 -73 66q-17 47 -17 109q0 60 27 111q33 61 90 61q31 0 77 -39
q1 0 2 -1q2 0 14.5 18.5t25.5 18.5q7 0 7 -10q0 -4 -3 -15q-5 -17 -5 -135q0 -195 3 -294zM322 106q0 -32 16.5 -60.5t41.5 -28.5q16 0 33 14q36 30 49 64q12 30 12 81q0 22 -18 42t-40 20q-50 0 -75 -44q-19 -35 -19 -88zM244 -73q0 -25 -29 -42q-23 -14 -50 -16
q-31 -4 -82 9q-59 15 -59 38q0 8 5.5 22t11.5 14q2 0 24.5 -26t49.5 -26q95 0 95 126q0 7 -1 19.5t-1 18.5l-34 -42q-33 -36 -78 -36q-50 0 -73 66q-17 48 -17 109t27 111q34 61 90 61q24 0 43 -13.5t37 -26.5q1 0 13.5 18.5t25.5 18.5q7 0 7 -10q0 -4 -3 -15q-5 -19 -5 -97
q0 -47 1.5 -141t1.5 -140zM46 106q0 -29 14 -57q18 -32 44 -32q15 0 33 14q61 48 61 145q0 22 -18 42t-40 20q-50 0 -74 -43q-20 -36 -20 -89z" />
    <glyph glyph-name="ae" unicode="&#xe6;" horiz-adv-x="459" 
d="M337 255q-21 0 -39 -17t-20 -37q-1 -22 37 -36q29 -11 52 -11q15 0 28.5 14t13.5 28q-1 25 -27 43q-22 16 -45 16zM267 -11q2 -6 -5.5 -14t-14.5 -8q-5 0 -17 19q-15 21 -17 23q-10 8 -16 1q-6 -6 -35 -13q-32 -8 -50 -5q-71 14 -93 96q-7 26 -7 60q0 103 52 144
q33 26 70 26q25 0 65 -21q0 3 0.5 9t12.5 6q31 0 30 -14q0 -2 -2 -12q31 46 95 46q52 0 84 -47q30 -42 30 -96q0 -55 -57 -59q-21 -2 -48 2q-31 6 -43 6q-35 0 -37 -52q-1 -27 12 -45q16 -21 48 -21q35 0 55 18q12 9 24 32q9 17 16 17q13 0 13 -12q-3 -41 -38.5 -67
t-78.5 -26q-30 0 -52 17q2 -4 4 -10zM188 69q5 28 5 48q0 53 -26 83q-18 21 -42 21q-40 0 -58 -36q-13 -27 -13 -59q0 -28 11 -56q21 -53 68 -53t55 52z" />
    <glyph glyph-name="oslash" unicode="&#xf8;" horiz-adv-x="295" 
d="M213 201q-75 -115 -110 -177q17 -12 37 -12q47 0 72 37q22 32 22 81q0 40 -21 71zM84 44q13 24 100 183q-17 9 -37 9q-41 0 -65 -35q-22 -31 -22 -73q0 -50 24 -84zM57 -32q-7 15 3 34l8 14q-48 49 -48 127q0 66 30 123q37 68 98 68q44 0 76 -34l10 17q4 8 13 8
q8 0 17.5 -9.5t9.5 -20.5q0 -2 -5 -9q-7 -10 -18 -26q24 -47 24 -98q0 -65 -34 -118q-39 -60 -101 -60q-27 0 -50 14q-8 -14 -10 -22q-4 -12 -16 -12q-5 0 -7 4z" />
    <glyph glyph-name="questiondown" unicode="&#xbf;" horiz-adv-x="381" 
d="M309 399q-1 21 -5 43q-3 18 -3 21q0 9 11 11q13 2 19 -22q1 -3 10 -49q15 -82 15 -96q0 -58 -47 -64q-22 -3 -54 5q-35 9 -55 8q-65 -3 -65 -110q0 -50 31 -86q32 -39 81 -39q37 0 63 22q14 11 34 41q15 22 24 22q6 0 13 -10t7 -16q0 -11 -7 -20q-58 -70 -141 -70
q-73 0 -121 43q-51 44 -51 116q0 63 33.5 101t96.5 38t81 9q32 16 32 74q0 13 -2 28zM263 566q0 36 29 36q8 0 19.5 -12t9.5 -25q-5 -28 -28 -28q-30 0 -30 29z" />
    <glyph glyph-name="exclamdown" unicode="&#xa1;" horiz-adv-x="151" 
d="M37 15q10 163 31 410q2 18 12 18q14 0 16 -18q1 -10 6 -195.5t5 -211.5q0 -18 -17 -23q-25 -9 -43 -2q-12 5 -10 22zM53 569q0 35 29 35q9 0 20 -11.5t9 -24.5q-5 -29 -27 -29q-31 0 -31 30z" />
    <glyph glyph-name="logicalnot" unicode="&#xac;" horiz-adv-x="414" 
d="M357 257q0 43 -4 52q0 2 9 3q31 4 34 4q7 0 7 -23q0 -91 -5 -212q-2 -42 -18 -72q-20 -37 -59 -37q-17 0 -31 10.5t-14 26.5q0 30 6 30q4 0 13 -5.5t16 -5.5q29 0 45 33q12 25 12 58q0 42 -20 89q-24 56 -58 56q-60 0 -60 -257q0 -3 1.5 -8.5t1.5 -8.5q-1 -12 -18 -12
q-18 0 -19 11q-1 40 -4 120q-5 99 -68 120q-11 4 -19 4q-28 0 -36 -50q-3 -20 -3 -72q0 -19 1 -55.5t1 -54.5q0 -23 -12 -23q-39 0 -39 31q0 37 -1 114v114q0 49 4 60q10 23 53 23q38 0 76.5 -34.5t37.5 -34.5q2 0 3 2q22 61 55 61q54 0 112 -57z" />
    <glyph glyph-name="florin" unicode="&#x192;" horiz-adv-x="364" 
d="M342 503q0 -12 -8 -38q-10 -30 -18 -30q1 0 -42.5 21t-70.5 21q-10 0 -17 -2q-1 -8 -3 -128q0 -93 -3 -281q-3 -76 -13 -110q-23 -71 -85 -72q-29 0 -75 32q-2 4 -2 10q0 3 4 3q-2 0 21 -10t40 -10q80 0 80 166q0 233 -7 253q-1 3 -30 38q-25 30 -25 64q0 45 42 70
q11 7 12 8t2 12q9 93 23 133q28 79 92 79q27 0 61 -18q39 -22 39 -46q0 -16 -16 -34t-32 -18q-2 0 -12.5 15.5t-31.5 15.5q-40 0 -62 -46q-18 -37 -16 -80q25 7 54 7q25 0 55 -5q44 -7 44 -20zM144 469q-30 0 -30 -47q0 -46 31 -59l1 104z" />
    <glyph glyph-name="guillemotleft" unicode="&#xab;" horiz-adv-x="316" 
d="M141 331q4 1 10 -8.5t3 -12.5l-28 -32q-20 -25 -21 -34q0 -8 49 -66q3 -3 -3 -12t-10 -8q-11 4 -91 79q-8 7 0 15q80 75 91 79zM252 338q4 1 10 -8.5t3 -12.5q-49 -58 -50 -73q0 -15 49 -73q3 -3 -3 -12t-10 -8q-7 3 -45 40l-46 46q-8 7 0 15q40 41 92 86z" />
    <glyph glyph-name="guillemotright" unicode="&#xbb;" horiz-adv-x="316" 
d="M175 331q11 -4 91 -79q7 -8 0 -15q-40 -37 -91 -79q-4 -1 -10 8t-3 12q48 58 48 66q0 9 -48 66q-3 3 3 12.5t10 8.5zM64 338q1 -1 92 -86q7 -8 0 -15q-40 -41 -91 -86q-4 -1 -10 8t-3 12q49 58 48 73q0 15 -49 73q-3 3 3 12.5t10 8.5z" />
    <glyph glyph-name="ellipsis" unicode="&#x2026;" horiz-adv-x="460" 
d="M323 -7q-11 -7 -16 -7l-16 9q-13 6 -53 45q-7 6 -16 -3q-21 -20 -60 -40q-16 -8 -19 -8q-8 0 -18 10q-61 57 -88 128q-23 60 -31 157q-2 24 -2 46q0 125 57 207q39 56 76 67q21 6 29 -3q4 -5 -4 -21q-38 -69 -38 -177q0 -158 96 -256q11 -12 22 -1q43 43 62 74
q46 75 46 165q0 85 -41 181q-16 35 -10 40q4 3 22 0q48 -9 91 -89q46 -90 43 -201q-7 -238 -132 -323zM386 482q-21 33 -21 22q0 -3 1 -8q10 -47 10 -95q0 -86 -29 -167q-24 -66 -56 -102q-13 -14 -13 -13q0 -6 18 -10q14 -4 22 -4q49 0 78 67q26 59 26 145q0 106 -36 165z
M170 129q-19 20 -40 89q-29 91 -29 187q0 50 8 98q3 15 -1 14q-2 0 -7 -4q-22 -19 -41 -57q-30 -60 -30 -135q0 -36 7 -74q9 -48 35 -91q33 -54 74 -54q13 0 26 6q12 5 -2 21z" />
    <glyph glyph-name="nonbreakingspace" unicode="&#xa0;" horiz-adv-x="160" 
 />
    <glyph glyph-name="Agrave" unicode="&#xc0;" 
d="M98 25q3 -7 3 -14q0 -17 -11 -17q-6 0 -13 10q-62 105 -62 227q0 52 12 122q15 80 57 152q37 61 72 85q31 21 58 21t53 -23q38 -34 57 -69q31 -59 54 -173q9 -43 9 -94q0 -79 -21 -162q-16 -66 -31 -90q-12 -19 -24 -19q-7 0 -7 8q0 11 12 32q34 58 34 160q0 61 -13 87
q-19 38 -61 67q-39 26 -69 28q-57 3 -89 -13q-37 -18 -57 -70q-18 -48 -18 -95q0 -54 25 -106zM105 419q-6 -16 -6 -25t9 -9q5 0 14 3q25 9 56 9q42 0 87 -16q37 -13 50 -24q5 -6 11 -6q11 0 11 15q0 9 -5 20q-43 93 -117 101q-76 9 -110 -68zM149 697q-2 5 3.5 12t11.5 4
q19 -8 60 -34q3 -3 3 -10q0 -24 -27 -20q-43 33 -51 48z" />
    <glyph glyph-name="Atilde" unicode="&#xc3;" 
d="M98 25q3 -7 3 -14q0 -17 -11 -17q-6 0 -13 10q-62 105 -62 227q0 52 12 122q15 80 57 152q37 61 72 85q31 21 58 21t53 -23q38 -34 57 -69q31 -59 54 -173q9 -43 9 -94q0 -79 -21 -162q-16 -66 -31 -90q-12 -19 -24 -19q-7 0 -7 8q0 11 12 32q34 58 34 160q0 61 -13 87
q-19 38 -61 67q-39 26 -69 28q-57 3 -89 -13q-37 -18 -57 -70q-18 -48 -18 -95q0 -54 25 -106zM105 419q-6 -16 -6 -25t9 -9q5 0 14 3q25 9 56 9q42 0 87 -16q37 -13 50 -24q5 -6 11 -6q11 0 11 15q0 9 -5 20q-43 93 -117 101q-76 9 -110 -68zM161 687q-27 0 -28 -29
q0 -5 -3 -6q-6 0 -6 12q1 43 46 43q25 0 39.5 -13.5t21.5 -13.5q8 0 18.5 7.5t18.5 7.5q17 0 17 -24q0 -10 -11 -17.5t-22 -7.5q-27 0 -47.5 20.5t-43.5 20.5z" />
    <glyph glyph-name="Otilde" unicode="&#xd5;" horiz-adv-x="399" 
d="M376 217q-22 -139 -96 -202q-33 -29 -79 -29q-68 0 -110 46q-71 78 -71 246q0 79 20 141q25 77 83 134q35 35 81 35q49 0 93 -46q82 -83 82 -271q0 -33 -3 -54zM290 98q39 61 39 169q0 105 -44 161t-92 56q-52 0 -95 -57q-53 -69 -53 -183q0 -82 39 -151q36 -65 90 -65
q35 0 72 26q30 21 44 44zM153 687q-27 0 -28 -29q0 -5 -3 -6q-6 0 -6 12q1 43 46 43q25 0 39.5 -13.5t21.5 -13.5q8 0 18.5 7.5t18.5 7.5q17 0 17 -24q0 -10 -11 -17.5t-22 -7.5q-27 0 -47.5 20.5t-43.5 20.5z" />
    <glyph glyph-name="OE" unicode="&#x152;" horiz-adv-x="720" 
d="M290 98q39 61 39 169q0 105 -44 161t-92 56q-52 0 -95 -57q-53 -69 -53 -182q0 -83 39 -152q34 -62 89 -62q35 0 73 24q30 21 44 43zM485 480q-45 -22 -70 -86q-2 -4 -2 -9q0 -29 20 -41q29 -18 57 -18q39 0 87 27q6 4 11 4q12 0 12 -16q0 -9 -6 -16q-38 -46 -100 -46
q-29 0 -63 12q-5 2 -10 2q-26 0 -26 -32q0 -76 35 -143t80 -85q27 -10 52 -10q80 0 131 102q3 8 8 8q9 0 9 -22q0 -8 -3 -16q-10 -27 -45 -60q-47 -45 -102 -48q-63 -3 -118 53q-53 53 -74 132q-23 -102 -88 -157q-35 -29 -81 -29q-65 0 -108 46q-71 79 -71 247q0 78 20 140
q18 56 37 83q12 18 47 52t80 34q49 0 94.5 -47t66.5 -140q21 87 78 147q50 52 104 52q57 0 112 -58q16 -16 14 -42q-1 -17 -7 -28t-12 -23t-16 -12q-8 0 -16 11q-33 41 -94 41q-24 0 -43 -9z" />
    <glyph glyph-name="oe" unicode="&#x153;" horiz-adv-x="492" 
d="M234 130q0 54 -32 82q-26 24 -55 24q-34 0 -60.5 -28.5t-26.5 -79.5q0 -50 23 -82.5t57 -32.5q47 0 72 37q22 31 22 80zM482 189q0 -55 -57 -59q-21 -2 -48 2q-31 6 -43 6q-35 0 -37 -52q-1 -27 12 -45q16 -21 48 -21q35 0 55 18q12 9 24 32q9 17 16 17q13 0 13 -12
q-3 -41 -38.5 -67t-78.5 -26q-69 0 -92 87q-5 -10 -11 -20q-14 -22 -39 -41q-33 -24 -66 -24q-45 0 -82.5 45t-37.5 114q0 48 17 94t40 66q36 31 71 31q42 0 82 -42q16 -17 27 -40q26 80 111 80q52 0 84 -47q30 -42 30 -96zM370 255q-21 0 -39 -17t-20 -37q-1 -22 37 -36
q29 -11 52 -11q15 0 28.5 14t13.5 28q-1 25 -27 43q-22 16 -45 16z" />
    <glyph glyph-name="endash" unicode="&#x2013;" horiz-adv-x="322" 
d="M292 296q-15 -22 -43 -22q-65 -3 -208 -7q-8 -1 -11 4q0 -1 0 39q0 8 11 8q26 0 78 -3t75 -3q43 0 69 7q13 4 20 2q6 -2 9 -11q4 -9 0 -14z" />
    <glyph glyph-name="emdash" unicode="&#x2014;" horiz-adv-x="462" 
d="M432 296q-15 -22 -43 -22q-135 -3 -348 -7q-8 -1 -11 4q0 -1 0 39q0 8 11 8q21 0 113 -3t141 -3q82 0 108 7q13 4 20 2q6 -2 9 -11q4 -9 0 -14z" />
    <glyph glyph-name="quotedblleft" unicode="&#x201c;" horiz-adv-x="194" 
d="M106 556q-1 5 -1 13q0 47 45 77q8 -2 10 -6.5t1 -9.5q-2 -5 -3 -3q-1 -7 -1 -14q0 -11 6 -27.5t6 -27.5q0 -12 -8 -22.5t-20 -10.5q-26 0 -35 31zM16 546q-1 5 -1 12q0 42 45 72q11 -2 11 -9t-4 -7q-1 -7 -1 -13q0 -11 6.5 -26.5t6.5 -26.5q0 -12 -8 -22.5t-20 -10.5
q-26 0 -35 31z" />
    <glyph glyph-name="quotedblright" unicode="&#x201d;" horiz-adv-x="189" 
d="M82 605q2 -5 2 -13q0 -47 -45 -77q-8 1 -11 6q-1 4 0 9q2 5 2 4q2 7 2 14q0 10 -6 27t-6 27q0 12 8 23t20 11q26 0 34 -31zM172 615q2 -5 2 -12q0 -42 -45 -72q-11 1 -11 9q0 7 3 7q2 7 2 13q0 10 -6.5 26t-6.5 26q0 12 8 23t20 11q26 0 34 -31z" />
    <glyph glyph-name="quoteleft" unicode="&#x2018;" horiz-adv-x="104" 
d="M21 558q-1 5 -1 13q0 47 45 77q8 -2 10 -6.5t1 -9.5q-2 -5 -3 -3q-1 -7 -1 -14q0 -11 6 -27.5t6 -27.5q0 -12 -8 -22.5t-20 -10.5q-26 0 -35 31z" />
    <glyph glyph-name="quoteright" unicode="&#x2019;" horiz-adv-x="104" 
d="M82 617q2 -5 2 -13q0 -47 -45 -77q-8 1 -11 6q-1 4 0 9q2 5 2 4q2 7 2 14q0 10 -6 27t-6 27q0 12 8 23t20 11q26 0 34 -31z" />
    <glyph glyph-name="divide" unicode="&#xf7;" horiz-adv-x="333" 
d="M316 251q0 -47 -32.5 -95.5t-32.5 -55.5q0 -15 35 -58t35 -49q0 -18 -20 -18q-4 0 -6 2q-65 55 -104 85q-27 -25 -81 -49q-50 -21 -76 -23q-12 -1 -14 1q-9 5 -15 29q-4 18 -2 22q3 5 15 5q66 1 127 44q-102 92 -102 172q0 51 22 58q12 0 12 -15q0 -6 -4 -18.5t-4 -18.5
q0 -44 37 -85.5t78 -41.5q37 0 75 40t37 72q-1 53 -35 53q-12 0 -21 -10t-9 -18q0 -6 14 -22q-1 -15 -19 -15q-29 7 -29 39q0 52 62 52q27 0 43 -28q14 -24 14 -54z" />
    <glyph glyph-name="ydieresis" unicode="&#xff;" horiz-adv-x="300" 
d="M71 326q32 0 32 -20q0 -14 -9.5 -64.5t-9.5 -74.5q0 -39 32.5 -72t71.5 -33q24 0 36 44q10 32 10 63q0 55 -29 113q-3 7 -3 10q0 12 22 23.5t35 11.5q16 0 24 -52q5 -32 5 -63q0 -127 -62 -231q-66 -113 -179 -154q-4 -2 -8 -2q-7 0 -22.5 19t-15.5 27q0 3 7 5
q81 29 91 34q43 22 71 66q16 26 16 30q0 5 -25 21q-15 9 -31 19q-46 36 -75.5 92.5t-29.5 113.5q0 36 6 51q10 23 40 23zM121 399q0 -27 -23 -27q-6 0 -14.5 9t-7.5 18q4 22 21 22q24 0 24 -22zM227 399q0 -27 -23 -27q-6 0 -14.5 9t-7.5 18q4 22 21 22q24 0 24 -22z" />
    <glyph glyph-name="Ydieresis" unicode="&#x178;" horiz-adv-x="403" 
d="M10 565q3 14 6 18t14 6q29 6 48 2q12 -2 14 -7q2 -4 -2 -17q-5 -19 -14 -55q-6 -19 -6 -36q0 -49 46 -56q7 -1 22 14.5t20 15.5q11 -1 20.5 -13.5t18.5 -24.5q16 -21 24 -14q20 11 72 46q26 20 26 73q0 26 -5 44q-4 13 -3 15q0 5 11 10q16 3 40 9q19 4 26 -14
q5 -13 5 -30q0 -48 -41 -95q-12 -14 -42 -33q-36 -22 -51 -34q-24 -21 -33 -41t-9 -61q0 -148 18 -277q3 -20 -16 -22q-35 -4 -47 1.5t-9 36.5q17 210 14 236q-1 28 -2 57q-8 44 -49 60q-55 22 -76 38q-28 23 -37 63q-11 44 -3 85zM170 675q0 -27 -23 -27q-6 0 -14.5 9
t-7.5 18q4 22 21 22q24 0 24 -22zM276 675q0 -27 -23 -27q-6 0 -14.5 9t-7.5 18q4 22 21 22q24 0 24 -22z" />
    <glyph glyph-name="fraction" unicode="&#x2044;" horiz-adv-x="383" 
d="M10 -31q-7 21 7 46q136 251 311 569q3 7 8 7q-2 0 37 -22q5 -4 0 -13q-87 -145 -175 -290q-148 -248 -158 -282q-1 -5 -8 -17q-5 -4 -12 -4q-8 0 -10 6z" />
    <glyph glyph-name="currency" unicode="&#xa4;" horiz-adv-x="451" 
d="M226 242q-43 -18 -96 -33q11 -62 42.5 -111.5t68.5 -64.5q27 -10 52 -10q80 0 131 102q4 8 8 8q9 0 9 -22q0 -8 -3 -16q-9 -27 -44 -60q-48 -45 -103 -48q-68 -3 -127 63q-56 62 -72 149q-29 -8 -60 -14q-8 -3 -11 1q-1 0 -11 34q-3 10 8 11q40 5 69 10q-2 24 -3 47
q-25 -6 -51 -12q-8 -3 -12 1q0 1 -10 35q-3 9 8 10q38 5 67 10q9 133 89 216q49 52 103 52q57 0 112 -58q16 -16 15 -42q-1 -17 -7 -28t-12.5 -23t-15.5 -12q-8 0 -17 11q-32 41 -94 41q-24 0 -43 -9q-66 -32 -83 -140q59 10 90 22q10 4 17 4q12 0 12 -9q0 -14 -25 -24
q-45 -18 -99 -34q-2 -18 -2 -38q0 -7 1 -14q63 12 95 24q10 4 17 4q12 0 12 -9q0 -14 -25 -24z" />
    <glyph glyph-name="guilsinglleft" unicode="&#x2039;" horiz-adv-x="205" 
d="M141 331q4 1 10 -8.5t3 -12.5l-28 -32q-20 -25 -21 -34q0 -8 49 -66q3 -3 -3 -12t-10 -8q-11 4 -91 79q-8 7 0 15q80 75 91 79z" />
    <glyph glyph-name="guilsinglright" unicode="&#x203a;" horiz-adv-x="205" 
d="M64 331q11 -4 91 -79q7 -8 0 -15q-40 -37 -91 -79q-4 -1 -10 8t-3 12q48 58 48 66q0 9 -48 66q-3 3 3 12.5t10 8.5z" />
    <glyph glyph-name="fi" unicode="&#xf001;" horiz-adv-x="310" 
d="M267 459q-5 -11 -24 -30q-21 -23 -28 -19q-48 68 -91 68q-8 0 -16 -3q-4 -181 -11 -412q-1 -42 -10 -123q-5 -19 -12 -19l-6 3q-7 10 -7 25q0 21 2.5 62.5t2.5 62.5q0 230 -7 254l-29 37q-26 32 -26 65q0 44 42 70q5 4 11 7q2 2 3 13q11 212 115 212q27 0 63.5 -20
t36.5 -44q0 -16 -16 -34t-32 -18q-2 0 -12.5 15.5t-31.5 15.5q-40 0 -59 -37q-16 -30 -16 -71q0 -11 2 -17q17 6 59 3q23 -1 63.5 -27t33.5 -39zM63 469q-1 1 -2 1q-10 0 -18.5 -16t-8.5 -27q0 -13 8 -34q9 -26 20 -30q1 41 1 105v1zM265 -13q-3 0 -8 3q-35 23 -38 25
q-22 17 -22 33q0 42 -3.5 151.5t-3.5 151.5q0 11 14 11q42 0 42 -13q0 -36 -7 -133.5t-7 -133.5q0 -17 17.5 -53.5t17.5 -39.5q-1 -2 -2 -2z" />
    <glyph glyph-name="fl" unicode="&#xf002;" horiz-adv-x="394" 
d="M61 469q-30 0 -30 -47t31 -59q1 40 1 104q0 2 -2 2zM295 -31q-6 0 -6 6q0 7 18.5 29t22.5 54q10 82 7 247q0 70 1 140q-3 102 -22 144q-27 62 -94 62q-14 0 -38 -4q-41 -5 -63 -53q-18 -38 -15 -73q24 7 54 7q26 0 56 -5q43 -7 43 -20q0 -12 -8 -38q-10 -30 -18 -30l-6 3
q-62 39 -109 39q-8 0 -15 -2q-2 -181 -6 -412q-1 -42 -10 -123q-5 -19 -12 -19l-6 3q-7 10 -7 25q0 21 2.5 62.5t2.5 62.5q0 230 -7 254l-29 37q-26 32 -26 65q0 44 42 70q5 4 11 7q2 2 3 13q10 191 115 212q22 5 44 5q69 0 117.5 -41t46.5 -99l-6 -180q-4 -119 -9 -225
q0 -39 -6 -117l-9 -58q-8 -25 -42 -42q-11 -6 -17 -6z" />
    <glyph glyph-name="daggerdbl" unicode="&#x2021;" horiz-adv-x="229" 
d="M36 423q-6 0 -13 43q-1 5 23 8q20 2 50 1q-1 30 0 50q-1 1 -4 2q-16 -1 -33.5 -8.5t-20.5 -7.5q-6 0 -13 43q-1 5 32 7q33 3 38 -2q3 1 5 3q3 39 8 39q38 0 38 -9q0 -6 -3.5 -17t-3.5 -17q20 -3 39 -12q25 -11 26 -24q0 -6 -8 -6q-2 0 -30 7t-30 4t-6 -54q12 -1 17 -2
q28 -8 39 -13q25 -10 26 -22q0 -6 -8 -6q-2 0 -23.5 4.5t-36.5 4.5q-8 1 -17 0q-6 -92 -6 -119q0 -15 -10 -15q-15 0 -14 10q0 30 -1 120q-24 -6 -60 -12z" />
    <glyph glyph-name="periodcentered" unicode="&#xb7;" horiz-adv-x="108" 
d="M83 345q0 -35 -29 -35q-8 0 -19.5 12t-9.5 24q5 29 28 29q30 0 30 -30z" />
    <glyph glyph-name="periodcentered" unicode="&#x2219;" horiz-adv-x="108" 
d="M83 345q0 -35 -29 -35q-8 0 -19.5 12t-9.5 24q5 29 28 29q30 0 30 -30z" />
    <glyph glyph-name="quotesinglbase" unicode="&#x201a;" horiz-adv-x="108" 
d="M87 24q2 -5 2 -12q0 -42 -45 -72q-10 2 -10 8q0 8 4 8q2 6 2 12q0 11 -7.5 27t-7.5 27q0 12 8 22.5t20 10.5q26 0 34 -31z" />
    <glyph glyph-name="quotedblbase" unicode="&#x201e;" horiz-adv-x="189" 
d="M82 26q2 -5 2 -13q0 -47 -45 -77q-8 1 -11 6q-1 4 0 9q2 5 2 4q2 7 2 14q0 10 -6 27t-6 27q0 12 8 23t20 11q26 0 34 -31zM172 32q2 -5 2 -12q0 -42 -45 -72q-11 1 -11 9q0 7 3 7q2 7 2 13q0 10 -6.5 26t-6.5 26q0 12 8 23t20 11q26 0 34 -31z" />
    <glyph glyph-name="perthousand" unicode="&#x2030;" horiz-adv-x="297" 
d="M221 276q0 8 -1 18v13q0 8 6.5 10t34.5 2q6 0 6 -9v-67q1 -44 1 -67q0 -72 -4 -94q-8 -51 -42 -83q-17 -15 -41 -15q-29 0 -53 19t-24 48q0 9 12 26t20 17q1 0 13 -39t38 -39q19 0 30 28q9 22 9 44q0 58 -27 111q-33 65 -86 65q-21 0 -33 -29q-10 -22 -10 -45
q0 -31 2 -92.5t2 -92.5q0 -21 -15 -21q-20 0 -25 1q-14 4 -14 18q0 28 -1.5 85t-1.5 85q0 66 6 93q13 59 55 59q59 0 142 -94q1 23 1 45z" />
    <glyph glyph-name="Acircumflex" unicode="&#xc2;" 
d="M98 25q3 -7 3 -14q0 -17 -11 -17q-6 0 -13 10q-62 105 -62 227q0 52 12 122q15 80 57 152q37 61 72 85q31 21 58 21t53 -23q38 -34 57 -69q31 -59 54 -173q9 -43 9 -94q0 -79 -21 -162q-16 -66 -31 -90q-12 -19 -24 -19q-7 0 -7 8q0 11 12 32q34 58 34 160q0 61 -13 87
q-19 38 -61 67q-39 26 -69 28q-57 3 -89 -13q-37 -18 -57 -70q-18 -48 -18 -95q0 -54 25 -106zM105 419q-6 -16 -6 -25t9 -9q5 0 14 3q25 9 56 9q42 0 87 -16q37 -13 50 -24q5 -6 11 -6q11 0 11 15q0 9 -5 20q-43 93 -117 101q-76 9 -110 -68zM260 660q1 -4 -5.5 -10
t-9.5 -3q-11 9 -22 19t-19 10q-7 0 -41 -29q-3 -3 -10 3t-6 10q5 14 49 61q8 8 15 0q44 -47 49 -61z" />
    <glyph glyph-name="Ecircumflex" unicode="&#xca;" horiz-adv-x="382" 
d="M147 480q-45 -22 -70 -86q-2 -4 -2 -9q0 -29 20 -41q29 -18 57 -18q39 0 87 27q6 4 11 4q12 0 12 -16q0 -9 -6 -16q-38 -46 -100 -46q-29 0 -63 12q-5 2 -10 2q-26 0 -26 -32q0 -76 35 -143t80 -85q27 -10 52 -10q80 0 131 102q3 8 8 8q9 0 9 -22q0 -8 -3 -16
q-10 -27 -45 -60q-47 -45 -102 -48q-71 -3 -131 67q-57 66 -70 156q-6 44 -6 85q0 158 90 253q50 52 104 52q57 0 112 -58q19 -20 18 -42t-23 -50q-10 -12 -17 -12t-15 10q-33 41 -94 41q-24 0 -43 -9zM258 660q1 -4 -5.5 -10t-9.5 -3q-11 9 -22 19t-19 10q-7 0 -41 -29
q-3 -3 -10 3t-6 10q5 14 49 61q8 8 15 0q44 -47 49 -61z" />
    <glyph glyph-name="Aacute" unicode="&#xc1;" 
d="M98 25q3 -7 3 -14q0 -17 -11 -17q-6 0 -13 10q-62 105 -62 227q0 52 12 122q15 80 57 152q37 61 72 85q31 21 58 21t53 -23q38 -34 57 -69q31 -59 54 -173q9 -43 9 -94q0 -79 -21 -162q-16 -66 -31 -90q-12 -19 -24 -19q-7 0 -7 8q0 11 12 32q34 58 34 160q0 61 -13 87
q-19 38 -61 67q-39 26 -69 28q-57 3 -89 -13q-37 -18 -57 -70q-18 -48 -18 -95q0 -54 25 -106zM105 419q-6 -16 -6 -25t9 -9q5 0 14 3q25 9 56 9q42 0 87 -16q37 -13 50 -24q5 -6 11 -6q11 0 11 15q0 9 -5 20q-43 93 -117 101q-76 9 -110 -68zM261 697q-7 -15 -50 -48
q-28 -4 -28 20q0 7 5.5 11.5t58.5 32.5q6 3 11.5 -4t2.5 -12z" />
    <glyph glyph-name="Edieresis" unicode="&#xcb;" horiz-adv-x="382" 
d="M147 480q-45 -22 -70 -86q-2 -4 -2 -9q0 -29 20 -41q29 -18 57 -18q39 0 87 27q6 4 11 4q12 0 12 -16q0 -9 -6 -16q-38 -46 -100 -46q-29 0 -63 12q-5 2 -10 2q-26 0 -26 -32q0 -76 35 -143t80 -85q27 -10 52 -10q80 0 131 102q3 8 8 8q9 0 9 -22q0 -8 -3 -16
q-10 -27 -45 -60q-47 -45 -102 -48q-71 -3 -131 67q-57 66 -70 156q-6 44 -6 85q0 158 90 253q50 52 104 52q57 0 112 -58q19 -20 18 -42t-23 -50q-10 -12 -17 -12t-15 10q-33 41 -94 41q-24 0 -43 -9zM178 675q0 -27 -23 -27q-6 0 -14.5 9t-7.5 18q4 22 21 22q24 0 24 -22z
M284 675q0 -27 -23 -27q-6 0 -14.5 9t-7.5 18q4 22 21 22q24 0 24 -22z" />
    <glyph glyph-name="Egrave" unicode="&#xc8;" horiz-adv-x="382" 
d="M147 480q-45 -22 -70 -86q-2 -4 -2 -9q0 -29 20 -41q29 -18 57 -18q39 0 87 27q6 4 11 4q12 0 12 -16q0 -9 -6 -16q-38 -46 -100 -46q-29 0 -63 12q-5 2 -10 2q-26 0 -26 -32q0 -76 35 -143t80 -85q27 -10 52 -10q80 0 131 102q3 8 8 8q9 0 9 -22q0 -8 -3 -16
q-10 -27 -45 -60q-47 -45 -102 -48q-71 -3 -131 67q-57 66 -70 156q-6 44 -6 85q0 158 90 253q50 52 104 52q57 0 112 -58q19 -20 18 -42t-23 -50q-10 -12 -17 -12t-15 10q-33 41 -94 41q-24 0 -43 -9zM147 696q-2 5 3.5 12t11.5 4q19 -8 60 -34q3 -3 3 -10q0 -24 -27 -20
q-43 33 -51 48z" />
    <glyph glyph-name="Iacute" unicode="&#xcd;" horiz-adv-x="144" 
d="M35 577q-1 18 7.5 22.5t27.5 3.5q18 0 28.5 -5.5t10.5 -23.5q0 -25 -6.5 -292.5t-7.5 -278.5q-2 -19 -16 -19q-9 0 -10 19q-17 278 -34 574zM121 697q-7 -15 -50 -48q-28 -4 -28 20q0 7 5.5 11.5t58.5 32.5q6 3 11.5 -4t2.5 -12z" />
    <glyph glyph-name="Icircumflex" unicode="&#xce;" horiz-adv-x="144" 
d="M35 577q-1 18 7.5 22.5t27.5 3.5q18 0 28.5 -5.5t10.5 -23.5q0 -25 -6.5 -292.5t-7.5 -278.5q-2 -19 -16 -19q-9 0 -10 19q-17 278 -34 574zM127 660q1 -4 -5.5 -10t-9.5 -3q-11 9 -22 19t-19 10q-7 0 -41 -29q-3 -3 -10 3t-6 10q5 14 49 61q8 8 15 0q44 -47 49 -61z" />
    <glyph glyph-name="Idieresis" unicode="&#xcf;" horiz-adv-x="144" 
d="M35 577q-1 18 7.5 22.5t27.5 3.5q18 0 28.5 -5.5t10.5 -23.5q0 -25 -6.5 -292.5t-7.5 -278.5q-2 -19 -16 -19q-9 0 -10 19q-17 278 -34 574zM42 675q0 -27 -23 -27q-6 0 -14.5 9t-7.5 18q4 22 21 22q24 0 24 -22zM148 675q0 -27 -23 -27q-6 0 -14.5 9t-7.5 18q4 22 21 22
q24 0 24 -22z" />
    <glyph glyph-name="Igrave" unicode="&#xcc;" horiz-adv-x="144" 
d="M35 577q-1 18 7.5 22.5t27.5 3.5q18 0 28.5 -5.5t10.5 -23.5q0 -25 -6.5 -292.5t-7.5 -278.5q-2 -19 -16 -19q-9 0 -10 19q-17 278 -34 574zM13 697q-2 5 3.5 12t11.5 4q19 -8 60 -34q3 -3 3 -10q0 -24 -27 -20q-43 33 -51 48z" />
    <glyph glyph-name="Oacute" unicode="&#xd3;" horiz-adv-x="399" 
d="M376 217q-22 -139 -96 -202q-33 -29 -79 -29q-68 0 -110 46q-71 78 -71 246q0 79 20 141q25 77 83 134q35 35 81 35q49 0 93 -46q82 -83 82 -271q0 -33 -3 -54zM290 98q39 61 39 169q0 105 -44 161t-92 56q-52 0 -95 -57q-53 -69 -53 -183q0 -82 39 -151q36 -65 90 -65
q35 0 72 26q30 21 44 44zM251 697q-7 -15 -50 -48q-28 -4 -28 20q0 7 5.5 11.5t58.5 32.5q6 3 11.5 -4t2.5 -12z" />
    <glyph glyph-name="Ocircumflex" unicode="&#xd4;" horiz-adv-x="399" 
d="M376 217q-22 -139 -96 -202q-33 -29 -79 -29q-68 0 -110 46q-71 78 -71 246q0 79 20 141q25 77 83 134q35 35 81 35q49 0 93 -46q82 -83 82 -271q0 -33 -3 -54zM290 98q39 61 39 169q0 105 -44 161t-92 56q-52 0 -95 -57q-53 -69 -53 -183q0 -82 39 -151q36 -65 90 -65
q35 0 72 26q30 21 44 44zM258 660q1 -4 -5.5 -10t-9.5 -3q-11 9 -22 19t-19 10q-7 0 -41 -29q-3 -3 -10 3t-6 10q5 14 49 61q8 8 15 0q44 -47 49 -61z" />
    <glyph glyph-name="apple" unicode="&#xf000;" horiz-adv-x="619" 
d="M405 267v10q-1 27 13 27q13 0 13 -20q0 -18 -21 -57l-37 -68h86v29h-38l28 52q13 26 13 45q0 42 -44 42q-46 0 -43 -51v-9h30zM193 159v68h7q50 -3 50 48q0 49 -56 49h-34v-165h33zM298 267l-1 10q-1 27 13 27q13 0 13 -20q0 -18 -21 -57l-37 -68h87v29h-39l28 52
q13 26 13 45q0 42 -44 42q-46 0 -43 -51v-9h31zM125 355h369v-225h-369v225zM193 297h6q19 0 19 -21q0 -23 -25 -22v43zM158 103h21v-6h-8v-42h-6v42h-7v6zM179 103h7l6 -22l1 6l4 16h7l-9 -27v-21h-6v21zM215 55h-6v48h7q13 0 13 -13q0 -14 -14 -14v-21zM216 97h-1v-15
q7 -1 7 8q0 7 -6 7zM234 103h17v-6h-11v-15h10v-5h-10v-16h11v-6h-17v48zM270 103h17v-6h-10v-15h9v-5h-9v-22h-7v48zM304 103q12 0 12 -24t-12 -24q-13 0 -13 24t13 24zM304 97q-6 0 -6 -18q0 -19 6 -19t6 19q0 18 -6 18zM324 103h6v-35q0 -8 4 -8q5 0 5 7v36h6v-34
q0 -14 -10 -14q-11 0 -11 15v33zM359 92v-3l1 -16v-18h-6v48h6l11 -36l-1 19v17h6v-48h-6zM385 103h7q16 0 16 -25q0 -23 -19 -23h-4v48zM401 78q0 20 -10 19v-36q10 -1 10 17zM415 55v48h8q11 0 11 -12q0 -11 -6 -13l9 -23h-7l-9 23v-23h-6zM421 82q7 -1 7 7q0 9 -7 8v-15z
M437 103h7l6 -22l1 6l4 16h7l-9 -27v-21h-6v21z" />
    <glyph glyph-name="Ograve" unicode="&#xd2;" horiz-adv-x="399" 
d="M376 217q-22 -139 -96 -202q-33 -29 -79 -29q-68 0 -110 46q-71 78 -71 246q0 79 20 141q25 77 83 134q35 35 81 35q49 0 93 -46q82 -83 82 -271q0 -33 -3 -54zM290 98q39 61 39 169q0 105 -44 161t-92 56q-52 0 -95 -57q-53 -69 -53 -183q0 -82 39 -151q36 -65 90 -65
q35 0 72 26q30 21 44 44zM146 697q-2 5 3.5 12t11.5 4q19 -8 60 -34q3 -3 3 -10q0 -24 -27 -20q-43 33 -51 48z" />
    <glyph glyph-name="Uacute" unicode="&#xda;" horiz-adv-x="412" 
d="M62 557q4 12 15 12q9 0 9 -10q0 -5 -2 -11q-37 -87 -37 -171q0 -18 2 -37q12 -157 78 -214q40 -35 80 -35q31 0 62 21q37 24 62 74q32 62 35 147q4 130 -43 229q-3 5 -2 15q1 11 6 11q6 0 17 -22q38 -79 50 -215q3 -27 3 -54q0 -180 -88 -269q-42 -42 -105 -42
q-52 0 -79 26q-48 46 -67 86q-26 55 -39 164q-4 30 -4 62q0 122 47 233zM254 697q-7 -15 -50 -48q-28 -4 -28 20q0 7 5.5 11.5t58.5 32.5q6 3 11.5 -4t2.5 -12z" />
    <glyph glyph-name="Ucircumflex" unicode="&#xdb;" horiz-adv-x="412" 
d="M62 557q4 12 15 12q9 0 9 -10q0 -5 -2 -11q-37 -87 -37 -171q0 -18 2 -37q12 -157 78 -214q40 -35 80 -35q31 0 62 21q37 24 62 74q32 62 35 147q4 130 -43 229q-3 5 -2 15q1 11 6 11q6 0 17 -22q38 -79 50 -215q3 -27 3 -54q0 -180 -88 -269q-42 -42 -105 -42
q-52 0 -79 26q-48 46 -67 86q-26 55 -39 164q-4 30 -4 62q0 122 47 233zM259 660q2 -4 -5 -10t-10 -3q-10 9 -21 19t-20 10q-7 0 -41 -29q-3 -3 -10 3t-5 10q5 14 49 61q7 8 14 0q44 -47 49 -61z" />
    <glyph glyph-name="Ugrave" unicode="&#xd9;" horiz-adv-x="412" 
d="M62 557q4 12 15 12q9 0 9 -10q0 -5 -2 -11q-37 -87 -37 -171q0 -18 2 -37q12 -157 78 -214q40 -35 80 -35q31 0 62 21q37 24 62 74q32 62 35 147q4 130 -43 229q-3 5 -2 15q1 11 6 11q6 0 17 -22q38 -79 50 -215q3 -27 3 -54q0 -180 -88 -269q-42 -42 -105 -42
q-52 0 -79 26q-48 46 -67 86q-26 55 -39 164q-4 30 -4 62q0 122 47 233zM146 697q-2 5 3.5 12t11.5 4q19 -8 60 -34q3 -3 3 -10q0 -24 -27 -20q-43 33 -51 48z" />
    <glyph glyph-name="dotlessi" unicode="&#x131;" horiz-adv-x="110" 
d="M72 -10q-9 -6 -20.5 4t-15.5 21q-1 4 -3 37q-6 107 -7 247q-2 9 4 12q-1 0 43 0q9 0 9 -12q0 -8 -8.5 -105t-9.5 -112q0 -23 19 -59q6 -10 2 -22q-1 -3 -13 -11z" />
    <glyph glyph-name="circumflex" unicode="&#x2c6;" horiz-adv-x="163" 
d="M138 660q1 -4 -5.5 -10t-9.5 -3q-11 9 -22 19t-19 10q-7 0 -41 -29q-3 -3 -10 3t-6 10q5 14 49 61q8 8 15 0q44 -47 49 -61z" />
    <glyph glyph-name="tilde" unicode="&#x2dc;" horiz-adv-x="219" 
d="M66 687q-27 0 -28 -29q0 -5 -3 -6q-6 0 -6 12q1 43 46 43q25 0 39.5 -13.5t21.5 -13.5q8 0 18.5 7.5t18.5 7.5q17 0 17 -24q0 -10 -11 -17.5t-22 -7.5q-27 0 -47.5 20.5t-43.5 20.5z" />
    <glyph glyph-name="macron" unicode="&#xaf;" horiz-adv-x="167" 
d="M33 645q-8 0 -8 10q0 26 9 26q10 0 32 -1.5t32 -1.5q5 0 18.5 1.5t18.5 1.5q7 0 7 -11q0 -16 -12 -18q-17 1 -55 -3q-41 -4 -42 -4z" />
    <glyph glyph-name="macron" unicode="&#x2c9;" horiz-adv-x="167" 
d="M33 645q-8 0 -8 10q0 26 9 26q10 0 32 -1.5t32 -1.5q5 0 18.5 1.5t18.5 1.5q7 0 7 -11q0 -16 -12 -18q-17 1 -55 -3q-41 -4 -42 -4z" />
    <glyph glyph-name="breve" unicode="&#x2d8;" horiz-adv-x="163" 
d="M142 698q0 -17 -18 -34t-44 -17q-24 0 -41 17t-17 34q0 7 10 7q1 0 18 -11t32 -12q13 -2 31 12t19 14q10 0 10 -10z" />
    <glyph glyph-name="dotaccent" unicode="&#x2d9;" horiz-adv-x="108" 
d="M52 697q30 0 30 -24q0 -8 -10 -17.5t-21 -7.5q-24 4 -24 23q0 26 25 26z" />
    <glyph glyph-name="ring" unicode="&#x2da;" horiz-adv-x="112" 
d="M54 645q-13 0 -21 12.5t-8 26.5q0 38 31 38t31 -34q0 -16 -8 -28q-10 -15 -25 -15zM71 678q0 18 -15 18t-15 -19q0 -18 14 -18q16 0 16 19z" />
    <glyph glyph-name="cedilla" unicode="&#xb8;" horiz-adv-x="132" 
d="M77 -103q2 7 2 14q0 14 -12.5 34t-12.5 36q0 8 2 17q8 32 26 27q15 -3 11 -20q-2 -8 -10 -15.5t-10 -15.5t18.5 -27t20.5 -37q0 -23 -20.5 -35.5t-44.5 -12.5q-7 0 -13 1q-9 2 -9 8q0 3 6 2q12 -3 27.5 4t18.5 20z" />
    <glyph glyph-name="hungarumlaut" unicode="&#x2dd;" horiz-adv-x="174" 
d="M77 690q-2 -7 -18.5 -26.5t-22.5 -20.5l-7 2q-3 1 -4 8q7 39 15 54q10 19 26 11q15 -8 11 -28zM116 712q16 14 30 4q15 -10 3 -28q-17 -25 -41 -39q-8 -2 -14 5q0 8 8.5 31t13.5 27z" />
    <glyph glyph-name="ogonek" unicode="&#x2db;" horiz-adv-x="121" 
d="M51 -84q0 -13 13 -23t26 -11q5 0 5 -2q0 -7 -11 -7q-20 1 -39.5 18t-19.5 38q0 25 24 40t24 22q3 32 16 32q7 0 7 -14q-1 -26 -23 -47.5t-22 -45.5z" />
    <glyph glyph-name="caron" unicode="&#x2c7;" horiz-adv-x="163" 
d="M138 707q-5 -14 -49 -61q-7 -7 -15 0q-44 47 -49 61q-1 4 6 10t10 4q34 -29 41 -29t41 29q3 2 9.5 -4t5.5 -10z" />
    <glyph glyph-name="afii10023" unicode="&#x401;" horiz-adv-x="382" 
d="M147 480q-45 -22 -70 -86q-2 -4 -2 -9q0 -29 20 -41q29 -18 57 -18q39 0 87 27q6 4 11 4q12 0 12 -16q0 -9 -6 -16q-38 -46 -100 -46q-29 0 -63 12q-5 2 -10 2q-26 0 -26 -32q0 -76 35 -143t80 -85q27 -10 52 -10q80 0 131 102q3 8 8 8q9 0 9 -22q0 -8 -3 -16
q-10 -27 -45 -60q-47 -45 -102 -48q-71 -3 -131 67q-57 66 -70 156q-6 44 -6 85q0 158 90 253q50 52 104 52q57 0 112 -58q19 -20 18 -42t-23 -50q-10 -12 -17 -12t-15 10q-33 41 -94 41q-24 0 -43 -9zM178 675q0 -27 -23 -27q-6 0 -14.5 9t-7.5 18q4 22 21 22q24 0 24 -22z
M284 675q0 -27 -23 -27q-6 0 -14.5 9t-7.5 18q4 22 21 22q24 0 24 -22z" />
    <glyph glyph-name="afii10071" unicode="&#x451;" horiz-adv-x="259" 
d="M249 189q0 -60 -71 -60q-13 0 -38.5 4.5t-38.5 4.5q-37 0 -37 -52q0 -66 60 -66q34 0 54 17q12 10 25 33q9 17 16 17q13 0 13 -12q0 -40 -40 -68q-36 -25 -77 -25q-103 0 -103 189q0 161 123 161q51 0 84 -47q30 -42 30 -96zM137 255q-22 0 -44 -19.5t-22 -39.5
q0 -22 39 -33q28 -9 57 -9q15 0 28.5 13.5t13.5 28.5q0 23 -25 42q-22 16 -47 17zM103 403q0 -27 -23 -27q-6 0 -14.5 9t-7.5 18q4 22 21 22q24 0 24 -22zM209 403q0 -27 -23 -27q-6 0 -14.5 9t-7.5 18q4 22 21 22q24 0 24 -22z" />
    <glyph glyph-name="afii61352" unicode="&#x2116;" horiz-adv-x="714" 
d="M70 4q1 -15 -4 -15q-2 0 -12 9q-39 147 -39 287q0 149 44 272q10 28 25 28q24 0 72 -23q63 -30 113 -105q36 -54 64 -126q11 -35 22 -69q2 -6 5 -6q2 0 4 6q1 25 1 49q0 104 -20 185l-22 70q-8 27 3 27h1q4 -1 11 -13q48 -79 53 -289q2 -102 -15 -200
q-11 -62 -19.5 -83.5t-18.5 -21.5q-7 0 -5 23q13 119 13 122q0 53 -16 107q-23 75 -64.5 140.5t-78.5 83.5q-19 9 -36 9q-61 0 -89 -95q-19 -68 -19 -151q0 -66 13 -143zM690 296q-15 -22 -43 -22q-60 -3 -198 -7q-8 -1 -11 4q0 -1 0 39q0 8 11 8q26 0 75.5 -3t70.5 -3
q40 0 66 7q13 4 20 2q6 -2 9 -11q4 -9 0 -14zM571 345q-41 0 -68 39q-23 34 -23 76q0 48 23 89q28 49 74 49q45 0 72 -43q24 -37 24 -81q0 -47 -25 -85q-30 -44 -77 -44zM639 451q0 28 -17 50t-46 22t-46 -22.5t-17 -51.5t14 -52q16 -28 45 -28q33 0 51 26q16 22 16 56z" />
    <glyph glyph-name="afii10017" unicode="&#x410;" 
d="M98 25q3 -7 3 -14q0 -17 -11 -17q-6 0 -13 10q-62 105 -62 227q0 52 12 122q15 80 57 152q37 61 72 85q31 21 58 21t53 -23q38 -34 57 -69q31 -59 54 -173q9 -43 9 -94q0 -79 -21 -162q-16 -66 -31 -90q-12 -19 -24 -19q-7 0 -7 8q0 11 12 32q34 58 34 160q0 61 -13 87
q-19 38 -61 67q-39 26 -69 28q-57 3 -89 -13q-37 -18 -57 -70q-18 -48 -18 -95q0 -54 25 -106zM105 419q-6 -16 -6 -25t9 -9q5 0 14 3q25 9 56 9q42 0 87 -16q37 -13 50 -24q5 -6 11 -6q11 0 11 15q0 9 -5 20q-43 93 -117 101q-76 9 -110 -68z" />
    <glyph glyph-name="afii10018" unicode="&#x411;" horiz-adv-x="439" 
d="M314 77q32 26 32 80q0 48 -32 85q-39 46 -105 46q-56 0 -90 -40t-34 -95q0 -8 1.5 -18.5l3.5 -24.5q9 -47 84 -60q14 -2 26 -3.5t23 -1.5q51 0 91 32zM69 412q0 -13 -1.5 -36t0 -45t8 -38t23.5 -16q5 0 9 4q68 55 110 65q22 7 47 7q64 0 108 -51q50 -58 50 -135
q0 -18 -5 -38q-13 -58 -35 -84q-26 -30 -86 -41q-36 -6 -73 -6q-22 0 -51.5 3t-66.5 10q-26 4 -33 12q-4 4 -10 22q-17 47 -25.5 117t-8.5 150q0 116 1 181.5t3 82.5q1 18 23 21q19 3 97 2q40 -1 70 -1.5t52 -2.5q17 -1 27.5 -2t15.5 -3q24 -8 46 -28q19 -19 19 -57
q0 -16 -3 -24t-16 -11q-14 -5 -24 6q-3 3 0 19q4 24 -14.5 38t-49 17.5t-66.5 -3t-67.5 -24t-52.5 -45.5t-21 -66z" />
    <glyph glyph-name="afii10019" unicode="&#x412;" horiz-adv-x="419" 
d="M399 117q-4 -75 -49 -103q-29 -19 -90 -22q-133 -6 -206 6q-14 2 -17 6q-6 7 -7 30q-17 407 8 526q5 21 24 21q8 0 46.5 4t66.5 4q62 0 112 -18q43 -15 70.5 -56t27.5 -90q0 -65 -51 -112q-6 -6 -5 -9q4 -4 8 -9q10 -12 20 -23q19 -25 30 -56q14 -44 12 -99zM294 348
q35 32 35 92q0 64 -45 90q-51 29 -108 29q-49 0 -75.5 -21.5t-26.5 -74.5q0 -46 33 -82q53 -56 117 -56q47 0 70 23zM338 230q-17 24 -33 31q-26 13 -84 16q-82 3 -129 68q-8 11 -13 -2q-12 -32 -12 -104q0 -123 46 -155q41 -28 92 -28q52 0 102.5 26t50.5 88q0 33 -20 60z
" />
    <glyph glyph-name="afii10020" unicode="&#x413;" horiz-adv-x="411" 
d="M112 -2q0 -15 -64 -14q-12 0 -15 6q0 1 -2 17q-11 105 -11 172q0 149 21 288q14 93 54 107q61 22 121 22q126 0 176 -84q14 -23 15 -38q0 -17 -8 -17q-4 0 -8 11q-28 67 -123 67q-68 0 -121 -30q-87 -49 -87 -245q0 -106 22 -190q18 -43 28 -61q2 -9 2 -11z" />
    <glyph glyph-name="afii10021" unicode="&#x414;" horiz-adv-x="409" 
d="M239 -7q-125 -4 -188 5q-19 2 -19 36q0 6 -1 94q-1 99 -1 169q-1 238 4 269q5 27 27 27q97 0 137 -13q60 -20 112 -88q84 -112 84 -267q0 -108 -46 -181q-31 -49 -109 -51zM283 479q-58 82 -128 82q-14 0 -27 -4q-17 -6 -35 -38q-20 -36 -28 -88q-17 -122 -5 -243
q11 -106 64 -112q37 -4 59 -4q83 0 125 64q37 55 37 144q0 113 -62 199z" />
    <glyph glyph-name="afii10022" unicode="&#x415;" horiz-adv-x="382" 
d="M147 480q-45 -22 -70 -86q-2 -4 -2 -9q0 -29 20 -41q29 -18 57 -18q39 0 87 27q6 4 11 4q12 0 12 -16q0 -9 -6 -16q-38 -46 -100 -46q-29 0 -63 12q-5 2 -10 2q-26 0 -26 -32q0 -76 35 -143t80 -85q27 -10 52 -10q80 0 131 102q3 8 8 8q9 0 9 -22q0 -8 -3 -16
q-10 -27 -45 -60q-47 -45 -102 -48q-71 -3 -131 67q-57 66 -70 156q-6 44 -6 85q0 158 90 253q50 52 104 52q57 0 112 -58q9 -10 12 -14q6 -11 6 -28q1 -29 -23 -50q-14 -12 -18 -12q-6 0 -14 10q-33 41 -94 41q-24 0 -43 -9z" />
    <glyph glyph-name="afii10024" unicode="&#x416;" horiz-adv-x="782" 
d="M366 577q-1 4 2.5 7.5t8.5 4t9.5 -2t5.5 -9.5q7 -10 12.5 -28.5t11.5 -40t15 -44.5t25 -41q31 -33 69 -35q72 -2 112 82q22 45 22 107q0 14 6 19q1 1 14 3q7 1 17.5 0.5t24.5 -2.5q15 -2 17 -20q3 -36 3 -34q0 -104 -109 -174q-15 -11 -6 -18q37 -30 68 -82
q60 -98 60 -225q0 -10 -0.5 -19t-1.5 -19q-38 -24 -53 -24q-26 0 -46 14q-13 8 -2 33q18 43 18 102q0 45 -13 84q-30 96 -104 117q-101 30 -134 95q-5 8 -7 8q-4 0 -5 -10q-12 -86 -12 -206q0 -66 3 -142q1 -20 3 -27q7 -30 1 -43t-16 -12t-17.5 15t-1.5 37q1 7 3 27
q3 76 3 142q0 120 -12 206q-1 10 -5 10q-2 0 -7 -8q-33 -65 -134 -95q-74 -21 -104 -117q-13 -39 -13 -84q0 -59 18 -102q11 -25 -2 -33q-20 -14 -46 -14q-16 0 -53 24q-1 10 -1.5 19t-0.5 19q0 127 60 225q31 52 68 82q9 7 -6 18q-109 70 -109 174q0 -2 3 34q2 18 17 20
q14 2 24.5 2.5t17.5 -0.5q13 -2 14 -3q6 -5 6 -19q0 -62 22 -107q40 -84 112 -82q38 2 69 35q16 18 23.5 40t12 44t8.5 41t12 32z" />
    <glyph glyph-name="afii10025" unicode="&#x417;" horiz-adv-x="386" 
d="M321 343q29 -32 40.5 -69.5t8 -75t-20.5 -72.5t-44 -62t-63 -44.5t-77 -18.5q-27 -1 -55 12t-51 32.5t-38 41t-15 38.5q-1 22 8 22q5 0 8 -8q27 -51 61 -77.5t74 -24.5q26 1 51.5 16.5t46 40.5t33.5 56t13 63q1 45 -6 70t-18 35.5t-26 11t-31 -4t-31 -9.5t-27 -5
q-31 0 -56 14.5t-45 37.5q-6 7 -6 16q-1 8 2 9.5t9 1.5t11 -4q25 -14 46.5 -21.5t41.5 -9.5q30 -2 51.5 15.5t35 40.5t20 45.5t6.5 30.5q0 16 -6.5 25.5t-16.5 14.5t-21.5 6.5t-21.5 1.5q-42 0 -76.5 -10.5t-79.5 -30.5q-12 -5 -19 -5q-17 0 -17 15q0 7 7 22t18 31t23.5 28
t21.5 13q24 2 47 2h44q32 0 62.5 -0.5t55 -5.5t39.5 -15.5t16 -31.5q0 -14 -6.5 -31.5t-15.5 -37t-17 -39.5t-12 -38.5t-0.5 -33.5t18.5 -24z" />
    <glyph glyph-name="afii10026" unicode="&#x418;" horiz-adv-x="406" 
d="M338 4l14 78q13 77 13 143q0 83 -19 151q-28 95 -89 95q-17 0 -36 -9q-37 -18 -78.5 -83.5t-64.5 -140.5q-16 -54 -16 -107q0 -3 13 -122q2 -23 -5 -23q-10 0 -18.5 21.5t-19.5 83.5q-17 98 -15 200q5 210 53 289q7 12 11 13h1q11 0 3 -27l-22 -70q-20 -81 -20 -185
q0 -24 1 -49q2 -6 4 -6q3 0 5 6q11 34 22 69q28 72 64 126q50 75 113 105q48 23 72 23q15 0 25 -28q44 -123 44 -272q0 -140 -39 -287q-10 -9 -12 -9q-5 0 -4 15z" />
    <glyph glyph-name="afii10027" unicode="&#x419;" horiz-adv-x="406" 
d="M338 4q-1 -15 4 -15q2 0 12 9q39 147 39 287q0 149 -44 272q-10 28 -25 28q-24 0 -72 -23q-63 -30 -113 -105q-36 -54 -64 -126q-11 -35 -22 -69q-2 -6 -5 -6q-2 0 -4 6q-1 25 -1 49q0 104 20 185l22 70q8 27 -3 27h-1q-4 -1 -11 -13q-48 -79 -53 -289q-2 -102 15 -200
q11 -62 19.5 -83.5t18.5 -21.5q7 0 5 23q-13 119 -13 122q0 53 16 107q23 75 64.5 140.5t78.5 83.5q19 9 36 9q61 0 89 -95q19 -68 19 -151q0 -66 -13 -143zM198 633q14 0 32 10.5t31 30.5q19 31 25 31q8 0 14 -9.5t6 -17.5q0 -21 -41 -44q-20 -11 -36.5 -13.5t-30.5 -2.5
q-12 2 -28.5 4.5t-36.5 13.5q-41 23 -41 44q0 8 6 17.5t14 9.5q6 0 25 -31q13 -20 30 -31.5t31 -11.5z" />
    <glyph glyph-name="afii10028" unicode="&#x41a;" horiz-adv-x="432" 
d="M42 587q24 4 44 -3q3 -1 1 -17q-9 -58 -5 -86q5 -35 32 -66q31 -34 69 -35q71 -2 112 82q22 47 22 107q0 15 6 19q2 1 14 3q13 2 42 -2q15 -2 17 -20q3 -36 3 -34q0 -104 -109 -174q-15 -10 -6 -18q36 -28 68 -82q60 -98 60 -225q0 -19 -2 -38q-38 -24 -53 -24
q-26 0 -46 14q-13 9 -2 33q18 44 18 102q0 43 -13 84q-30 96 -104 117q-101 30 -134 95q-4 8 -7 8q-4 0 -5 -10q-12 -86 -12 -206q0 -65 3 -142q1 -19 3 -27q3 -12 15 -25q8 -9 8 -17q0 -17 -17 -12q-30 9 -34 46q-4 34 -3 209q0 202 8 324q0 14 1 16.5t6 3.5z" />
    <glyph glyph-name="afii10029" unicode="&#x41b;" horiz-adv-x="403" 
d="M323 1q-9 -9 -18 -9q-5 0 -5 5q0 8 13 23q48 57 51 180q4 146 -121 259q-25 22 -34 22q-6 0 -17 -4q-51 -18 -98 -92t-52 -152q-1 -28 -1 -53q0 -129 31 -168q7 -8 6 -20q-1 -13 -19 1q-49 39 -44 241q4 156 71 264q45 74 100 104q16 8 24 8t19 -8q73 -56 115 -151
q46 -104 44 -236q-1 -102 -29 -162q-12 -27 -36 -52z" />
    <glyph glyph-name="afii10030" unicode="&#x41c;" horiz-adv-x="497" 
d="M480 307q2 -17 2 -35q0 -92 -29 -182q-20 -49 -39 -98q-9 -23 -19 -23q-7 0 -7 13q0 8 3 18q18 60 18 126q0 88 -31 177q-26 73 -55 109q-21 27 -64 55q-26 17 -52 17q-56 0 -104 -78q-35 -58 -50 -125q-7 -31 -7 -75q0 -123 49 -198q3 -5 3 -8q0 -11 -12 -11q-6 0 -8 4
q-12 19 -23 38q-17 32 -27 74q-13 57 -13 136q0 25 1 52q6 125 54 211q30 55 68 84q15 11 37 2q34 -18 35 -18q11 -8 38 -37q3 -4 9 -2q2 2 5 4q35 31 81 51q18 8 29 -2q37 -35 56 -68q45 -80 52 -211zM440 165q8 56 8 105q0 140 -63 200q-14 13 -22 13q-7 0 -14 -6.5
t-7 -13.5q0 -3 13 -29q62 -122 76 -271q1 -6 4 -6q4 0 5 8z" />
    <glyph glyph-name="afii10031" unicode="&#x41d;" horiz-adv-x="432" 
d="M20 273q0 86 13 178q21 149 67 149q15 0 15 -12q0 -6 -12 -39t-12 -55q0 -52 37 -102q41 -53 92 -53q49 0 88 43q36 42 36 91q0 27 -12.5 67.5t-12.5 47.5q0 11 22 11q16 0 24 -19q47 -111 47 -311q0 -64 -10 -140q-13 -91 -33 -137q-8 -17 -15 -17q-6 0 -6 14q0 28 9 98
t9 107q0 145 -25 145q-85 -34 -121 -34q-33 0 -73 14t-50 14q-40 0 -40 -135q0 -59 9 -132l6 -30q4 -20 4 -31q0 -18 -10 -18q-4 0 -7 9q-39 114 -39 277z" />
    <glyph glyph-name="afii10032" unicode="&#x41e;" horiz-adv-x="399" 
d="M376 217q-22 -139 -96 -202q-33 -29 -79 -29q-68 0 -110 46q-71 78 -71 246q0 79 20 141q25 77 83 134q35 35 81 35q49 0 93 -46q82 -83 82 -271q0 -33 -3 -54zM290 98q39 61 39 169q0 105 -44 161t-92 56q-52 0 -95 -57q-53 -69 -53 -183q0 -82 39 -151q36 -65 90 -65
q35 0 72 26q30 21 44 44z" />
    <glyph glyph-name="afii10033" unicode="&#x41f;" horiz-adv-x="415" 
d="M63 181q0 -52 5.5 -93t22.5 -72q2 -6 2 -9q0 -7 -6.5 -12t-15 -8.5t-16.5 -5t-11 -1.5q-5 0 -6.5 1.5t-2.5 18.5q-3 35 -4 112.5t-1 199.5q0 92 -0.5 147t1.5 85t7.5 40.5t18.5 12.5q6 1 21 1.5t38 0.5q70 0 118 0.5t78 -1.5t46 -7t23.5 -15t8.5 -27.5t2 -43.5
q1 -24 1.5 -69.5t0 -100t-1 -111t-1.5 -103.5t-2 -77.5t-1 -31.5q-3 -19 -17 -19q-9 0 -9 19q-3 69 -5.5 127t-5 114.5t-4.5 116.5t-5 134q0 46 -98 46q-40 0 -72.5 -10.5t-56 -29.5t-36 -44t-12.5 -54z" />
    <glyph glyph-name="afii10034" unicode="&#x420;" horiz-adv-x="430" 
d="M413 457q5 -18 5 -38q0 -78 -50 -135q-44 -51 -108 -51q-23 0 -47 7q-42 11 -110 65q-5 4 -9 4q-13 0 -22 -33q-12 -47 -12 -111q0 -77 19 -165q1 -7 1 -12q0 -13 -8 -13q-27 0 -39 143q-8 88 -8 171q0 159 33 252q6 18 10 22q8 7 33 12q74 13 118 13q37 0 73 -6
q59 -10 86 -41q21 -25 35 -84zM309 509q-39 32 -91 32q-22 0 -49 -5q-75 -13 -84 -60q-5 -28 -5 -43q0 -55 34.5 -95t89.5 -40q66 0 105 46q32 36 32 85q0 54 -32 80z" />
    <glyph glyph-name="afii10035" unicode="&#x421;" horiz-adv-x="401" 
d="M15 276q0 115 41 208q53 120 152 120q107 0 167 -90q5 -8 5 -19q0 -27 -25 -59t-31 -25q-5 7 -15 22q-27 37 -46 51q-26 18 -64 18q-50 0 -91 -53q-34 -45 -44 -99t-10 -100q0 -140 92 -207q42 -31 82 -31q39 0 76 28q24 17 51 51q23 28 26 28q10 0 10 -12q0 -10 -6 -23
q-20 -43 -69 -71.5t-99 -28.5q-43 0 -85 27q-117 77 -117 265z" />
    <glyph glyph-name="afii10036" unicode="&#x422;" horiz-adv-x="488" 
d="M23 526q28 27 73 48q67 31 144 31q79 0 149 -31q49 -22 76 -48q17 -17 9 -29q-4 -10 -22 -28q-5 -4 -9 -4t-27 23q-28 27 -67 55q-46 32 -64 32q-11 0 -13 -17q-1 -13 -1 -25q-6 -89 0 -268l9 -262q1 -15 -6 -17.5t-14 -3.5q-20 -7 -59 4q-11 3 -9 30q8 157 14 240
q5 123 11 257q5 61 -11 61q-18 0 -68 -40q-44 -35 -59 -54q-18 -24 -26 -24q-4 0 -10 2q-9 3 -17 17q-6 11 -13 22q-7 12 10 29z" />
    <glyph glyph-name="afii10037" unicode="&#x423;" horiz-adv-x="403" 
d="M104 597q40 0 40 -24q0 -17 -12 -77.5t-12 -89.5q0 -46 41 -85.5t91 -39.5q30 0 45 52q13 39 13 76q0 66 -37 135q-4 9 -4 12q0 14 28 28t45 14q20 0 30 -62q6 -39 6 -76q0 -152 -78 -276q-84 -136 -227 -185q-5 -2 -10 -2q-9 0 -28.5 22.5t-19.5 32.5q0 4 9 6
q102 35 115 41q54 26 90 79q20 31 20 36q0 6 -31 25q-19 11 -40 23q-58 43 -95.5 110.5t-37.5 135.5q0 43 8 61q13 28 51 28z" />
    <glyph glyph-name="afii10038" unicode="&#x424;" horiz-adv-x="550" 
d="M248 314q-13 47 -40.5 66t-64.5 19q-23 0 -39.5 -9.5t-30.5 -27.5q-23 -32 -23 -72q0 -38 20 -70q25 -40 69 -38q31 1 47 31q15 30 24 30q7 0 13 -7t6 -13q0 -27 -23 -53q-11 -14 -23.5 -20t-26.5 -6q-69 0 -111 62q-37 52 -37 117q0 70 38 120q44 59 117 59q11 0 25 -4
t26 -10.5t20.5 -16t8.5 -20.5q-2 18 -3 45t-4 81q-1 18 7.5 22.5t27.5 3.5q18 0 28.5 -5.5t10.5 -23.5q0 -22 -3 -122q0 11 8.5 20.5t20.5 16t26 10.5t25 4q73 0 117 -59q38 -50 38 -120q0 -65 -37 -117q-42 -62 -111 -62q-14 0 -26.5 6t-23.5 20q-23 26 -23 53q0 6 6 13
t13 7q9 0 24 -30q16 -30 47 -31q44 -2 69 38q20 32 20 70q0 40 -23 72q-14 18 -30.5 27.5t-39.5 9.5q-72 0 -99 -69q-12 -27 -12 -177q2 -140 0 -151q-1 -19 -16 -19q-9 0 -10 19q-5 88 -11 165.5t-11 145.5z" />
    <glyph glyph-name="afii10039" unicode="&#x425;" horiz-adv-x="412" 
d="M63 546q-1 27 1 32q4 10 24 13q16 3 20 -19q2 -49 5 -98q14 -87 74 -112q2 -4 12 1q72 34 97 84q12 23 12 50q0 33 -16 60q-9 17 2 27q6 6 22 4q17 -1 27 -12q20 -20 20 -64q0 -17 -3 -30q-26 -106 -122 -146q-2 -1 9 -5q28 -12 64 -45q58 -51 73 -110q13 -51 13 -87
q0 -38 -17 -87q-8 -24 -12 -27t-19 -2q-22 1 -58 38q-12 12 -12 21q0 6 10 29q19 44 19 97q0 45 -19.5 76.5t-48.5 57.5q-17 13 -34 27q-6 5 -19 -2q-65 -33 -97 -120q-6 -17 -6 -40q0 -36 13 -71q6 -17 5 -21q-3 -8 -7 -15q-7 -14 -23 -33q-19 -23 -31 -23q-5 0 -12 13
q-19 37 -19 83q0 43 18 88q39 101 118 157q10 7 10 10q0 4 -8 9q-18 10 -43 51q-37 62 -42 141z" />
    <glyph glyph-name="afii10040" unicode="&#x426;" horiz-adv-x="481" 
d="M392 79q4 -22 9.5 -31.5t14.5 -19.5q50 0 50 -29q0 -9 -6.5 -20.5t-14 -23.5t-13.5 -23.5t-6 -19.5t3 -19.5t3 -17.5q0 -7 -4 -7t-8 6t-7.5 14t-5.5 15.5t-2 11.5q0 7 5 26t4 33q-1 10 -25.5 13.5t-61.5 3.5t-81 -2t-83 -4t-68.5 -2t-37.5 4q-12 6 -17.5 16.5t-7.5 39.5
t-2 83v146q0 122 1 199.5t4 112.5q1 17 2.5 18.5t6.5 1.5q3 0 11 -1.5t16.5 -5t15 -8.5t6.5 -12q0 -3 -2 -9q-17 -31 -22.5 -72t-5.5 -93l4 -231q0 -29 12.5 -54t36 -44t56 -29.5t72.5 -10.5q98 0 98 46q3 74 5 134t4.5 116.5t5 114.5t5.5 127q0 19 9 19q14 0 17 -19
q0 -1 1 -31.5t2 -77.5t1.5 -103.5t1 -111t0 -100t-1.5 -69.5z" />
    <glyph glyph-name="afii10041" unicode="&#x427;" horiz-adv-x="335" 
d="M248 246q-3 10 -15 15.5t-30.5 10t-40.5 10t-43.5 16.5t-40.5 29t-32 48q-15 35 -23.5 72t-8.5 71q0 42 8 61q13 28 51 28q40 0 40 -24q0 -17 -12 -78q-12 -60 -12 -89q0 -23 12.5 -47.5t30.5 -34.5q42 -24 66.5 -19t36.5 27.5t14.5 56.5t0.5 68.5t-6 64t-5 42.5
q-1 18 7.5 22.5t27.5 3.5q18 0 28.5 -5.5t10.5 -23.5q0 -13 -1.5 -85.5t-5.5 -207.5q-3 -134 -4.5 -203.5t-2.5 -74.5q-1 -19 -16 -19q-9 0 -10 19q-2 32 -4.5 60t-5 55.5t-5 56t-4.5 61.5z" />
    <glyph glyph-name="afii10042" unicode="&#x428;" horiz-adv-x="741" 
d="M624 -9q-10 -1 -43 -2.5t-80 -2.5t-102 -1.5t-108 -1t-99.5 -1t-75.5 -0.5q-23 0 -38 0.5t-21 1.5q-13 2 -18.5 12t-7.5 40t-1.5 85.5t0.5 147.5q0 122 1 199.5t4 112.5q1 17 2.5 18.5t6.5 1.5q3 0 11 -1.5t16.5 -5t15 -8.5t6.5 -12q0 -3 -2 -9q-17 -31 -22.5 -72
t-5.5 -93l4 -231q0 -29 12.5 -54t36 -44t56 -29.5t72.5 -10.5q49 0 70 11.5t21 34.5v192q1 24 2.5 62.5t3.5 81t3.5 83.5t2.5 71q0 19 9 19q14 0 17 -19q0 -1 0.5 -19t1 -47t1.5 -67t2 -79l2 -186q0 -29 12.5 -54t36 -44t56 -29.5t72.5 -10.5q98 0 98 46q3 84 5.5 150
t5.5 130q2 49 4.5 100.5t4.5 111.5q0 19 9 19q14 0 17 -19q0 -1 1 -31t2.5 -74t3 -94.5t2.5 -91.5q0 -92 0.5 -147.5t-1.5 -85.5t-7.5 -40t-18.5 -12q-6 -1 -21 -1.5t-38 -0.5z" />
    <glyph glyph-name="afii10043" unicode="&#x429;" horiz-adv-x="790" 
d="M335 269q1 24 2.5 62.5t3.5 81t3.5 83.5t2.5 71q0 19 9 19q14 0 17 -19q0 -1 0.5 -19t1 -47t1.5 -67t2 -79l2 -186q0 -29 12.5 -54t36 -44t56 -29.5t72.5 -10.5q98 0 98 46q3 84 5.5 150t5.5 130q2 49 4.5 100.5t4.5 111.5q0 19 9 19q14 0 17 -19q0 -1 0.5 -19t1 -47
t1.5 -67t2 -79q1 -42 1 -84v-79.5t-0.5 -68.5t-1.5 -49q4 -22 9.5 -31.5t14.5 -19.5q50 0 50 -29q0 -9 -6.5 -20.5t-14 -23.5t-13.5 -23.5t-6 -19.5t3 -19.5t3 -17.5q0 -7 -4 -7t-8 6t-7.5 14t-5.5 15.5t-2 11.5q0 7 4.5 23t4.5 30q0 10 -15.5 15.5t-41 7.5t-57.5 1.5
t-65 -2.5t-64.5 -3.5t-54.5 -1.5t-38 0.5t-21 1.5q-14 -2 -39.5 -2.5t-58.5 -0.5t-73 0.5t-83 0.5q-23 0 -38 0.5t-21 1.5q-13 2 -18.5 12t-7.5 40t-1.5 85.5t0.5 147.5q0 122 1 199.5t4 112.5q1 17 2.5 18.5t6.5 1.5q3 0 11 -1.5t16.5 -5t15 -8.5t6.5 -12q0 -3 -2 -9
q-17 -31 -22.5 -72t-5.5 -93l4 -231q0 -29 12.5 -54t36 -44t56 -29.5t72.5 -10.5q49 0 70 11.5t21 34.5v192v0z" />
    <glyph glyph-name="afii10044" unicode="&#x42a;" horiz-adv-x="584" 
d="M450 77q32 26 32 80q0 28 -10.5 52t-29.5 41.5t-44 27.5t-53 10t-51 -11t-39 -29.5t-25 -43t-9 -51.5q0 -21 5 -40.5t20 -34.5t42 -24t71 -9q51 0 91 32zM232 525q0 -13 -2.5 -36.5t-5 -51t-4.5 -56t-1.5 -51.5t4 -38t12.5 -15q5 0 9 4q27 22 49 36t41 22t35 11t32 3
q34 0 63 -16t50 -42t33 -59.5t12 -68.5q0 -18 -5 -38q-9 -41 -24.5 -66.5t-39 -39.5t-55.5 -19.5t-75 -5.5q-22 0 -51.5 3t-66.5 10q-23 4 -33 9t-17 25q-33 92 -31 252q0 42 6 75.5t13 61t13 50.5t6 45q-2 37 -28.5 34t-58.5 -44q-17 -23 -38 -30t-41 -5q-15 2 -27.5 19.5
t-8.5 39.5q13 52 36 49q13 -2 23 -21q10 -17 23 -19q9 -1 38 25q28 25 65 21q56 -6 50 -73z" />
    <glyph glyph-name="afii10045" unicode="&#x42b;" horiz-adv-x="536" 
d="M401 129q-14 -59 -35 -84q-27 -31 -86 -41q-36 -6 -73 -6q-44 0 -118 13q-25 5 -33 12q-4 4 -10 22q-33 93 -33 252q0 83 8 171q12 143 39 143q8 0 8 -13q0 -5 -1 -12q-19 -88 -19 -165q0 -64 12 -111q9 -33 22 -33q4 0 9 4q68 54 110 65q24 7 47 7q64 0 108 -51
q50 -57 50 -135q0 -20 -5 -38zM297 77q32 26 32 80q0 49 -32 85q-39 46 -105 46q-55 0 -89.5 -40t-34.5 -95q0 -15 5 -43q9 -47 84 -60q27 -5 49 -5q52 0 91 32zM437 575q-1 18 7.5 22.5t27.5 3.5q18 0 28.5 -5.5t10.5 -23.5q0 -25 -6.5 -292.5t-7.5 -278.5q-2 -19 -16 -19
q-9 0 -10 19q-17 278 -34 574z" />
    <glyph glyph-name="afii10046" unicode="&#x42c;" horiz-adv-x="427" 
d="M401 129q-14 -59 -35 -84q-27 -31 -86 -41q-36 -6 -73 -6q-44 0 -118 13q-25 5 -33 12q-4 4 -10 22q-33 93 -33 252q0 83 8 171q12 143 39 143q8 0 8 -13q0 -5 -1 -12q-19 -88 -19 -165q0 -64 12 -111q9 -33 22 -33q4 0 9 4q68 54 110 65q24 7 47 7q64 0 108 -51
q50 -57 50 -135q0 -20 -5 -38zM297 77q32 26 32 80q0 49 -32 85q-39 46 -105 46q-55 0 -89.5 -40t-34.5 -95q0 -15 5 -43q9 -47 84 -60q27 -5 49 -5q52 0 91 32z" />
    <glyph glyph-name="afii10047" unicode="&#x42d;" horiz-adv-x="382" 
d="M235 480q-20 9 -43 9q-61 0 -94 -41q-7 -10 -14 -10q-5 0 -18 12q-25 21 -23 50q0 17 6 28q2 2 4.5 5.5t7.5 8.5q55 58 112 58q55 0 104 -52q90 -95 90 -253q0 -42 -6 -85q-14 -91 -70 -156q-60 -70 -131 -67q-56 3 -102 48q-35 33 -45 60q-3 7 -3 16q0 22 9 22q5 0 8 -8
q51 -102 131 -102q26 0 52 10q46 18 80 85q35 68 35 143q0 32 -26 32q-4 0 -10 -2q-35 -12 -63 -12q-63 0 -100 46q-6 7 -6 16q0 16 12 16q6 0 11 -4q48 -27 87 -27q28 0 57 18q20 12 20 41q0 3 -2 9q-25 64 -70 86z" />
    <glyph glyph-name="afii10048" unicode="&#x42e;" horiz-adv-x="589" 
d="M573 219q-22 -139 -96 -202q-34 -29 -79 -29q-68 0 -110 46q-71 79 -71 246v25q-32 1 -70 14q-42 14 -50 14q-40 0 -40 -135q0 -59 9 -132l6 -30q2 -10 3 -18t1 -13q0 -18 -10 -18q-4 0 -7 9q-39 114 -39 277q0 43 3 87.5t10 90.5q21 149 67 149q15 0 15 -12
q0 -6 -12 -39t-12 -55q0 -25 6.5 -53.5t21.5 -52.5t39.5 -39.5t60.5 -14.5q4 46 18 87q26 79 83 134q35 35 81 35q50 0 93 -46q82 -82 82 -271q0 -33 -3 -54zM487 100q39 61 39 169q0 105 -44 161t-92 56q-52 0 -95 -57q-53 -70 -53 -183q0 -82 39 -151q36 -65 90 -65
q34 0 72 26q30 21 44 44z" />
    <glyph glyph-name="afii10049" unicode="&#x42f;" horiz-adv-x="428" 
d="M16 430q4 132 120 153q60 10 106 10q114 0 127 -54q25 -109 25 -275q0 -80 -13 -266q-1 -16 -18 -16q-16 0 -11 27q15 82 15 163q0 76 -11 122q-6 27 -21 27q-8 0 -21 -7q-70 -36 -89 -49q-76 -52 -104 -116q-24 -54 -16 -122q5 -38 -13 -38q-6 0 -24 -2q-15 -1 -21 0
q-23 3 -26 27q-8 73 17.5 123.5t59.5 86.5q14 16 36 33l7 5q1 1 -1.5 2t-5.5 1q-68 19 -98 78q-21 41 -20 87zM124 358q37 -32 95 -32q62 0 103 51q21 26 21 67q0 34 -15 63.5t-40 40.5q-17 7 -44 7q-66 0 -116 -39q-33 -26 -33 -79t29 -79z" />
    <glyph glyph-name="afii10065" unicode="&#x430;" horiz-adv-x="277" 
d="M267 -14q0 -5 -7.5 -12t-12.5 -7q-5 3 -23 27q-13 19 -21 19q-53 -22 -80 -22q-57 0 -87 53q-24 43 -24 104q0 67 27 113q33 57 95 57q27 0 65 -21l2 12q1 3 11 3q30 0 30 -14q0 -9 -3 -36.5t-3 -41.5q0 -72 8 -156q1 -13 12 -43t11 -35zM193 117q0 37 -15 67
q-19 37 -53 37q-35 0 -55 -32q-16 -26 -16 -63q0 -40 19 -72q22 -37 60 -37q60 0 60 100z" />
    <glyph glyph-name="afii10066" unicode="&#x431;" horiz-adv-x="272" 
d="M56 341q-2 -16 0 -27t11 -14q31 27 68 27q62 0 97 -56q28 -46 28 -114q0 -63 -29 -110q-35 -56 -94 -56q-53 0 -77 23t-32.5 60t-7 84t0.5 95v140t2 67q2 14 16 15q6 2 27 2h49q53 -1 86 -3q11 -1 18.5 -2t11.5 -2q8 -3 16 -7.5t16 -12.5q14 -16 14 -42q0 -11 -2.5 -17
t-11.5 -8q-10 -3 -17 4q-1 3 0 14q3 17 -10 27.5t-34 13t-46.5 -2.5t-47.5 -17.5t-37 -32.5t-15 -48zM141 242q-18 0 -32.5 -8.5t-25 -22.5t-16 -32t-5.5 -36q0 -40 17 -74q21 -41 58 -41q43 0 65 31q21 28 21 70q0 39 -22 73q-25 40 -60 40z" />
    <glyph glyph-name="afii10067" unicode="&#x432;" horiz-adv-x="278" 
d="M262 67q-1 -26 -11 -40.5t-29.5 -21.5t-49 -8.5t-69.5 -1.5q-24 0 -40 0.5t-25.5 3t-14 8t-5.5 16.5q-2 48 -3 83t-1 70q0 34 0.5 64t3 52.5t8 35.5t14.5 13q1 0 8.5 1t18 1.5t22 1.5t19.5 1q29 0 54.5 -6t44 -18t29.5 -30.5t11 -44.5q0 -39 -34 -67l-4 -4q0 -2 6 -8
l13.5 -13.5t15 -16.5t10.5 -16q8 -20 8 -45v-10zM169 205q11 10 16 24.5t5 30.5q0 18 -7 28.5t-18 15.5t-26 6t-31 1q-32 0 -46 -7t-14 -39q0 -38 23 -56t53 -18q16 0 26.5 3.5t18.5 10.5zM216 130q-13 17 -28.5 21.5t-49.5 6.5q-27 1 -45 6t-34 25q-2 3 -4 3
q-5 0 -8.5 -18.5t-3.5 -43.5q0 -29 4.5 -44t15 -22.5t26.5 -8.5t39 -1q17 0 34 1t31 6.5t23 16t9 29.5q0 10 -1 12.5t-8 10.5z" />
    <glyph glyph-name="afii10068" unicode="&#x433;" horiz-adv-x="224" 
d="M141 340q75 0 75 -51q0 -37 -11.5 -46t-31.5 -9q-10 0 -14 2.5t-5.5 6.5t-1 7.5t0.5 5.5q0 14 -12 27t-27 13q-14 0 -25 -10.5t-19.5 -29t-13 -43t-4.5 -52.5q0 -12 3.5 -39t8 -55.5t8.5 -49.5l4 -21q0 -5 -5 -6.5t-13 -1.5h-13q-9 0 -12 -1q-13 0 -14 4q1 -1 1 16v39.5
t-0.5 56t-1 63.5t-1 63.5t-0.5 56v39.5q0 10 11 10q1 0 16.5 1t34.5 2t37 1.5t25 0.5z" />
    <glyph glyph-name="afii10069" unicode="&#x434;" horiz-adv-x="270" 
d="M250 -73q0 -32 -42 -38q-9 -2 -67 -2q-111 0 -111 29q0 8 6 22t11 14q2 0 24.5 -18.5t49.5 -18.5q54 0 76 29q19 26 19 82q0 20 -2 38q-2 0 -13 -16q-13 -20 -31 -41t-68 -21q-49 0 -73 66q-17 47 -17 109q0 60 28 111q33 61 89 61q32 0 77 -39q1 0 3 -1q1 0 13.5 18.5
t25.5 18.5q7 0 7 -10q0 -4 -3 -15q-4 -17 -4 -135q0 -40 1 -121.5t1 -121.5zM52 106q0 -32 17 -60.5t41 -28.5q16 0 33 14q36 30 49 64q12 30 12 81q0 22 -18 42t-40 20q-50 0 -74 -44q-20 -35 -20 -88z" />
    <glyph glyph-name="afii10070" unicode="&#x435;" horiz-adv-x="259" 
d="M249 189q0 -60 -71 -60q-13 0 -38.5 4.5t-38.5 4.5q-37 0 -37 -52q0 -66 60 -66q34 0 54 17q12 10 25 33q9 17 16 17q13 0 13 -12q0 -40 -40 -68q-36 -25 -77 -25q-103 0 -103 189q0 161 123 161q51 0 84 -47q30 -42 30 -96zM137 255q-22 0 -44 -19.5t-22 -39.5
q0 -22 39 -33q28 -9 57 -9q15 0 28.5 13.5t13.5 28.5q0 23 -25 42q-22 16 -47 17z" />
    <glyph glyph-name="afii10072" unicode="&#x436;" horiz-adv-x="483" 
d="M220 157q-5 -1 -16 -0.5t-19 1.5q-5 2 -9 3.5t-9 3.5q-8 -10 -14 -23.5t-11 -30.5q-4 -20 -11.5 -46t-19.5 -47q-14 -25 -27.5 -35t-33.5 -10q-8 0 -16.5 4.5t-15 12t-10.5 16.5t-4 18q0 14 8 14q2 0 7 -2t7 -2q33 0 54 42q8 16 13 30t10.5 26t13.5 24t22 24
q-38 22 -59 53t-21 62q0 21 6 30q5 7 22 10t31 3q29 0 29 -12q0 -7 -9 -37q-9 -27 -9 -43v-21t16 -19q14 -9 35.5 -14t37.5 -5q-5 46 -8 80.5t-3 51.5q0 13 43 13q14 0 14 -11q0 -20 -1 -53.5t-3 -81.5q16 0 37.5 5t35.5 14q16 9 16 19.5v21.5q0 15 -9 42q-9 30 -9 37
q0 12 29 12q14 0 31 -3t22 -10q6 -8 6 -30q0 -31 -21 -61.5t-59 -53.5q14 -12 22 -24t13.5 -24t10.5 -26t13 -30q21 -42 54 -42q2 0 7 2t7 2q8 0 8 -14q0 -9 -4 -18t-10.5 -16.5t-15 -12t-16.5 -4.5q-20 0 -33.5 10t-27.5 35q-12 21 -19.5 47t-11.5 46q-5 17 -11 30.5
t-14 23.5q-5 -2 -9 -3.5t-9 -3.5q-8 -1 -19 -1.5t-16 0.5q-2 -47 -2 -75v-48q0 -40 -24 -56q-5 -3 -8 -3q-8 0 -15 7.5t-7 15.5q0 2 11 26q12 22 12 43v16t-0.5 16t-1.5 22.5t-3 36.5z" />
    <glyph glyph-name="afii10073" unicode="&#x437;" horiz-adv-x="264" 
d="M223 184q30 -29 31.5 -63.5t-16.5 -64.5t-51.5 -51t-74.5 -22q-18 -1 -36.5 7t-34 19t-25.5 24t-10 23q-1 6 3 11t7 5q4 0 5 -4q18 -30 38.5 -45.5t47.5 -14.5q17 1 34 9.5t30.5 22t22.5 31t9 36.5q1 40 -9 54t-24.5 15t-31 -5t-28.5 -6q-20 0 -37 8t-31 22q-4 6 -4 10
q0 5 1.5 5.5t6.5 0.5q4 0 7 -2q33 -16 59 -18q20 -2 33.5 6.5t21.5 20t11.5 22.5t3.5 16q-1 19 -16 23.5t-29 4.5q-28 0 -51 -6t-53 -18q-8 -3 -13 -3q-11 0 -11 9q0 4 5.5 16.5t14 26t18 24t15.5 10.5q16 1 31.5 1h29.5h41.5t37 -3t26.5 -9.5t10 -18.5t-8 -30.5
t-14.5 -37.5t-7 -36t14.5 -25z" />
    <glyph glyph-name="afii10074" unicode="&#x438;" horiz-adv-x="290" 
d="M237 101q1 34 -1.5 63t-10 51t-20 34.5t-30.5 12.5q-24 0 -46 -26t-38 -65t-23.5 -84t-2.5 -83v-5q0 -9 -4 -9q-5 0 -14 9.5t-18 28t-16 47t-7 66.5q0 35 4.5 70.5t11.5 64.5t16 47.5t17 18.5q1 0 5.5 -0.5l9 -1t8 -2t3.5 -3.5t-2 -10q-7 -20 -13.5 -38.5t-11.5 -37
t-8 -38.5t-3 -44v-9v-12t1 -10t3 -4t3 4q37 103 84.5 152t92.5 49q4 0 13 -10t17 -30t14.5 -49t6.5 -67q0 -35 -4 -69t-10.5 -61t-14.5 -44t-16 -17q-1 0 -5 0.5t-8.5 1t-8 2t-3.5 3.5t2 10q9 28 16 47t11 47z" />
    <glyph glyph-name="afii10075" unicode="&#x439;" horiz-adv-x="290" 
d="M237 101q1 34 -1.5 63t-10 51t-20 34.5t-30.5 12.5q-24 0 -46 -26t-38 -65t-23.5 -84t-2.5 -83v-5q0 -9 -4 -9q-5 0 -14 9.5t-18 28t-16 47t-7 66.5q0 35 4.5 70.5t11.5 64.5t16 47.5t17 18.5q1 0 5.5 -0.5l9 -1t8 -2t3.5 -3.5t-2 -10q-7 -20 -13.5 -38.5t-11.5 -37
t-8 -38.5t-3 -44v-9v-12t1 -10t3 -4t3 4q37 103 84.5 152t92.5 49q4 0 13 -10t17 -30t14.5 -49t6.5 -67q0 -35 -4 -69t-10.5 -61t-14.5 -44t-16 -17q-1 0 -5 0.5t-8.5 1t-8 2t-3.5 3.5t2 10q9 28 16 47t11 47z" />
    <glyph glyph-name="afii10076" unicode="&#x43a;" horiz-adv-x="287" 
d="M153 115q-5 16 -11 29.5t-14 22.5q-5 -2 -9 -3.5t-9 -3.5q-8 -1 -20 -1.5t-17 0.5q-2 -46 -2 -73.5v-46.5q0 -40 -24 -55q-5 -3 -8 -3q-8 0 -15 7.5t-7 15.5q0 1 11 25q12 22 12 43q0 34 -9 124t-9 124q0 12 43 12q14 0 14 -10q0 -20 -1 -52.5t-3 -80.5q17 0 39 5t36 13
q16 10 16 19.5v20.5q0 15 -9 42q-9 28 -9 37q0 11 30 11q14 0 31.5 -3t22.5 -9q6 -9 6 -30q0 -30 -21.5 -60.5t-60.5 -52.5q15 -12 23 -23.5t13.5 -23.5t10.5 -25.5t13 -29.5q23 -41 56 -41q2 0 7 2t7 2q8 0 8 -14q0 -8 -4 -17t-11 -16.5t-15 -12t-17 -4.5q-21 0 -34.5 9.5
t-27.5 34.5q-13 21 -20.5 46.5t-11.5 45.5z" />
    <glyph glyph-name="afii10077" unicode="&#x43b;" horiz-adv-x="319" 
d="M163 303q-102 -56 -102 -142q0 -37 17 -73q21 -43 55 -43q2 0 7 2t7 2q8 0 8 -15q0 -17 -15 -34.5t-32 -17.5q-41 0 -70 51q-25 44 -25 89q0 63 34.5 118t90.5 86q22 12 27 12q6 0 16 -7q57 -48 91 -117.5t34 -142.5q0 -17 -4 -42q-6 -33 -15 -33q-3 0 -29.5 34t-26.5 40
t6.5 24.5t6.5 28.5q0 63 -17 100t-64 80z" />
    <glyph glyph-name="afii10078" unicode="&#x43c;" horiz-adv-x="409" 
d="M269 331q50 -37 89 -103.5t39 -124.5q0 -22 -11 -54q-14 -38 -29 -38t-34.5 11.5t-19.5 18.5t17.5 46.5t17.5 74.5q0 79 -75 146q-37 -49 -47 -115q-3 -17 -4 -61q0 -41 -5 -59q-2 -11 -16 -11q-43 0 -71 76q-22 61 -22 116q0 32 1 30q-19 -12 -32 -49q-11 -33 -11 -59
q0 -82 60 -126q11 -8 11 -23q0 -9 -15 -27t-24 -18q-4 0 -6 2q-72 59 -72 145q0 53 31 116.5t72 90.5q8 5 9 5q24 0 24 -10t-6 -29.5t-6 -31.5q0 -17 12 -55q14 -42 27 -46q2 4 2 7q2 30 28 80q22 44 45 73q9 11 21 2z" />
    <glyph glyph-name="afii10079" unicode="&#x43d;" horiz-adv-x="290" 
d="M10 157q0 37 4 70.5t11 58.5t17 39.5t22 14.5q10 0 10 -7q0 -3 -5 -16.5t-5 -26.5q0 -54 23.5 -73.5t56.5 -19.5q42 0 58.5 23.5t16.5 62.5q0 6 -2.5 14.5t-5 16t-5 13t-2.5 6.5q0 3 9 4.5t17 1.5q11 0 19.5 -18t14 -45.5t8.5 -60t3 -60.5q0 -23 -3.5 -50.5t-9.5 -51.5
t-13.5 -40.5t-14.5 -16.5q-2 0 -6.5 1.5t-4.5 5.5q0 12 3 39.5t4.5 56.5t-1 53t-13.5 29q-27 -21 -50 -25.5t-41.5 -0.5t-33 11.5t-24.5 10.5q-11 3 -15.5 -15.5t-5 -45t2.5 -53t6 -38.5q1 -5 1.5 -9.5t0.5 -7.5q0 -5 -6 -7.5t-9 -2.5q-8 0 -14 18.5t-10 44.5t-6 52.5
t-2 43.5z" />
    <glyph glyph-name="afii10080" unicode="&#x43e;" horiz-adv-x="295" 
d="M140 -16q-55 0 -89 54q-31 47 -31 105q0 66 30 123q37 68 98 68q59 0 95 -59q32 -52 32 -113q0 -65 -34 -118q-39 -60 -101 -60zM234 130q0 41 -22 72q-25 34 -65 34q-41 0 -65 -35q-22 -31 -22 -73q0 -43 19 -76q22 -40 61 -40q47 0 72 37q22 32 22 81z" />
    <glyph glyph-name="afii10081" unicode="&#x43f;" horiz-adv-x="299" 
d="M202 -32q-38 0 -60 25q-19 20 -17 37q3 48 32 48q6 0 8 -15q7 -52 49 -52t42 101q0 47 -24 90q-29 51 -72 51q-34 0 -61 -26.5t-32 -60.5q-3 -30 -1 -80q2 -77 2 -81q0 -21 -14 -21q-5 0 -13.5 1t-12.5 1q-13 0 -13 17q0 228 -2 307q0 9 6 9q38 0 41 -4t3 -39
q0 -22 2 -45q45 53 54 61q34 30 74 30q51 0 76 -58q18 -44 18 -102q0 -66 -15 -118q-22 -76 -70 -76z" />
    <glyph glyph-name="afii10082" unicode="&#x440;" horiz-adv-x="294" 
d="M51 154q0 104 -22 157q-2 3 6 6q21 6 48 6q9 0 11 -7v-16q0 -7 1 -8q-3 0 15.5 15.5t40.5 15.5q62 0 99 -57q32 -50 32 -114q0 -63 -31 -114q-36 -59 -94 -59q-23 0 -42.5 25.5t-19.5 49.5q0 6 5 13t11 7q7 0 21 -28.5t39 -30.5q37 -2 59 36q17 31 17 68q0 39 -21 71.5
t-58 32.5q-62 0 -84 -66q-12 -39 -12 -118q0 -62 -24 -179q-11 1 -27 5q-20 7 -17 13q13 33 28 115q19 97 19 161z" />
    <glyph glyph-name="afii10083" unicode="&#x441;" horiz-adv-x="311" 
d="M187 341q21 0 69 -15q22 -7 22 -30t-19 -49t-34 -26q-5 0 -24 10.5t-36 10.5q-40 0 -68 -41q-25 -37 -25 -79q1 -40 19 -68q21 -34 62 -34q43 0 70 23q13 10 30 38q11 21 22 21q13 0 13 -14q0 -3 -1 -7q-33 -90 -142 -90q-66 0 -103 54q-30 45 -30 112q0 73 50 128.5
t125 55.5z" />
    <glyph glyph-name="afii10084" unicode="&#x442;" horiz-adv-x="432" 
d="M324 -39q-15 0 -29 10.5t-14 25.5q0 31 7 31q5 0 17 -11t24 -11q32 0 47 45q11 32 11 72q0 35 -19 66q-22 37 -54 37q-38 0 -65 -40q-25 -36 -26.5 -76l-4.5 -120q0 -11 -10 -11q-19 0 -19 13q0 3 1.5 8.5t1.5 8.5q0 247 -61 247q-37 0 -51 -43q-8 -21 -10 -72
q-2 -19 -2 -144q0 -19 -9 -19q-37 0 -39 39q-5 109 -5 273q0 16 1 20q3 8 16 8q34 0 34 -9q1 -16 -1 -56q41 62 112 62q33 0 56 -60q0 -2 2 -2q-1 0 37.5 34.5t77.5 34.5q70 0 70 -127q0 -75 -18 -140q-26 -94 -78 -94z" />
    <glyph glyph-name="afii10085" unicode="&#x443;" horiz-adv-x="300" 
d="M71 326q32 0 32 -20q0 -14 -9.5 -64.5t-9.5 -74.5q0 -39 32.5 -72t71.5 -33q24 0 36 44q10 32 10 63q0 55 -29 113q-3 7 -3 10q0 12 22 23.5t35 11.5q16 0 24 -52q5 -32 5 -63q0 -127 -62 -231q-66 -113 -179 -154q-4 -2 -8 -2q-7 0 -22.5 19t-15.5 27q0 3 7 5
q81 29 91 34q43 22 71 66q16 26 16 30q0 5 -25 21q-15 9 -31 19q-46 36 -75.5 92.5t-29.5 113.5q0 36 6 51q10 23 40 23z" />
    <glyph glyph-name="afii10086" unicode="&#x444;" horiz-adv-x="468" 
d="M153 266q-43 0 -70 -45q-24 -39 -24 -87q0 -36 16 -64q19 -33 52 -33q45 0 67 43q18 33 18 82q0 36 -12 65q-17 39 -47 39zM247 4q-3 -98 -13 -132q-23 -71 -85 -72q-29 0 -75 32q-2 4 -2 10q0 3 4 3q-2 0 21 -10t40 -10q93 -3 78 229q-3 -11 -10.5 -20.5t-18.5 -17
t-23 -12t-24 -4.5q-62 0 -97 62q-29 52 -29 119q0 58 34 107q37 57 92 57q18 0 42 -11t33 -26q-4 111 -3 150q6 212 115 212q27 0 61 -18q39 -22 39 -46q0 -16 -16 -34t-32 -18q-2 0 -12.5 15.5t-31.5 15.5q-70 0 -78 -126q-4 -67 -6 -146q9 15 33 26t42 11q54 0 92 -57
q34 -49 34 -107q0 -67 -29 -119q-35 -62 -97 -62q-12 0 -24 4.5t-23 12t-18.5 17t-10.5 20.5q0 -5 -0.5 -12.5t-0.5 -15.5t-0.5 -15.5t-0.5 -11.5zM311 271q-31 0 -47 -39q-12 -29 -12 -65q0 -49 18 -82q22 -43 67 -43q32 0 52 33q16 28 16 64q0 48 -24 87q-27 45 -70 45z
" />
    <glyph glyph-name="afii10087" unicode="&#x445;" horiz-adv-x="321" 
d="M309 -6q0 -17 -20 -17q-2 1 -6 2q-17 17 -54 49q-17 9 -49 30q-24 -22 -73 -44q-52 -24 -82 -24q-10 0 -17 19q-6 15 -6 27q0 9 16 10q67 3 122 42q-99 89 -99 165q0 15 5 33q7 23 18 23q10 0 10 -15q0 -6 -4 -17.5t-4 -17.5q0 -41 35 -81.5t75 -40.5q29 0 46 28
q14 23 14 54q0 18 -12 50.5t-12 46.5q0 10 16 18.5t27 8.5q26 0 39 -34q10 -25 10 -55q0 -44 -31.5 -99.5t-31.5 -57.5q0 -15 34 -56t34 -47z" />
    <glyph glyph-name="afii10088" unicode="&#x446;" horiz-adv-x="311" 
d="M262 -11q-19 3 -29 9.5t-14.5 15.5t-6 21t-4.5 25q1 0 -13.5 -13t-34.5 -30q-37 -34 -77 -34q-70 0 -70 127q0 13 1 34.5t4 47t7.5 51.5t11.5 48t17 37t24 18q10 2 19.5 -5t11.5 -19q3 -25 -2 -25q-3 -1 -12 6t-17 6q-20 -3 -25 -41q-5 -16 -6 -41t-1 -45q0 -35 19 -66
q22 -37 54 -37q15 0 30.5 8.5t28 22t19.5 30t6 32.5q1 10 1.5 45.5t0.5 98.5q0 19 9 19q37 0 39 -39q1 -27 1.5 -54t0.5 -57v-63.5v-74.5q1 -15 5.5 -17.5t10.5 -8.5q14 0 25 -3.5t12 -12.5q0 -7 -5 -17t-11 -22.5t-11 -28t-5 -33.5q0 -5 -2 -5q-11 0 -14.5 11t-3.5 25.5
t2 29.5t4 24z" />
    <glyph glyph-name="afii10089" unicode="&#x447;" horiz-adv-x="246" 
d="M186 119q-3 9 -22 14t-44 12.5t-50 21t-39 39.5q-11 20 -17.5 41.5t-6.5 41.5q0 25 6 36q5 8 17.5 12t26.5 4q29 0 29 -14q0 -5 -1 -14t-6 -27q-9 -36 -9 -52q0 -14 9.5 -28.5t22.5 -19.5q31 -14 49 -11.5t27 15t10.5 32t-0.5 39.5t-5 36.5t-4 24.5q0 11 6 13.5t20 1.5
q14 0 23.5 -3t9.5 -14q0 -8 -1 -50t-4 -121q-2 -78 -3 -119t-2 -44q-1 -5 -6 -8t-10 -3q-7 0 -7 11q-2 19 -3.5 33.5t-3.5 28.5t-4 29t-3 35z" />
    <glyph glyph-name="afii10090" unicode="&#x448;" horiz-adv-x="432" 
d="M72 344q10 2 19.5 -5t11.5 -19q3 -25 -2 -25q-3 -1 -12 6t-17 6q-20 -3 -25 -41q-4 -17 -6 -35.5t-1 -37.5t5.5 -37.5t14.5 -34.5q22 -37 54 -37q38 0 65 40q24 35 26 76q1 20 2 50t3 70q0 11 10 11q19 0 19 -13q0 -3 -1.5 -8.5t-1.5 -8.5q0 -247 61 -247q38 0 51 43
q4 11 6.5 28.5t3.5 43.5q1 10 1.5 45.5t0.5 98.5q0 19 9 19q37 0 39 -39q2 -55 3.5 -123t1.5 -150q0 -17 -1 -20q-3 -8 -16 -8q-34 0 -34 9q-1 8 -0.5 22t1.5 34q-41 -62 -112 -62q-34 0 -56 60q0 2 -2 2q2 0 -38 -35q-37 -34 -77 -34q-70 0 -70 127q0 33 4 70.5t11.5 71
t19.5 57.5t29 30z" />
    <glyph glyph-name="afii10091" unicode="&#x449;" horiz-adv-x="473" 
d="M368 52q-41 -62 -112 -62q-34 0 -56 60q0 2 -2 2q2 0 -38 -35q-37 -34 -77 -34q-70 0 -70 127q0 75 18 140q25 94 78 94q15 0 29 -10.5t14 -25.5q0 -31 -7 -31q-3 0 -7.5 3.5t-10 7.5t-11.5 7.5t-12 3.5q-32 0 -47 -45q-11 -33 -11 -72q0 -35 19 -66q22 -37 54 -37
q38 0 65 40q24 35 26 76q1 20 2 50t3 70q0 11 10 11q19 0 19 -13q0 -3 -1.5 -8.5t-1.5 -8.5q0 -247 61 -247q38 0 51 43q4 11 6.5 28.5t3.5 43.5q1 10 1.5 45.5t0.5 98.5q0 19 9 19q37 0 39 -39q1 -27 1.5 -54t0.5 -57v-63.5v-74.5q1 -15 5.5 -17.5t10.5 -8.5q14 0 25 -3.5
t12 -12.5q0 -7 -5 -17t-11 -22.5t-11 -28t-5 -33.5q0 -5 -2 -5q-11 0 -14.5 11t-3.5 25.5t2 29.5t4 24q-19 3 -29 9.5t-14.5 15.5t-6 21t-4.5 25z" />
    <glyph glyph-name="afii10092" unicode="&#x44a;" horiz-adv-x="382" 
d="M118 289q-2 27 -10.5 24.5t-28.5 -32.5q-10 -15 -22.5 -21t-24.5 -4q-10 1 -18 13t-6 28q6 38 21 36q8 -1 16 -15q6 -13 14 -13q6 0 12.5 5.5t13.5 12.5t14.5 12t16.5 4q29 -3 35.5 -16.5t6.5 -38.5q0 2 -1.5 -16.5t-2.5 -41t-1 -41.5t3 -19q2 0 4.5 -1t4.5 1
q22 17 38 30t30 17q13 4 30 4q20 0 41 -11t35 -27q32 -35 32 -83q0 -13 -3 -23q-9 -35 -23 -51q-8 -10 -25 -16t-36 -9q-11 -2 -23 -3t-24 -1q-14 0 -33 2t-43 6q-8 2 -18 3.5t-12 3.5t-7 14q-9 23 -11 57t-1.5 71.5t3 74t3.5 64.5zM282 41q11 9 15.5 22t4 27.5t-5.5 28
t-14 24.5q-13 14 -22.5 21t-31.5 7q-35 0 -52.5 -25t-17.5 -58q0 -12 4 -27q4 -17 19 -25.5t34 -10t37.5 2.5t29.5 13z" />
    <glyph glyph-name="afii10093" unicode="&#x44b;" horiz-adv-x="367" 
d="M51 184q6 62 11.5 101t5.5 43q0 12 -9 12h-42q-6 -3 -4 -12q0 -32 0.5 -65.5t1.5 -68.5q0 -49 4.5 -96.5t15.5 -75.5q5 -12 7 -14q4 -4 21 -7q24 -4 43 -6t33 -2q12 0 24 1t23 3q19 3 36 9t25 16q14 16 23 51q3 10 3 23q0 48 -32 83q-14 16 -35 27t-41 11q-17 0 -30 -4
q-14 -4 -30 -17t-38 -30q-2 -2 -4.5 -1t-4.5 1q-4 0 -4 3.5t-3 14.5zM184 41q-11 -9 -29.5 -13t-37.5 -2.5t-34 10t-19 25.5q-4 15 -4 27q0 33 17.5 58t52.5 25q22 0 31.5 -7t22.5 -21q9 -11 14 -24.5t5.5 -28t-4 -27.5t-15.5 -22zM336 -10q-9 -6 -20.5 4t-15.5 21
q-2 5 -3 37q-3 54 -4.5 123t-2.5 154q-2 9 4 12h43q9 0 9 -12q0 -8 -9 -120q-7 -111 -9 -127q0 -24 19 -59q6 -11 2 -22q-2 -4 -13 -11z" />
    <glyph glyph-name="afii10094" unicode="&#x44c;" horiz-adv-x="278" 
d="M51 184q3 -11 3 -14.5t4 -3.5q2 0 4.5 -1t4.5 1q22 17 38 30t30 17q13 4 30 4q20 0 41 -11t35 -27q32 -35 32 -83q0 -13 -3 -23q-9 -35 -23 -51q-8 -10 -25 -16t-36 -9q-11 -2 -23 -3t-24 -1q-14 0 -33 2t-43 6q-17 3 -21 7q-2 2 -7 14q-11 28 -15.5 75.5t-4.5 96.5
q-1 35 -1.5 68.5t-0.5 65.5q-2 9 4 12h42q9 0 9 -12q0 -4 -5.5 -43t-11.5 -101zM184 41q11 9 15.5 22t4 27.5t-5.5 28t-14 24.5q-13 14 -22.5 21t-31.5 7q-35 0 -52.5 -25t-17.5 -58q0 -12 4 -27q4 -17 19 -25.5t34 -10t37.5 2.5t29.5 13z" />
    <glyph glyph-name="afii10095" unicode="&#x44d;" horiz-adv-x="269" 
d="M196 185q-3 20 -11.5 31t-19 16.5t-21.5 7t-20 1.5q-8 0 -17 -3.5t-16.5 -7t-13.5 -7t-8 -3.5q-14 0 -32 25q-8 14 -12.5 25.5t-4.5 23.5q0 22 20 30q45 15 63 15q69 0 115 -55t46 -128q0 -66 -27 -112q-35 -53 -95 -53q-100 0 -130 90q-1 2 -1 6q0 15 12 15q8 0 21 -21
q8 -14 14.5 -23.5t12.5 -15.5q25 -22 64 -22q37 0 57 34q8 14 12 25.5t5 31.5q0 23 -15 23q-4 0 -6 -1q-10 -5 -19.5 -6.5t-17.5 -1.5q-37 0 -60 33q-3 4 -3 12q0 11 7 11q3 0 6 -3q15 -9 28 -14.5t24 -5.5q17 0 34 14q5 4 9 13z" />
    <glyph glyph-name="afii10096" unicode="&#x44e;" horiz-adv-x="404" 
d="M259 -15q-55 0 -89 54q-31 47 -31 105q0 13 1 26q-14 -5 -24 -5t-18.5 2t-16 5t-14.5 5q-11 3 -15.5 -15.5t-5 -45t2.5 -53t6 -38.5q1 -5 1.5 -9.5t0.5 -7.5q0 -5 -6 -7.5t-9 -2.5q-8 0 -14 18.5t-10 44.5t-6 52.5t-2 43.5q0 37 4 70.5t11 58.5t17 39.5t22 14.5
q10 0 10 -7q0 -3 -5 -16.5t-5 -26.5q0 -57 23.5 -80t56.5 -14q7 37 25 71q37 68 98 68q59 0 95 -59q32 -52 32 -113q0 -65 -34 -118q-39 -60 -101 -60zM353 131q0 41 -22 72q-25 34 -65 34q-41 0 -65 -35q-22 -31 -22 -73q0 -43 19 -76q22 -40 61 -40q47 0 72 37
q22 32 22 81z" />
    <glyph glyph-name="afii10097" unicode="&#x44f;" horiz-adv-x="280" 
d="M17 248q0 29 12.5 47t32.5 28.5t47.5 14.5t57.5 4q71 0 78 -31q8 -32 15 -71t7 -87q0 -23 -2 -61.5t-6 -92.5q-1 -5 -11 -7t-15 -2q-8 0 -8 9q0 4 1 7q5 23 4.5 45t-0.5 45q0 32 -4 54t-16 22q-4 0 -12 -5q-36 -16 -58.5 -30t-35 -29t-17.5 -33t-5 -42q0 -6 0.5 -12.5
t0.5 -12.5q0 -12 -10 -14t-27 -2t-19.5 11t-2.5 23q0 45 20 74.5t45 48.5l4 3h-1q-1 0 -1.5 0.5t-1.5 0.5q-33 8 -52.5 33.5t-19.5 56.5v5v0zM100 207q11 -10 23.5 -14.5t29.5 -4.5q26 0 46 13t20 46q0 30 -16.5 47.5t-43.5 17.5q-16 0 -30 -2.5t-24.5 -9t-16.5 -18.5
t-6 -30q0 -30 18 -45z" />
    </font>
</defs>
</svg>
